G04 #@! TF.FileFunction,Soldermask,Top*
%FSLAX46Y46*%
G04 Gerber Fmt 4.6, Leading zero omitted, Abs format (unit mm)*
G04 Created by KiCad (PCBNEW 4.0.1-stable) date 02/05/2016 19:52:28*
%MOMM*%
G01*
G04 APERTURE LIST*
%ADD10C,0.100000*%
%ADD11C,0.010000*%
%ADD12R,0.902400X0.952400*%
%ADD13R,1.051560X2.151380*%
%ADD14R,1.153160X2.151380*%
%ADD15R,0.551180X2.352040*%
%ADD16R,2.049780X2.550160*%
%ADD17C,0.949960*%
%ADD18C,5.994400*%
%ADD19O,2.452400X1.752400*%
%ADD20R,1.500800X0.500800*%
%ADD21C,0.652400*%
%ADD22R,1.550800X0.330800*%
%ADD23R,0.330800X1.550800*%
%ADD24R,1.052400X0.652400*%
%ADD25R,0.652400X1.052400*%
%ADD26O,2.692400X2.184400*%
%ADD27R,0.952400X0.902400*%
%ADD28C,2.552400*%
%ADD29R,0.949960X0.949960*%
%ADD30C,3.802380*%
%ADD31R,1.653540X1.653540*%
%ADD32C,1.653540*%
%ADD33R,1.422400X1.117600*%
%ADD34R,1.676400X1.976400*%
%ADD35O,1.676400X1.976400*%
%ADD36C,1.852400*%
%ADD37R,3.200400X1.803400*%
%ADD38R,6.248400X6.248400*%
%ADD39R,2.252980X5.753100*%
%ADD40R,3.652520X3.652520*%
%ADD41C,2.151380*%
%ADD42R,2.151380X2.151380*%
G04 APERTURE END LIST*
D10*
D11*
G36*
X152858244Y-129770028D02*
X153245107Y-129864289D01*
X153628738Y-130093210D01*
X154109625Y-130515555D01*
X154734448Y-131135689D01*
X156720948Y-132860527D01*
X158876813Y-134202867D01*
X161177994Y-135155171D01*
X163600440Y-135709903D01*
X166120100Y-135859527D01*
X168712922Y-135596508D01*
X168875022Y-135566544D01*
X169795053Y-135369900D01*
X170656070Y-135148160D01*
X171291027Y-134944921D01*
X171355449Y-134919144D01*
X171950375Y-134692400D01*
X172203957Y-134641118D01*
X172145764Y-134736710D01*
X171805362Y-134950588D01*
X171212319Y-135254162D01*
X170823098Y-135433873D01*
X168972729Y-136171411D01*
X167220489Y-136659886D01*
X165408284Y-136931697D01*
X163378020Y-137019242D01*
X163089167Y-137018774D01*
X160667887Y-136879647D01*
X158443887Y-136471071D01*
X156305046Y-135760742D01*
X154139243Y-134716359D01*
X153187451Y-134166020D01*
X152674497Y-133876538D01*
X152345879Y-133799623D01*
X152028108Y-133921630D01*
X151811618Y-134057819D01*
X150752020Y-134668183D01*
X149446361Y-135303291D01*
X148060566Y-135890532D01*
X146760560Y-136357295D01*
X146155833Y-136532869D01*
X144919273Y-136780234D01*
X143475253Y-136958797D01*
X141970680Y-137059522D01*
X140552464Y-137073373D01*
X139367513Y-136991315D01*
X139170833Y-136962499D01*
X137856541Y-136693101D01*
X136454060Y-136315396D01*
X135088467Y-135870357D01*
X133884839Y-135398955D01*
X132968253Y-134942162D01*
X132926667Y-134917062D01*
X132397500Y-134593469D01*
X132926667Y-134735099D01*
X133394889Y-134863113D01*
X134115169Y-135062963D01*
X134932136Y-135291538D01*
X134937500Y-135293045D01*
X136240776Y-135555967D01*
X137784419Y-135706893D01*
X139417298Y-135743871D01*
X140988282Y-135664949D01*
X142346240Y-135468175D01*
X142663333Y-135392853D01*
X144936810Y-134592612D01*
X147121535Y-133441612D01*
X149108269Y-132004638D01*
X150350713Y-130833646D01*
X150915622Y-130258975D01*
X151334772Y-129934081D01*
X151739366Y-129788581D01*
X152260607Y-129752092D01*
X152367661Y-129751666D01*
X152858244Y-129770028D01*
X152858244Y-129770028D01*
G37*
X152858244Y-129770028D02*
X153245107Y-129864289D01*
X153628738Y-130093210D01*
X154109625Y-130515555D01*
X154734448Y-131135689D01*
X156720948Y-132860527D01*
X158876813Y-134202867D01*
X161177994Y-135155171D01*
X163600440Y-135709903D01*
X166120100Y-135859527D01*
X168712922Y-135596508D01*
X168875022Y-135566544D01*
X169795053Y-135369900D01*
X170656070Y-135148160D01*
X171291027Y-134944921D01*
X171355449Y-134919144D01*
X171950375Y-134692400D01*
X172203957Y-134641118D01*
X172145764Y-134736710D01*
X171805362Y-134950588D01*
X171212319Y-135254162D01*
X170823098Y-135433873D01*
X168972729Y-136171411D01*
X167220489Y-136659886D01*
X165408284Y-136931697D01*
X163378020Y-137019242D01*
X163089167Y-137018774D01*
X160667887Y-136879647D01*
X158443887Y-136471071D01*
X156305046Y-135760742D01*
X154139243Y-134716359D01*
X153187451Y-134166020D01*
X152674497Y-133876538D01*
X152345879Y-133799623D01*
X152028108Y-133921630D01*
X151811618Y-134057819D01*
X150752020Y-134668183D01*
X149446361Y-135303291D01*
X148060566Y-135890532D01*
X146760560Y-136357295D01*
X146155833Y-136532869D01*
X144919273Y-136780234D01*
X143475253Y-136958797D01*
X141970680Y-137059522D01*
X140552464Y-137073373D01*
X139367513Y-136991315D01*
X139170833Y-136962499D01*
X137856541Y-136693101D01*
X136454060Y-136315396D01*
X135088467Y-135870357D01*
X133884839Y-135398955D01*
X132968253Y-134942162D01*
X132926667Y-134917062D01*
X132397500Y-134593469D01*
X132926667Y-134735099D01*
X133394889Y-134863113D01*
X134115169Y-135062963D01*
X134932136Y-135291538D01*
X134937500Y-135293045D01*
X136240776Y-135555967D01*
X137784419Y-135706893D01*
X139417298Y-135743871D01*
X140988282Y-135664949D01*
X142346240Y-135468175D01*
X142663333Y-135392853D01*
X144936810Y-134592612D01*
X147121535Y-133441612D01*
X149108269Y-132004638D01*
X150350713Y-130833646D01*
X150915622Y-130258975D01*
X151334772Y-129934081D01*
X151739366Y-129788581D01*
X152260607Y-129752092D01*
X152367661Y-129751666D01*
X152858244Y-129770028D01*
G36*
X149259843Y-129767113D02*
X150032043Y-129809067D01*
X150541811Y-129870946D01*
X150706667Y-129939064D01*
X150547706Y-130212600D01*
X150120853Y-130669818D01*
X149501149Y-131246194D01*
X148763636Y-131877203D01*
X147983356Y-132498320D01*
X147235351Y-133045021D01*
X146671920Y-133408332D01*
X144883668Y-134309536D01*
X143048193Y-134918603D01*
X141047691Y-135267347D01*
X139382500Y-135376797D01*
X138048145Y-135393188D01*
X137001503Y-135347941D01*
X136110071Y-135230717D01*
X135360833Y-135062962D01*
X134537599Y-134828534D01*
X133669480Y-134549836D01*
X132844423Y-134259465D01*
X132150375Y-133990020D01*
X131675285Y-133774099D01*
X131507100Y-133644301D01*
X131511576Y-133636201D01*
X131736196Y-133651500D01*
X132267812Y-133758156D01*
X133005295Y-133935069D01*
X133262094Y-134001454D01*
X135388659Y-134343669D01*
X137566119Y-134271298D01*
X139771937Y-133786667D01*
X141421619Y-133158435D01*
X142263539Y-132705587D01*
X143247218Y-132067073D01*
X144226322Y-131347661D01*
X145054513Y-130652121D01*
X145398980Y-130310852D01*
X145640645Y-130068734D01*
X145894549Y-129908986D01*
X146249680Y-129814512D01*
X146795027Y-129768214D01*
X147619578Y-129752994D01*
X148309396Y-129751666D01*
X149259843Y-129767113D01*
X149259843Y-129767113D01*
G37*
X149259843Y-129767113D02*
X150032043Y-129809067D01*
X150541811Y-129870946D01*
X150706667Y-129939064D01*
X150547706Y-130212600D01*
X150120853Y-130669818D01*
X149501149Y-131246194D01*
X148763636Y-131877203D01*
X147983356Y-132498320D01*
X147235351Y-133045021D01*
X146671920Y-133408332D01*
X144883668Y-134309536D01*
X143048193Y-134918603D01*
X141047691Y-135267347D01*
X139382500Y-135376797D01*
X138048145Y-135393188D01*
X137001503Y-135347941D01*
X136110071Y-135230717D01*
X135360833Y-135062962D01*
X134537599Y-134828534D01*
X133669480Y-134549836D01*
X132844423Y-134259465D01*
X132150375Y-133990020D01*
X131675285Y-133774099D01*
X131507100Y-133644301D01*
X131511576Y-133636201D01*
X131736196Y-133651500D01*
X132267812Y-133758156D01*
X133005295Y-133935069D01*
X133262094Y-134001454D01*
X135388659Y-134343669D01*
X137566119Y-134271298D01*
X139771937Y-133786667D01*
X141421619Y-133158435D01*
X142263539Y-132705587D01*
X143247218Y-132067073D01*
X144226322Y-131347661D01*
X145054513Y-130652121D01*
X145398980Y-130310852D01*
X145640645Y-130068734D01*
X145894549Y-129908986D01*
X146249680Y-129814512D01*
X146795027Y-129768214D01*
X147619578Y-129752994D01*
X148309396Y-129751666D01*
X149259843Y-129767113D01*
G36*
X157532753Y-129756210D02*
X158240572Y-129781241D01*
X158703049Y-129843856D01*
X159009172Y-129961153D01*
X159247930Y-130150230D01*
X159401020Y-130310852D01*
X160656955Y-131449552D01*
X162219261Y-132500091D01*
X163971351Y-133392143D01*
X165417500Y-133939997D01*
X166325041Y-134131735D01*
X167508718Y-134244142D01*
X168828912Y-134277642D01*
X170146006Y-134232661D01*
X171320382Y-134109623D01*
X172180957Y-133919431D01*
X172784335Y-133739840D01*
X173198192Y-133649278D01*
X173304342Y-133652120D01*
X173171647Y-133763509D01*
X172726489Y-133967076D01*
X172060648Y-134229303D01*
X171265906Y-134516675D01*
X170434043Y-134795676D01*
X169656838Y-135032791D01*
X169170657Y-135161631D01*
X167995366Y-135347688D01*
X166565801Y-135431047D01*
X165037849Y-135413785D01*
X163567399Y-135297979D01*
X162310338Y-135085707D01*
X162242500Y-135069306D01*
X160025756Y-134339764D01*
X157946741Y-133303377D01*
X157327946Y-132911956D01*
X156739415Y-132478217D01*
X156065559Y-131923161D01*
X155385697Y-131320215D01*
X154779151Y-130742807D01*
X154325240Y-130264365D01*
X154103284Y-129958315D01*
X154093333Y-129917647D01*
X154290943Y-129851839D01*
X154827646Y-129798374D01*
X155619252Y-129763079D01*
X156490603Y-129751666D01*
X157532753Y-129756210D01*
X157532753Y-129756210D01*
G37*
X157532753Y-129756210D02*
X158240572Y-129781241D01*
X158703049Y-129843856D01*
X159009172Y-129961153D01*
X159247930Y-130150230D01*
X159401020Y-130310852D01*
X160656955Y-131449552D01*
X162219261Y-132500091D01*
X163971351Y-133392143D01*
X165417500Y-133939997D01*
X166325041Y-134131735D01*
X167508718Y-134244142D01*
X168828912Y-134277642D01*
X170146006Y-134232661D01*
X171320382Y-134109623D01*
X172180957Y-133919431D01*
X172784335Y-133739840D01*
X173198192Y-133649278D01*
X173304342Y-133652120D01*
X173171647Y-133763509D01*
X172726489Y-133967076D01*
X172060648Y-134229303D01*
X171265906Y-134516675D01*
X170434043Y-134795676D01*
X169656838Y-135032791D01*
X169170657Y-135161631D01*
X167995366Y-135347688D01*
X166565801Y-135431047D01*
X165037849Y-135413785D01*
X163567399Y-135297979D01*
X162310338Y-135085707D01*
X162242500Y-135069306D01*
X160025756Y-134339764D01*
X157946741Y-133303377D01*
X157327946Y-132911956D01*
X156739415Y-132478217D01*
X156065559Y-131923161D01*
X155385697Y-131320215D01*
X154779151Y-130742807D01*
X154325240Y-130264365D01*
X154103284Y-129958315D01*
X154093333Y-129917647D01*
X154290943Y-129851839D01*
X154827646Y-129798374D01*
X155619252Y-129763079D01*
X156490603Y-129751666D01*
X157532753Y-129756210D01*
G36*
X150655027Y-116469583D02*
X150471905Y-117274214D01*
X150366251Y-118050863D01*
X150328738Y-118933044D01*
X150350042Y-120054271D01*
X150370405Y-120544166D01*
X150427585Y-121623834D01*
X150495169Y-122625053D01*
X150564232Y-123428331D01*
X150619369Y-123877916D01*
X150752982Y-124671666D01*
X149683983Y-124671666D01*
X149053904Y-124642823D01*
X148622428Y-124569151D01*
X148518613Y-124512916D01*
X148497980Y-124231616D01*
X148546590Y-123674507D01*
X148617133Y-123190000D01*
X148727218Y-121451660D01*
X148524192Y-119541353D01*
X148021734Y-117556224D01*
X147696748Y-116652116D01*
X147451692Y-116006000D01*
X147361831Y-115633159D01*
X147422577Y-115414843D01*
X147629342Y-115232307D01*
X147641547Y-115223366D01*
X148119629Y-115049915D01*
X148930902Y-114952051D01*
X149545456Y-114935000D01*
X151055001Y-114935000D01*
X150655027Y-116469583D01*
X150655027Y-116469583D01*
G37*
X150655027Y-116469583D02*
X150471905Y-117274214D01*
X150366251Y-118050863D01*
X150328738Y-118933044D01*
X150350042Y-120054271D01*
X150370405Y-120544166D01*
X150427585Y-121623834D01*
X150495169Y-122625053D01*
X150564232Y-123428331D01*
X150619369Y-123877916D01*
X150752982Y-124671666D01*
X149683983Y-124671666D01*
X149053904Y-124642823D01*
X148622428Y-124569151D01*
X148518613Y-124512916D01*
X148497980Y-124231616D01*
X148546590Y-123674507D01*
X148617133Y-123190000D01*
X148727218Y-121451660D01*
X148524192Y-119541353D01*
X148021734Y-117556224D01*
X147696748Y-116652116D01*
X147451692Y-116006000D01*
X147361831Y-115633159D01*
X147422577Y-115414843D01*
X147629342Y-115232307D01*
X147641547Y-115223366D01*
X148119629Y-115049915D01*
X148930902Y-114952051D01*
X149545456Y-114935000D01*
X151055001Y-114935000D01*
X150655027Y-116469583D01*
G36*
X153822837Y-116152083D02*
X153996040Y-116980043D01*
X154117608Y-118099418D01*
X154186013Y-119389461D01*
X154199729Y-120729426D01*
X154157230Y-121998567D01*
X154056987Y-123076138D01*
X153919196Y-123772083D01*
X153653683Y-124671666D01*
X152505122Y-124671666D01*
X151786524Y-124638867D01*
X151371305Y-124517365D01*
X151142976Y-124272506D01*
X151139068Y-124265276D01*
X151018450Y-123883988D01*
X150875416Y-123198520D01*
X150732685Y-122325611D01*
X150665658Y-121832671D01*
X150552853Y-120149864D01*
X150612991Y-118423203D01*
X150834035Y-116806701D01*
X151153262Y-115594253D01*
X151326548Y-115197131D01*
X151573736Y-115002942D01*
X152032294Y-114939850D01*
X152414793Y-114935000D01*
X153446507Y-114935000D01*
X153822837Y-116152083D01*
X153822837Y-116152083D01*
G37*
X153822837Y-116152083D02*
X153996040Y-116980043D01*
X154117608Y-118099418D01*
X154186013Y-119389461D01*
X154199729Y-120729426D01*
X154157230Y-121998567D01*
X154056987Y-123076138D01*
X153919196Y-123772083D01*
X153653683Y-124671666D01*
X152505122Y-124671666D01*
X151786524Y-124638867D01*
X151371305Y-124517365D01*
X151142976Y-124272506D01*
X151139068Y-124265276D01*
X151018450Y-123883988D01*
X150875416Y-123198520D01*
X150732685Y-122325611D01*
X150665658Y-121832671D01*
X150552853Y-120149864D01*
X150612991Y-118423203D01*
X150834035Y-116806701D01*
X151153262Y-115594253D01*
X151326548Y-115197131D01*
X151573736Y-115002942D01*
X152032294Y-114939850D01*
X152414793Y-114935000D01*
X153446507Y-114935000D01*
X153822837Y-116152083D01*
G36*
X155935433Y-114971181D02*
X156581108Y-115045893D01*
X157035083Y-115154599D01*
X157133808Y-115205345D01*
X157293626Y-115354775D01*
X157358693Y-115560910D01*
X157317967Y-115906959D01*
X157160410Y-116476128D01*
X156874980Y-117351626D01*
X156831999Y-117480066D01*
X156502474Y-118523627D01*
X156303613Y-119363145D01*
X156205990Y-120185412D01*
X156180180Y-121177218D01*
X156182696Y-121601804D01*
X156197603Y-122550224D01*
X156219560Y-123373674D01*
X156245049Y-123957062D01*
X156260377Y-124142500D01*
X156241587Y-124391474D01*
X156038341Y-124531365D01*
X155555232Y-124605126D01*
X155175712Y-124630812D01*
X154035591Y-124695792D01*
X154180659Y-123995812D01*
X154491640Y-121903001D01*
X154580324Y-119788106D01*
X154448111Y-117779127D01*
X154096403Y-116004064D01*
X154093087Y-115992476D01*
X153952617Y-115461972D01*
X153883235Y-115120102D01*
X153881667Y-115095147D01*
X154071175Y-114992445D01*
X154558170Y-114940313D01*
X155220355Y-114934606D01*
X155935433Y-114971181D01*
X155935433Y-114971181D01*
G37*
X155935433Y-114971181D02*
X156581108Y-115045893D01*
X157035083Y-115154599D01*
X157133808Y-115205345D01*
X157293626Y-115354775D01*
X157358693Y-115560910D01*
X157317967Y-115906959D01*
X157160410Y-116476128D01*
X156874980Y-117351626D01*
X156831999Y-117480066D01*
X156502474Y-118523627D01*
X156303613Y-119363145D01*
X156205990Y-120185412D01*
X156180180Y-121177218D01*
X156182696Y-121601804D01*
X156197603Y-122550224D01*
X156219560Y-123373674D01*
X156245049Y-123957062D01*
X156260377Y-124142500D01*
X156241587Y-124391474D01*
X156038341Y-124531365D01*
X155555232Y-124605126D01*
X155175712Y-124630812D01*
X154035591Y-124695792D01*
X154180659Y-123995812D01*
X154491640Y-121903001D01*
X154580324Y-119788106D01*
X154448111Y-117779127D01*
X154096403Y-116004064D01*
X154093087Y-115992476D01*
X153952617Y-115461972D01*
X153883235Y-115120102D01*
X153881667Y-115095147D01*
X154071175Y-114992445D01*
X154558170Y-114940313D01*
X155220355Y-114934606D01*
X155935433Y-114971181D01*
G36*
X167244697Y-104671502D02*
X167929822Y-104759325D01*
X170471369Y-105295328D01*
X172805485Y-106189797D01*
X174909526Y-107425465D01*
X176760848Y-108985067D01*
X178336807Y-110851335D01*
X179614760Y-113007002D01*
X180064484Y-114012394D01*
X180413007Y-114976502D01*
X180738744Y-116072010D01*
X181018738Y-117195804D01*
X181230035Y-118244768D01*
X181349677Y-119115787D01*
X181354710Y-119705747D01*
X181344510Y-119762073D01*
X181266272Y-119798714D01*
X181157677Y-119488479D01*
X181098784Y-119208348D01*
X180560511Y-117323217D01*
X179665718Y-115469436D01*
X178477251Y-113736167D01*
X177057955Y-112212574D01*
X175470678Y-110987820D01*
X175179476Y-110810365D01*
X173314897Y-109923671D01*
X171315678Y-109339220D01*
X169266796Y-109064459D01*
X167253227Y-109106834D01*
X165359949Y-109473789D01*
X164306250Y-109857625D01*
X163806351Y-110064160D01*
X163520829Y-110098773D01*
X163418807Y-109901153D01*
X163469409Y-109410989D01*
X163641759Y-108567971D01*
X163643012Y-108562129D01*
X164112735Y-107318904D01*
X164754262Y-106363030D01*
X165242061Y-105736003D01*
X165642150Y-105194286D01*
X165846985Y-104888554D01*
X165984615Y-104712092D01*
X166202958Y-104620848D01*
X166592742Y-104609195D01*
X167244697Y-104671502D01*
X167244697Y-104671502D01*
G37*
X167244697Y-104671502D02*
X167929822Y-104759325D01*
X170471369Y-105295328D01*
X172805485Y-106189797D01*
X174909526Y-107425465D01*
X176760848Y-108985067D01*
X178336807Y-110851335D01*
X179614760Y-113007002D01*
X180064484Y-114012394D01*
X180413007Y-114976502D01*
X180738744Y-116072010D01*
X181018738Y-117195804D01*
X181230035Y-118244768D01*
X181349677Y-119115787D01*
X181354710Y-119705747D01*
X181344510Y-119762073D01*
X181266272Y-119798714D01*
X181157677Y-119488479D01*
X181098784Y-119208348D01*
X180560511Y-117323217D01*
X179665718Y-115469436D01*
X178477251Y-113736167D01*
X177057955Y-112212574D01*
X175470678Y-110987820D01*
X175179476Y-110810365D01*
X173314897Y-109923671D01*
X171315678Y-109339220D01*
X169266796Y-109064459D01*
X167253227Y-109106834D01*
X165359949Y-109473789D01*
X164306250Y-109857625D01*
X163806351Y-110064160D01*
X163520829Y-110098773D01*
X163418807Y-109901153D01*
X163469409Y-109410989D01*
X163641759Y-108567971D01*
X163643012Y-108562129D01*
X164112735Y-107318904D01*
X164754262Y-106363030D01*
X165242061Y-105736003D01*
X165642150Y-105194286D01*
X165846985Y-104888554D01*
X165984615Y-104712092D01*
X166202958Y-104620848D01*
X166592742Y-104609195D01*
X167244697Y-104671502D01*
G36*
X139842884Y-106025701D02*
X140614890Y-107209974D01*
X141081406Y-108258302D01*
X141199774Y-108689069D01*
X141323563Y-109344579D01*
X141370209Y-109817336D01*
X141346180Y-109972709D01*
X141104171Y-109964947D01*
X140580038Y-109834112D01*
X139887004Y-109608495D01*
X139883456Y-109607230D01*
X139194473Y-109388087D01*
X138520427Y-109246582D01*
X137738878Y-109167850D01*
X136727391Y-109137025D01*
X135995833Y-109135209D01*
X134316654Y-109202312D01*
X132898170Y-109418239D01*
X131591778Y-109823709D01*
X130248875Y-110459444D01*
X129411991Y-110939329D01*
X128003362Y-111984093D01*
X126680226Y-113335271D01*
X125521781Y-114886335D01*
X124607226Y-116530754D01*
X124015761Y-118162000D01*
X124002306Y-118215833D01*
X123818914Y-118856936D01*
X123633742Y-119344650D01*
X123483734Y-119601468D01*
X123405837Y-119549885D01*
X123401956Y-119475249D01*
X123449243Y-119016939D01*
X123572630Y-118277052D01*
X123745591Y-117384718D01*
X123941601Y-116469068D01*
X124134133Y-115659231D01*
X124296662Y-115084336D01*
X124314579Y-115032542D01*
X124925198Y-113585934D01*
X125715100Y-112084389D01*
X126586975Y-110701330D01*
X127201477Y-109887505D01*
X128763976Y-108320428D01*
X130628594Y-106973553D01*
X132713588Y-105888578D01*
X134937215Y-105107205D01*
X137217734Y-104671135D01*
X137477500Y-104645230D01*
X138747500Y-104530870D01*
X139842884Y-106025701D01*
X139842884Y-106025701D01*
G37*
X139842884Y-106025701D02*
X140614890Y-107209974D01*
X141081406Y-108258302D01*
X141199774Y-108689069D01*
X141323563Y-109344579D01*
X141370209Y-109817336D01*
X141346180Y-109972709D01*
X141104171Y-109964947D01*
X140580038Y-109834112D01*
X139887004Y-109608495D01*
X139883456Y-109607230D01*
X139194473Y-109388087D01*
X138520427Y-109246582D01*
X137738878Y-109167850D01*
X136727391Y-109137025D01*
X135995833Y-109135209D01*
X134316654Y-109202312D01*
X132898170Y-109418239D01*
X131591778Y-109823709D01*
X130248875Y-110459444D01*
X129411991Y-110939329D01*
X128003362Y-111984093D01*
X126680226Y-113335271D01*
X125521781Y-114886335D01*
X124607226Y-116530754D01*
X124015761Y-118162000D01*
X124002306Y-118215833D01*
X123818914Y-118856936D01*
X123633742Y-119344650D01*
X123483734Y-119601468D01*
X123405837Y-119549885D01*
X123401956Y-119475249D01*
X123449243Y-119016939D01*
X123572630Y-118277052D01*
X123745591Y-117384718D01*
X123941601Y-116469068D01*
X124134133Y-115659231D01*
X124296662Y-115084336D01*
X124314579Y-115032542D01*
X124925198Y-113585934D01*
X125715100Y-112084389D01*
X126586975Y-110701330D01*
X127201477Y-109887505D01*
X128763976Y-108320428D01*
X130628594Y-106973553D01*
X132713588Y-105888578D01*
X134937215Y-105107205D01*
X137217734Y-104671135D01*
X137477500Y-104645230D01*
X138747500Y-104530870D01*
X139842884Y-106025701D01*
G36*
X170543763Y-95665035D02*
X170678589Y-96241995D01*
X170795354Y-97142826D01*
X170887217Y-98317808D01*
X170936656Y-99377500D01*
X171010449Y-101494166D01*
X171706474Y-101893172D01*
X174218421Y-103542362D01*
X176366982Y-105404768D01*
X178159595Y-107489397D01*
X179603697Y-109805256D01*
X180706726Y-112361351D01*
X180941915Y-113077247D01*
X181184743Y-113992782D01*
X181409035Y-115066132D01*
X181597120Y-116180955D01*
X181731324Y-117220910D01*
X181793977Y-118069653D01*
X181775768Y-118566739D01*
X181708555Y-118674400D01*
X181617354Y-118397857D01*
X181532499Y-117898333D01*
X181022553Y-115614710D01*
X180161952Y-113379911D01*
X178998392Y-111281207D01*
X177579568Y-109405864D01*
X176102730Y-107963585D01*
X174274984Y-106678651D01*
X172204741Y-105629551D01*
X170017398Y-104868707D01*
X167838350Y-104448540D01*
X167648702Y-104429391D01*
X166225835Y-104297149D01*
X167155640Y-102154824D01*
X167761777Y-100779723D01*
X168363381Y-99453795D01*
X168934032Y-98231580D01*
X169447312Y-97167620D01*
X169876801Y-96316457D01*
X170196080Y-95732631D01*
X170378731Y-95470684D01*
X170397721Y-95461666D01*
X170543763Y-95665035D01*
X170543763Y-95665035D01*
G37*
X170543763Y-95665035D02*
X170678589Y-96241995D01*
X170795354Y-97142826D01*
X170887217Y-98317808D01*
X170936656Y-99377500D01*
X171010449Y-101494166D01*
X171706474Y-101893172D01*
X174218421Y-103542362D01*
X176366982Y-105404768D01*
X178159595Y-107489397D01*
X179603697Y-109805256D01*
X180706726Y-112361351D01*
X180941915Y-113077247D01*
X181184743Y-113992782D01*
X181409035Y-115066132D01*
X181597120Y-116180955D01*
X181731324Y-117220910D01*
X181793977Y-118069653D01*
X181775768Y-118566739D01*
X181708555Y-118674400D01*
X181617354Y-118397857D01*
X181532499Y-117898333D01*
X181022553Y-115614710D01*
X180161952Y-113379911D01*
X178998392Y-111281207D01*
X177579568Y-109405864D01*
X176102730Y-107963585D01*
X174274984Y-106678651D01*
X172204741Y-105629551D01*
X170017398Y-104868707D01*
X167838350Y-104448540D01*
X167648702Y-104429391D01*
X166225835Y-104297149D01*
X167155640Y-102154824D01*
X167761777Y-100779723D01*
X168363381Y-99453795D01*
X168934032Y-98231580D01*
X169447312Y-97167620D01*
X169876801Y-96316457D01*
X170196080Y-95732631D01*
X170378731Y-95470684D01*
X170397721Y-95461666D01*
X170543763Y-95665035D01*
G36*
X135497963Y-97387541D02*
X136003184Y-98457866D01*
X136514688Y-99570184D01*
X136959724Y-100564996D01*
X137177958Y-101070833D01*
X137549755Y-101924372D01*
X137924740Y-102737856D01*
X138221741Y-103335193D01*
X138221781Y-103335268D01*
X138482509Y-103846744D01*
X138629609Y-104184612D01*
X138641667Y-104234851D01*
X138452967Y-104306883D01*
X137978464Y-104349855D01*
X137742083Y-104354795D01*
X136656855Y-104453983D01*
X135330859Y-104724299D01*
X133895146Y-105134476D01*
X132742311Y-105547568D01*
X130540497Y-106638217D01*
X128577499Y-108066794D01*
X126871849Y-109809717D01*
X125442082Y-111843407D01*
X124306731Y-114144283D01*
X123484332Y-116688764D01*
X123284184Y-117580833D01*
X123152207Y-118148197D01*
X123051826Y-118414252D01*
X123004812Y-118321666D01*
X123035081Y-117583799D01*
X123160284Y-116568281D01*
X123356396Y-115403735D01*
X123599393Y-114218785D01*
X123865250Y-113142054D01*
X124128390Y-112306282D01*
X125262527Y-109750841D01*
X126636412Y-107515026D01*
X128292603Y-105547588D01*
X130273660Y-103797278D01*
X132398246Y-102347783D01*
X133819823Y-101481935D01*
X133873160Y-99265550D01*
X133921268Y-98221762D01*
X134006936Y-97229559D01*
X134115925Y-96433035D01*
X134184201Y-96117541D01*
X134441906Y-95185915D01*
X135497963Y-97387541D01*
X135497963Y-97387541D01*
G37*
X135497963Y-97387541D02*
X136003184Y-98457866D01*
X136514688Y-99570184D01*
X136959724Y-100564996D01*
X137177958Y-101070833D01*
X137549755Y-101924372D01*
X137924740Y-102737856D01*
X138221741Y-103335193D01*
X138221781Y-103335268D01*
X138482509Y-103846744D01*
X138629609Y-104184612D01*
X138641667Y-104234851D01*
X138452967Y-104306883D01*
X137978464Y-104349855D01*
X137742083Y-104354795D01*
X136656855Y-104453983D01*
X135330859Y-104724299D01*
X133895146Y-105134476D01*
X132742311Y-105547568D01*
X130540497Y-106638217D01*
X128577499Y-108066794D01*
X126871849Y-109809717D01*
X125442082Y-111843407D01*
X124306731Y-114144283D01*
X123484332Y-116688764D01*
X123284184Y-117580833D01*
X123152207Y-118148197D01*
X123051826Y-118414252D01*
X123004812Y-118321666D01*
X123035081Y-117583799D01*
X123160284Y-116568281D01*
X123356396Y-115403735D01*
X123599393Y-114218785D01*
X123865250Y-113142054D01*
X124128390Y-112306282D01*
X125262527Y-109750841D01*
X126636412Y-107515026D01*
X128292603Y-105547588D01*
X130273660Y-103797278D01*
X132398246Y-102347783D01*
X133819823Y-101481935D01*
X133873160Y-99265550D01*
X133921268Y-98221762D01*
X134006936Y-97229559D01*
X134115925Y-96433035D01*
X134184201Y-96117541D01*
X134441906Y-95185915D01*
X135497963Y-97387541D01*
G36*
X147249444Y-115005555D02*
X147220389Y-115131391D01*
X147108333Y-115146666D01*
X146934108Y-115069221D01*
X146967222Y-115005555D01*
X147218421Y-114980223D01*
X147249444Y-115005555D01*
X147249444Y-115005555D01*
G37*
X147249444Y-115005555D02*
X147220389Y-115131391D01*
X147108333Y-115146666D01*
X146934108Y-115069221D01*
X146967222Y-115005555D01*
X147218421Y-114980223D01*
X147249444Y-115005555D01*
G36*
X157903333Y-115040833D02*
X157797500Y-115146666D01*
X157691667Y-115040833D01*
X157797500Y-114935000D01*
X157903333Y-115040833D01*
X157903333Y-115040833D01*
G37*
X157903333Y-115040833D02*
X157797500Y-115146666D01*
X157691667Y-115040833D01*
X157797500Y-114935000D01*
X157903333Y-115040833D01*
G36*
X141705986Y-104915134D02*
X142498684Y-105128178D01*
X143413114Y-105416557D01*
X144359287Y-105751856D01*
X145247216Y-106105661D01*
X145986912Y-106449560D01*
X145999045Y-106455865D01*
X146833764Y-106930060D01*
X147714251Y-107494817D01*
X148557726Y-108089101D01*
X149281413Y-108651878D01*
X149802532Y-109122112D01*
X150036389Y-109432721D01*
X149872428Y-109534981D01*
X149331531Y-109602173D01*
X148459000Y-109629619D01*
X148131389Y-109629348D01*
X146155833Y-109615363D01*
X143454788Y-107268033D01*
X142571475Y-106490781D01*
X141820209Y-105811264D01*
X141251192Y-105276417D01*
X140914629Y-104933181D01*
X140845738Y-104828706D01*
X141125008Y-104805839D01*
X141705986Y-104915134D01*
X141705986Y-104915134D01*
G37*
X141705986Y-104915134D02*
X142498684Y-105128178D01*
X143413114Y-105416557D01*
X144359287Y-105751856D01*
X145247216Y-106105661D01*
X145986912Y-106449560D01*
X145999045Y-106455865D01*
X146833764Y-106930060D01*
X147714251Y-107494817D01*
X148557726Y-108089101D01*
X149281413Y-108651878D01*
X149802532Y-109122112D01*
X150036389Y-109432721D01*
X149872428Y-109534981D01*
X149331531Y-109602173D01*
X148459000Y-109629619D01*
X148131389Y-109629348D01*
X146155833Y-109615363D01*
X143454788Y-107268033D01*
X142571475Y-106490781D01*
X141820209Y-105811264D01*
X141251192Y-105276417D01*
X140914629Y-104933181D01*
X140845738Y-104828706D01*
X141125008Y-104805839D01*
X141705986Y-104915134D01*
G36*
X141478540Y-99887064D02*
X141955214Y-100456177D01*
X142028333Y-100572506D01*
X142940124Y-101754808D01*
X144163701Y-102892620D01*
X145606438Y-103932382D01*
X147175712Y-104820531D01*
X148778898Y-105503507D01*
X150323371Y-105927748D01*
X151491971Y-106045000D01*
X152188333Y-106045000D01*
X152188333Y-109643333D01*
X151352184Y-109643333D01*
X150740714Y-109571468D01*
X150371177Y-109385696D01*
X150346768Y-109351841D01*
X149962887Y-108891173D01*
X149301890Y-108294220D01*
X148456448Y-107630766D01*
X147519237Y-106970596D01*
X146582932Y-106383495D01*
X145944167Y-106036632D01*
X144855288Y-105554407D01*
X143637074Y-105108760D01*
X142411212Y-104736024D01*
X141299387Y-104472534D01*
X140423286Y-104354625D01*
X140301141Y-104351666D01*
X139869675Y-104335376D01*
X139700000Y-104298330D01*
X139737099Y-104081860D01*
X139837495Y-103537500D01*
X139984833Y-102753134D01*
X140123333Y-102023333D01*
X140296147Y-101111730D01*
X140434907Y-100370865D01*
X140523260Y-99888620D01*
X140546667Y-99748335D01*
X140726735Y-99708797D01*
X141022917Y-99700693D01*
X141478540Y-99887064D01*
X141478540Y-99887064D01*
G37*
X141478540Y-99887064D02*
X141955214Y-100456177D01*
X142028333Y-100572506D01*
X142940124Y-101754808D01*
X144163701Y-102892620D01*
X145606438Y-103932382D01*
X147175712Y-104820531D01*
X148778898Y-105503507D01*
X150323371Y-105927748D01*
X151491971Y-106045000D01*
X152188333Y-106045000D01*
X152188333Y-109643333D01*
X151352184Y-109643333D01*
X150740714Y-109571468D01*
X150371177Y-109385696D01*
X150346768Y-109351841D01*
X149962887Y-108891173D01*
X149301890Y-108294220D01*
X148456448Y-107630766D01*
X147519237Y-106970596D01*
X146582932Y-106383495D01*
X145944167Y-106036632D01*
X144855288Y-105554407D01*
X143637074Y-105108760D01*
X142411212Y-104736024D01*
X141299387Y-104472534D01*
X140423286Y-104354625D01*
X140301141Y-104351666D01*
X139869675Y-104335376D01*
X139700000Y-104298330D01*
X139737099Y-104081860D01*
X139837495Y-103537500D01*
X139984833Y-102753134D01*
X140123333Y-102023333D01*
X140296147Y-101111730D01*
X140434907Y-100370865D01*
X140523260Y-99888620D01*
X140546667Y-99748335D01*
X140726735Y-99708797D01*
X141022917Y-99700693D01*
X141478540Y-99887064D01*
G36*
X164145642Y-99778312D02*
X164350690Y-100171250D01*
X164433172Y-100578089D01*
X164558103Y-101232094D01*
X164704912Y-102020771D01*
X164853032Y-102831628D01*
X164981892Y-103552170D01*
X165070924Y-104069905D01*
X165100000Y-104269215D01*
X164914553Y-104327416D01*
X164462987Y-104358423D01*
X164412083Y-104359206D01*
X162890411Y-104536982D01*
X161203632Y-105012528D01*
X159441387Y-105745507D01*
X157693313Y-106695582D01*
X156049051Y-107822418D01*
X155240152Y-108486447D01*
X154462300Y-109125590D01*
X153876246Y-109492512D01*
X153398203Y-109636339D01*
X153267054Y-109643333D01*
X152611667Y-109643333D01*
X152611667Y-106045000D01*
X153236248Y-106045000D01*
X154774782Y-105867273D01*
X156426390Y-105367612D01*
X158102477Y-104596294D01*
X159714450Y-103603594D01*
X161173715Y-102439790D01*
X162391677Y-101155159D01*
X162787268Y-100624823D01*
X163313937Y-100002749D01*
X163782286Y-99716065D01*
X164145642Y-99778312D01*
X164145642Y-99778312D01*
G37*
X164145642Y-99778312D02*
X164350690Y-100171250D01*
X164433172Y-100578089D01*
X164558103Y-101232094D01*
X164704912Y-102020771D01*
X164853032Y-102831628D01*
X164981892Y-103552170D01*
X165070924Y-104069905D01*
X165100000Y-104269215D01*
X164914553Y-104327416D01*
X164462987Y-104358423D01*
X164412083Y-104359206D01*
X162890411Y-104536982D01*
X161203632Y-105012528D01*
X159441387Y-105745507D01*
X157693313Y-106695582D01*
X156049051Y-107822418D01*
X155240152Y-108486447D01*
X154462300Y-109125590D01*
X153876246Y-109492512D01*
X153398203Y-109636339D01*
X153267054Y-109643333D01*
X152611667Y-109643333D01*
X152611667Y-106045000D01*
X153236248Y-106045000D01*
X154774782Y-105867273D01*
X156426390Y-105367612D01*
X158102477Y-104596294D01*
X159714450Y-103603594D01*
X161173715Y-102439790D01*
X162391677Y-101155159D01*
X162787268Y-100624823D01*
X163313937Y-100002749D01*
X163782286Y-99716065D01*
X164145642Y-99778312D01*
G36*
X163756357Y-104813804D02*
X163737240Y-104970640D01*
X163399592Y-105372848D01*
X162758410Y-106005087D01*
X161828689Y-106852014D01*
X161367795Y-107257563D01*
X158644167Y-109634293D01*
X154410833Y-109625283D01*
X155363333Y-108774146D01*
X156933755Y-107501545D01*
X158515656Y-106505619D01*
X159442243Y-106038995D01*
X160334635Y-105665601D01*
X161313271Y-105323767D01*
X162267074Y-105045041D01*
X163084965Y-104860967D01*
X163655866Y-104803092D01*
X163756357Y-104813804D01*
X163756357Y-104813804D01*
G37*
X163756357Y-104813804D02*
X163737240Y-104970640D01*
X163399592Y-105372848D01*
X162758410Y-106005087D01*
X161828689Y-106852014D01*
X161367795Y-107257563D01*
X158644167Y-109634293D01*
X154410833Y-109625283D01*
X155363333Y-108774146D01*
X156933755Y-107501545D01*
X158515656Y-106505619D01*
X159442243Y-106038995D01*
X160334635Y-105665601D01*
X161313271Y-105323767D01*
X162267074Y-105045041D01*
X163084965Y-104860967D01*
X163655866Y-104803092D01*
X163756357Y-104813804D01*
G36*
X140315052Y-104956683D02*
X140476655Y-105431198D01*
X140542884Y-105710731D01*
X140629361Y-106262577D01*
X140550656Y-106428570D01*
X140303506Y-106208760D01*
X139959549Y-105720168D01*
X139674804Y-105239647D01*
X139626068Y-104987992D01*
X139794564Y-104855995D01*
X139809928Y-104849973D01*
X140115750Y-104789882D01*
X140315052Y-104956683D01*
X140315052Y-104956683D01*
G37*
X140315052Y-104956683D02*
X140476655Y-105431198D01*
X140542884Y-105710731D01*
X140629361Y-106262577D01*
X140550656Y-106428570D01*
X140303506Y-106208760D01*
X139959549Y-105720168D01*
X139674804Y-105239647D01*
X139626068Y-104987992D01*
X139794564Y-104855995D01*
X139809928Y-104849973D01*
X140115750Y-104789882D01*
X140315052Y-104956683D01*
G36*
X164985038Y-104636374D02*
X165247313Y-104800306D01*
X165256710Y-105051795D01*
X164993875Y-105470443D01*
X164692090Y-105841328D01*
X164072514Y-106574166D01*
X164280356Y-105627706D01*
X164435628Y-104971992D01*
X164568777Y-104646492D01*
X164740220Y-104566210D01*
X164985038Y-104636374D01*
X164985038Y-104636374D01*
G37*
X164985038Y-104636374D02*
X165247313Y-104800306D01*
X165256710Y-105051795D01*
X164993875Y-105470443D01*
X164692090Y-105841328D01*
X164072514Y-106574166D01*
X164280356Y-105627706D01*
X164435628Y-104971992D01*
X164568777Y-104646492D01*
X164740220Y-104566210D01*
X164985038Y-104636374D01*
G36*
X144297083Y-83537216D02*
X143967855Y-83911905D01*
X143469977Y-84450292D01*
X143259734Y-84672502D01*
X142257508Y-85910959D01*
X141372774Y-87357067D01*
X140655619Y-88899211D01*
X140156128Y-90425779D01*
X139924386Y-91825157D01*
X139914179Y-92127916D01*
X139884890Y-92607010D01*
X139745055Y-92841461D01*
X139410925Y-92857128D01*
X138798754Y-92679866D01*
X138482917Y-92569817D01*
X137942588Y-92328696D01*
X137621807Y-92089226D01*
X137583500Y-92004444D01*
X137686587Y-91613165D01*
X137961999Y-90961122D01*
X138359427Y-90147615D01*
X138828563Y-89271941D01*
X139319095Y-88433399D01*
X139663044Y-87899924D01*
X140176843Y-87226772D01*
X140849997Y-86458725D01*
X141615292Y-85659748D01*
X142405515Y-84893808D01*
X143153451Y-84224869D01*
X143791887Y-83716898D01*
X144253607Y-83433861D01*
X144394981Y-83396666D01*
X144297083Y-83537216D01*
X144297083Y-83537216D01*
G37*
X144297083Y-83537216D02*
X143967855Y-83911905D01*
X143469977Y-84450292D01*
X143259734Y-84672502D01*
X142257508Y-85910959D01*
X141372774Y-87357067D01*
X140655619Y-88899211D01*
X140156128Y-90425779D01*
X139924386Y-91825157D01*
X139914179Y-92127916D01*
X139884890Y-92607010D01*
X139745055Y-92841461D01*
X139410925Y-92857128D01*
X138798754Y-92679866D01*
X138482917Y-92569817D01*
X137942588Y-92328696D01*
X137621807Y-92089226D01*
X137583500Y-92004444D01*
X137686587Y-91613165D01*
X137961999Y-90961122D01*
X138359427Y-90147615D01*
X138828563Y-89271941D01*
X139319095Y-88433399D01*
X139663044Y-87899924D01*
X140176843Y-87226772D01*
X140849997Y-86458725D01*
X141615292Y-85659748D01*
X142405515Y-84893808D01*
X143153451Y-84224869D01*
X143791887Y-83716898D01*
X144253607Y-83433861D01*
X144394981Y-83396666D01*
X144297083Y-83537216D01*
G36*
X160771747Y-83562174D02*
X161294259Y-83922069D01*
X162001110Y-84523766D01*
X162807019Y-85282694D01*
X163626709Y-86114286D01*
X164374900Y-86933970D01*
X164966314Y-87657179D01*
X165126522Y-87880721D01*
X165604073Y-88635390D01*
X166096158Y-89497679D01*
X166552721Y-90368883D01*
X166923712Y-91150297D01*
X167159077Y-91743217D01*
X167216500Y-92002186D01*
X167033673Y-92205779D01*
X166567309Y-92453098D01*
X166226460Y-92584269D01*
X165604616Y-92796958D01*
X165276372Y-92886109D01*
X165130494Y-92851959D01*
X165055748Y-92694746D01*
X165016812Y-92586854D01*
X164923462Y-92139607D01*
X164885501Y-91581438D01*
X164793683Y-90932419D01*
X164551928Y-90031673D01*
X164204687Y-89003538D01*
X163796408Y-87972352D01*
X163371541Y-87062453D01*
X163096847Y-86578035D01*
X162630205Y-85922997D01*
X162005522Y-85147360D01*
X161416711Y-84483159D01*
X160964028Y-83974100D01*
X160719882Y-83641961D01*
X160722908Y-83541909D01*
X160771747Y-83562174D01*
X160771747Y-83562174D01*
G37*
X160771747Y-83562174D02*
X161294259Y-83922069D01*
X162001110Y-84523766D01*
X162807019Y-85282694D01*
X163626709Y-86114286D01*
X164374900Y-86933970D01*
X164966314Y-87657179D01*
X165126522Y-87880721D01*
X165604073Y-88635390D01*
X166096158Y-89497679D01*
X166552721Y-90368883D01*
X166923712Y-91150297D01*
X167159077Y-91743217D01*
X167216500Y-92002186D01*
X167033673Y-92205779D01*
X166567309Y-92453098D01*
X166226460Y-92584269D01*
X165604616Y-92796958D01*
X165276372Y-92886109D01*
X165130494Y-92851959D01*
X165055748Y-92694746D01*
X165016812Y-92586854D01*
X164923462Y-92139607D01*
X164885501Y-91581438D01*
X164793683Y-90932419D01*
X164551928Y-90031673D01*
X164204687Y-89003538D01*
X163796408Y-87972352D01*
X163371541Y-87062453D01*
X163096847Y-86578035D01*
X162630205Y-85922997D01*
X162005522Y-85147360D01*
X161416711Y-84483159D01*
X160964028Y-83974100D01*
X160719882Y-83641961D01*
X160722908Y-83541909D01*
X160771747Y-83562174D01*
G36*
X142663333Y-84169337D02*
X141110308Y-85636906D01*
X139672704Y-87393541D01*
X139464458Y-87688257D01*
X138978478Y-88445313D01*
X138480654Y-89311167D01*
X138021598Y-90186124D01*
X137651921Y-90970484D01*
X137422236Y-91564550D01*
X137371833Y-91810416D01*
X137227639Y-92036596D01*
X136783918Y-91997392D01*
X136260324Y-91800869D01*
X135678149Y-91545833D01*
X136557454Y-90064166D01*
X137137781Y-89218502D01*
X137935258Y-88236662D01*
X138871868Y-87198072D01*
X139869592Y-86182160D01*
X140850414Y-85268351D01*
X141736315Y-84536073D01*
X142449278Y-84064753D01*
X142451667Y-84063504D01*
X143404167Y-83566175D01*
X142663333Y-84169337D01*
X142663333Y-84169337D01*
G37*
X142663333Y-84169337D02*
X141110308Y-85636906D01*
X139672704Y-87393541D01*
X139464458Y-87688257D01*
X138978478Y-88445313D01*
X138480654Y-89311167D01*
X138021598Y-90186124D01*
X137651921Y-90970484D01*
X137422236Y-91564550D01*
X137371833Y-91810416D01*
X137227639Y-92036596D01*
X136783918Y-91997392D01*
X136260324Y-91800869D01*
X135678149Y-91545833D01*
X136557454Y-90064166D01*
X137137781Y-89218502D01*
X137935258Y-88236662D01*
X138871868Y-87198072D01*
X139869592Y-86182160D01*
X140850414Y-85268351D01*
X141736315Y-84536073D01*
X142449278Y-84064753D01*
X142451667Y-84063504D01*
X143404167Y-83566175D01*
X142663333Y-84169337D01*
G36*
X162902227Y-84403582D02*
X164497202Y-85649071D01*
X166038348Y-87160530D01*
X167418390Y-88818357D01*
X168530052Y-90502952D01*
X168769107Y-90944600D01*
X169112733Y-91613368D01*
X168450614Y-91844184D01*
X167846225Y-92030916D01*
X167537789Y-92040412D01*
X167433557Y-91865435D01*
X167428333Y-91763535D01*
X167319754Y-91282843D01*
X167026408Y-90549037D01*
X166596880Y-89662212D01*
X166079758Y-88722463D01*
X165523628Y-87829886D01*
X165506677Y-87804629D01*
X164927102Y-87027904D01*
X164168374Y-86125913D01*
X163365738Y-85256881D01*
X163106757Y-84996922D01*
X161607500Y-83528010D01*
X162902227Y-84403582D01*
X162902227Y-84403582D01*
G37*
X162902227Y-84403582D02*
X164497202Y-85649071D01*
X166038348Y-87160530D01*
X167418390Y-88818357D01*
X168530052Y-90502952D01*
X168769107Y-90944600D01*
X169112733Y-91613368D01*
X168450614Y-91844184D01*
X167846225Y-92030916D01*
X167537789Y-92040412D01*
X167433557Y-91865435D01*
X167428333Y-91763535D01*
X167319754Y-91282843D01*
X167026408Y-90549037D01*
X166596880Y-89662212D01*
X166079758Y-88722463D01*
X165523628Y-87829886D01*
X165506677Y-87804629D01*
X164927102Y-87027904D01*
X164168374Y-86125913D01*
X163365738Y-85256881D01*
X163106757Y-84996922D01*
X161607500Y-83528010D01*
X162902227Y-84403582D01*
D12*
X162179000Y-188202000D03*
X162179000Y-186702000D03*
D13*
X146606260Y-60335160D03*
D14*
X149255480Y-60335160D03*
X149255480Y-67934840D03*
X146654520Y-67934840D03*
D15*
X118414800Y-228960680D03*
X119214900Y-228960680D03*
X120015000Y-228960680D03*
X120815100Y-228960680D03*
X121615200Y-228960680D03*
D16*
X115564920Y-229059740D03*
X115564920Y-234558840D03*
X124465080Y-229059740D03*
X124465080Y-234558840D03*
D17*
X117815360Y-231559100D03*
X122214640Y-231559100D03*
D18*
X80962500Y-211137500D03*
D19*
X200025000Y-207010000D03*
X200025000Y-209550000D03*
X200025000Y-212090000D03*
X207645000Y-212090000D03*
X207645000Y-209550000D03*
X207645000Y-207010000D03*
D20*
X149450000Y-209505000D03*
X149450000Y-210155000D03*
X149450000Y-210805000D03*
X149450000Y-211455000D03*
X149450000Y-212105000D03*
X149450000Y-212755000D03*
X149450000Y-213405000D03*
X155350000Y-213405000D03*
X155350000Y-212755000D03*
X155350000Y-212105000D03*
X155350000Y-211455000D03*
X155350000Y-210805000D03*
X155350000Y-210155000D03*
X155350000Y-209505000D03*
D21*
X149796500Y-171640500D03*
X149796500Y-170370500D03*
X151066500Y-171640500D03*
X151066500Y-170370500D03*
X152336500Y-171640500D03*
X152336500Y-170370500D03*
X153606500Y-171640500D03*
X153606500Y-170370500D03*
X154876500Y-171640500D03*
X154876500Y-170370500D03*
D22*
X144500000Y-187675000D03*
X144500000Y-188175000D03*
X144500000Y-188675000D03*
X144500000Y-189175000D03*
X144500000Y-189675000D03*
X144500000Y-190175000D03*
X144500000Y-190675000D03*
X144500000Y-191175000D03*
X144500000Y-191675000D03*
X144500000Y-192175000D03*
X144500000Y-192675000D03*
X144500000Y-193175000D03*
X144500000Y-193675000D03*
X144500000Y-194175000D03*
X144500000Y-194675000D03*
X144500000Y-195175000D03*
X144500000Y-195675000D03*
X144500000Y-196175000D03*
X144500000Y-196675000D03*
X144500000Y-197175000D03*
X144500000Y-197675000D03*
X144500000Y-198175000D03*
X144500000Y-198675000D03*
X144500000Y-199175000D03*
X144500000Y-199675000D03*
D23*
X146400000Y-201575000D03*
X146900000Y-201575000D03*
X147400000Y-201575000D03*
X147900000Y-201575000D03*
X148400000Y-201575000D03*
X148900000Y-201575000D03*
X149400000Y-201575000D03*
X149900000Y-201575000D03*
X150400000Y-201575000D03*
X150900000Y-201575000D03*
X151400000Y-201575000D03*
X151900000Y-201575000D03*
X152400000Y-201575000D03*
X152900000Y-201575000D03*
X153400000Y-201575000D03*
X153900000Y-201575000D03*
X154400000Y-201575000D03*
X154900000Y-201575000D03*
X155400000Y-201575000D03*
X155900000Y-201575000D03*
X156400000Y-201575000D03*
X156900000Y-201575000D03*
X157400000Y-201575000D03*
X157900000Y-201575000D03*
X158400000Y-201575000D03*
D22*
X160300000Y-199675000D03*
X160300000Y-199175000D03*
X160300000Y-198675000D03*
X160300000Y-198175000D03*
X160300000Y-197675000D03*
X160300000Y-197175000D03*
X160300000Y-196675000D03*
X160300000Y-196175000D03*
X160300000Y-195675000D03*
X160300000Y-195175000D03*
X160300000Y-194675000D03*
X160300000Y-194175000D03*
X160300000Y-193675000D03*
X160300000Y-193175000D03*
X160300000Y-192675000D03*
X160300000Y-192175000D03*
X160300000Y-191675000D03*
X160300000Y-191175000D03*
X160300000Y-190675000D03*
X160300000Y-190175000D03*
X160300000Y-189675000D03*
X160300000Y-189175000D03*
X160300000Y-188675000D03*
X160300000Y-188175000D03*
X160300000Y-187675000D03*
D23*
X158400000Y-185775000D03*
X157900000Y-185775000D03*
X157400000Y-185775000D03*
X156900000Y-185775000D03*
X156400000Y-185775000D03*
X155900000Y-185775000D03*
X155400000Y-185775000D03*
X154900000Y-185775000D03*
X154400000Y-185775000D03*
X153900000Y-185775000D03*
X153400000Y-185775000D03*
X152900000Y-185775000D03*
X152400000Y-185775000D03*
X151900000Y-185775000D03*
X151400000Y-185775000D03*
X150900000Y-185775000D03*
X150400000Y-185775000D03*
X149900000Y-185775000D03*
X149400000Y-185775000D03*
X148900000Y-185775000D03*
X148400000Y-185775000D03*
X147900000Y-185775000D03*
X147400000Y-185775000D03*
X146900000Y-185775000D03*
X146400000Y-185775000D03*
D24*
X151066500Y-169088500D03*
X151066500Y-167588500D03*
D25*
X107581000Y-200660000D03*
X109081000Y-200660000D03*
D13*
X154861260Y-60335160D03*
D14*
X157510480Y-60335160D03*
X157510480Y-67934840D03*
X154909520Y-67934840D03*
D24*
X93980000Y-84975000D03*
X93980000Y-86475000D03*
D26*
X90805000Y-220980000D03*
X90805000Y-218440000D03*
X90805000Y-223520000D03*
D19*
X104775000Y-189230000D03*
X104775000Y-186690000D03*
X104775000Y-184150000D03*
X97155000Y-184150000D03*
X97155000Y-186690000D03*
X97155000Y-189230000D03*
X104775000Y-234950000D03*
X104775000Y-232410000D03*
X104775000Y-229870000D03*
X97155000Y-229870000D03*
X97155000Y-232410000D03*
X97155000Y-234950000D03*
D27*
X147562000Y-211455000D03*
X146062000Y-211455000D03*
X147562000Y-212979000D03*
X146062000Y-212979000D03*
X133338000Y-187071000D03*
X131838000Y-187071000D03*
X133338000Y-201041000D03*
X131838000Y-201041000D03*
D12*
X162179000Y-189750000D03*
X162179000Y-191250000D03*
X162306000Y-198108000D03*
X162306000Y-196608000D03*
D27*
X150356000Y-183896000D03*
X148856000Y-183896000D03*
D12*
X154305000Y-182130000D03*
X154305000Y-183630000D03*
D27*
X142482000Y-191135000D03*
X140982000Y-191135000D03*
D12*
X142113000Y-194703000D03*
X142113000Y-196203000D03*
D27*
X188710000Y-214630000D03*
X187210000Y-214630000D03*
X188710000Y-204470000D03*
X187210000Y-204470000D03*
D28*
X68580000Y-222765000D03*
X68580000Y-217765000D03*
X68580000Y-212765000D03*
X68580000Y-207765000D03*
X68580000Y-177045000D03*
X68580000Y-172045000D03*
X68580000Y-167045000D03*
X68580000Y-162045000D03*
X68580000Y-131325000D03*
X68580000Y-126325000D03*
X68580000Y-121325000D03*
X68580000Y-116325000D03*
X68580000Y-85605000D03*
X68580000Y-80605000D03*
X68580000Y-75605000D03*
X68580000Y-70605000D03*
X236220000Y-70605000D03*
X236220000Y-75605000D03*
X236220000Y-80605000D03*
X236220000Y-85605000D03*
X236220000Y-116325000D03*
X236220000Y-121325000D03*
X236220000Y-126325000D03*
X236220000Y-131325000D03*
X236220000Y-162045000D03*
X236220000Y-167045000D03*
X236220000Y-172045000D03*
X236220000Y-177045000D03*
X236220000Y-207765000D03*
X236220000Y-212765000D03*
X236220000Y-217765000D03*
X236220000Y-222765000D03*
X144900000Y-46355000D03*
X149900000Y-46355000D03*
X154900000Y-46355000D03*
X159900000Y-46355000D03*
D29*
X185280300Y-217805000D03*
X183781700Y-217805000D03*
X187439300Y-201930000D03*
X185940700Y-201930000D03*
D30*
X171038520Y-229235000D03*
X159169100Y-229235000D03*
D31*
X160655000Y-222885000D03*
D32*
X161925000Y-220345000D03*
X163195000Y-222885000D03*
X164465000Y-220345000D03*
X165735000Y-222885000D03*
X167005000Y-220345000D03*
X168275000Y-222885000D03*
X169545000Y-220345000D03*
D30*
X145638520Y-229235000D03*
X133769100Y-229235000D03*
D31*
X135255000Y-222885000D03*
D32*
X136525000Y-220345000D03*
X137795000Y-222885000D03*
X139065000Y-220345000D03*
X140335000Y-222885000D03*
X141605000Y-220345000D03*
X142875000Y-222885000D03*
X144145000Y-220345000D03*
D24*
X151765000Y-205220000D03*
X151765000Y-203720000D03*
X153670000Y-205220000D03*
X153670000Y-203720000D03*
X151193500Y-181725000D03*
X151193500Y-180225000D03*
D25*
X141109000Y-189484000D03*
X142609000Y-189484000D03*
X140740000Y-60325000D03*
X142240000Y-60325000D03*
X190361000Y-217805000D03*
X188861000Y-217805000D03*
D24*
X149225000Y-71870000D03*
X149225000Y-70370000D03*
D25*
X163945000Y-60325000D03*
X162445000Y-60325000D03*
D24*
X157480000Y-71870000D03*
X157480000Y-70370000D03*
D25*
X191885000Y-201930000D03*
X190385000Y-201930000D03*
X107581000Y-234950000D03*
X109081000Y-234950000D03*
X107581000Y-223520000D03*
X109081000Y-223520000D03*
X107581000Y-212217000D03*
X109081000Y-212217000D03*
D24*
X93980000Y-233565000D03*
X93980000Y-235065000D03*
X93980000Y-222135000D03*
X93980000Y-223635000D03*
X93980000Y-210705000D03*
X93980000Y-212205000D03*
X93980000Y-199275000D03*
X93980000Y-200775000D03*
D25*
X107581000Y-189230000D03*
X109081000Y-189230000D03*
X107581000Y-177800000D03*
X109081000Y-177800000D03*
X107581000Y-166370000D03*
X109081000Y-166370000D03*
X107581000Y-154940000D03*
X109081000Y-154940000D03*
D24*
X93980000Y-187845000D03*
X93980000Y-189345000D03*
X93980000Y-176415000D03*
X93980000Y-177915000D03*
X93980000Y-164985000D03*
X93980000Y-166485000D03*
X93980000Y-153555000D03*
X93980000Y-155055000D03*
D25*
X107581000Y-143510000D03*
X109081000Y-143510000D03*
X107581000Y-132080000D03*
X109081000Y-132080000D03*
X107581000Y-120650000D03*
X109081000Y-120650000D03*
X107581000Y-109220000D03*
X109081000Y-109220000D03*
D24*
X93980000Y-142125000D03*
X93980000Y-143625000D03*
X93980000Y-130695000D03*
X93980000Y-132195000D03*
X93980000Y-119265000D03*
X93980000Y-120765000D03*
X93980000Y-107835000D03*
X93980000Y-109335000D03*
D25*
X107581000Y-97790000D03*
X109081000Y-97790000D03*
X107581000Y-86360000D03*
X109081000Y-86360000D03*
X107581000Y-75057000D03*
X109081000Y-75057000D03*
X107581000Y-63500000D03*
X109081000Y-63500000D03*
D24*
X93980000Y-96405000D03*
X93980000Y-97905000D03*
X93980000Y-73545000D03*
X93980000Y-75045000D03*
X93980000Y-62115000D03*
X93980000Y-63615000D03*
D25*
X196965000Y-58420000D03*
X195465000Y-58420000D03*
X196965000Y-69850000D03*
X195465000Y-69850000D03*
X196965000Y-81153000D03*
X195465000Y-81153000D03*
X196965000Y-92646500D03*
X195465000Y-92646500D03*
D24*
X210185000Y-61075000D03*
X210185000Y-59575000D03*
X210185000Y-72505000D03*
X210185000Y-71005000D03*
X210185000Y-83935000D03*
X210185000Y-82435000D03*
X210185000Y-95365000D03*
X210185000Y-93865000D03*
D25*
X196965000Y-104140000D03*
X195465000Y-104140000D03*
X196965000Y-115506500D03*
X195465000Y-115506500D03*
X196965000Y-126936500D03*
X195465000Y-126936500D03*
X196965000Y-138366500D03*
X195465000Y-138366500D03*
D24*
X210185000Y-106795000D03*
X210185000Y-105295000D03*
X210185000Y-118225000D03*
X210185000Y-116725000D03*
X210185000Y-129655000D03*
X210185000Y-128155000D03*
X210185000Y-141085000D03*
X210185000Y-139585000D03*
D25*
X196965000Y-149860000D03*
X195465000Y-149860000D03*
X196965000Y-161290000D03*
X195465000Y-161290000D03*
X196965000Y-172720000D03*
X195465000Y-172720000D03*
X196965000Y-184150000D03*
X195465000Y-184150000D03*
D24*
X210185000Y-152515000D03*
X210185000Y-151015000D03*
X210185000Y-163945000D03*
X210185000Y-162445000D03*
X210185000Y-175375000D03*
X210185000Y-173875000D03*
X210185000Y-186805000D03*
X210185000Y-185305000D03*
D25*
X196965000Y-195580000D03*
X195465000Y-195580000D03*
X196965000Y-207010000D03*
X195465000Y-207010000D03*
X196965000Y-218440000D03*
X195465000Y-218440000D03*
X196965000Y-229870000D03*
X195465000Y-229870000D03*
D24*
X210185000Y-198235000D03*
X210185000Y-196735000D03*
X210185000Y-209665000D03*
X210185000Y-208165000D03*
X210185000Y-221095000D03*
X210185000Y-219595000D03*
X210185000Y-232525000D03*
X210185000Y-231025000D03*
D33*
X157861000Y-208280000D03*
X157861000Y-209550000D03*
X157861000Y-210820000D03*
D34*
X167640000Y-212090000D03*
D35*
X167640000Y-204470000D03*
X170180000Y-212090000D03*
X170180000Y-204470000D03*
X172720000Y-212090000D03*
X172720000Y-204470000D03*
X175260000Y-212090000D03*
X175260000Y-204470000D03*
D36*
X132430000Y-170625000D03*
X138430000Y-170625000D03*
X132430000Y-174625000D03*
X138430000Y-174625000D03*
X132430000Y-178880000D03*
X138430000Y-178880000D03*
X132430000Y-182880000D03*
X138430000Y-182880000D03*
D37*
X191770000Y-211836000D03*
D38*
X185420000Y-209550000D03*
D37*
X191770000Y-207264000D03*
D19*
X104775000Y-223520000D03*
X104775000Y-220980000D03*
X104775000Y-218440000D03*
X97155000Y-218440000D03*
X97155000Y-220980000D03*
X97155000Y-223520000D03*
X104775000Y-212090000D03*
X104775000Y-209550000D03*
X104775000Y-207010000D03*
X97155000Y-207010000D03*
X97155000Y-209550000D03*
X97155000Y-212090000D03*
X104775000Y-200660000D03*
X104775000Y-198120000D03*
X104775000Y-195580000D03*
X97155000Y-195580000D03*
X97155000Y-198120000D03*
X97155000Y-200660000D03*
D26*
X90805000Y-232410000D03*
X90805000Y-229870000D03*
X90805000Y-234950000D03*
X90805000Y-209550000D03*
X90805000Y-207010000D03*
X90805000Y-212090000D03*
X90805000Y-198120000D03*
X90805000Y-195580000D03*
X90805000Y-200660000D03*
D19*
X104775000Y-177800000D03*
X104775000Y-175260000D03*
X104775000Y-172720000D03*
X97155000Y-172720000D03*
X97155000Y-175260000D03*
X97155000Y-177800000D03*
X104775000Y-166370000D03*
X104775000Y-163830000D03*
X104775000Y-161290000D03*
X97155000Y-161290000D03*
X97155000Y-163830000D03*
X97155000Y-166370000D03*
X104775000Y-154940000D03*
X104775000Y-152400000D03*
X104775000Y-149860000D03*
X97155000Y-149860000D03*
X97155000Y-152400000D03*
X97155000Y-154940000D03*
D26*
X90805000Y-186690000D03*
X90805000Y-184150000D03*
X90805000Y-189230000D03*
X90805000Y-175260000D03*
X90805000Y-172720000D03*
X90805000Y-177800000D03*
X90805000Y-163830000D03*
X90805000Y-161290000D03*
X90805000Y-166370000D03*
X90805000Y-152400000D03*
X90805000Y-149860000D03*
X90805000Y-154940000D03*
D19*
X104775000Y-143510000D03*
X104775000Y-140970000D03*
X104775000Y-138430000D03*
X97155000Y-138430000D03*
X97155000Y-140970000D03*
X97155000Y-143510000D03*
X104775000Y-132080000D03*
X104775000Y-129540000D03*
X104775000Y-127000000D03*
X97155000Y-127000000D03*
X97155000Y-129540000D03*
X97155000Y-132080000D03*
X104775000Y-120650000D03*
X104775000Y-118110000D03*
X104775000Y-115570000D03*
X97155000Y-115570000D03*
X97155000Y-118110000D03*
X97155000Y-120650000D03*
X104775000Y-109220000D03*
X104775000Y-106680000D03*
X104775000Y-104140000D03*
X97155000Y-104140000D03*
X97155000Y-106680000D03*
X97155000Y-109220000D03*
D26*
X90805000Y-140970000D03*
X90805000Y-138430000D03*
X90805000Y-143510000D03*
X90805000Y-129540000D03*
X90805000Y-127000000D03*
X90805000Y-132080000D03*
X90805000Y-118110000D03*
X90805000Y-115570000D03*
X90805000Y-120650000D03*
X90805000Y-106680000D03*
X90805000Y-104140000D03*
X90805000Y-109220000D03*
D19*
X104775000Y-97790000D03*
X104775000Y-95250000D03*
X104775000Y-92710000D03*
X97155000Y-92710000D03*
X97155000Y-95250000D03*
X97155000Y-97790000D03*
X104775000Y-86360000D03*
X104775000Y-83820000D03*
X104775000Y-81280000D03*
X97155000Y-81280000D03*
X97155000Y-83820000D03*
X97155000Y-86360000D03*
X104775000Y-74930000D03*
X104775000Y-72390000D03*
X104775000Y-69850000D03*
X97155000Y-69850000D03*
X97155000Y-72390000D03*
X97155000Y-74930000D03*
X104775000Y-63500000D03*
X104775000Y-60960000D03*
X104775000Y-58420000D03*
X97155000Y-58420000D03*
X97155000Y-60960000D03*
X97155000Y-63500000D03*
D26*
X90805000Y-95250000D03*
X90805000Y-92710000D03*
X90805000Y-97790000D03*
X90805000Y-83820000D03*
X90805000Y-81280000D03*
X90805000Y-86360000D03*
X90805000Y-72390000D03*
X90805000Y-69850000D03*
X90805000Y-74930000D03*
X90805000Y-60960000D03*
X90805000Y-58420000D03*
X90805000Y-63500000D03*
D19*
X200025000Y-58420000D03*
X200025000Y-60960000D03*
X200025000Y-63500000D03*
X207645000Y-63500000D03*
X207645000Y-60960000D03*
X207645000Y-58420000D03*
X200025000Y-69850000D03*
X200025000Y-72390000D03*
X200025000Y-74930000D03*
X207645000Y-74930000D03*
X207645000Y-72390000D03*
X207645000Y-69850000D03*
X200025000Y-81280000D03*
X200025000Y-83820000D03*
X200025000Y-86360000D03*
X207645000Y-86360000D03*
X207645000Y-83820000D03*
X207645000Y-81280000D03*
X200025000Y-92710000D03*
X200025000Y-95250000D03*
X200025000Y-97790000D03*
X207645000Y-97790000D03*
X207645000Y-95250000D03*
X207645000Y-92710000D03*
D26*
X213995000Y-60960000D03*
X213995000Y-63500000D03*
X213995000Y-58420000D03*
X213995000Y-72390000D03*
X213995000Y-74930000D03*
X213995000Y-69850000D03*
X213995000Y-83820000D03*
X213995000Y-86360000D03*
X213995000Y-81280000D03*
X213995000Y-95250000D03*
X213995000Y-97790000D03*
X213995000Y-92710000D03*
D19*
X200025000Y-104140000D03*
X200025000Y-106680000D03*
X200025000Y-109220000D03*
X207645000Y-109220000D03*
X207645000Y-106680000D03*
X207645000Y-104140000D03*
X200025000Y-115570000D03*
X200025000Y-118110000D03*
X200025000Y-120650000D03*
X207645000Y-120650000D03*
X207645000Y-118110000D03*
X207645000Y-115570000D03*
X200025000Y-127000000D03*
X200025000Y-129540000D03*
X200025000Y-132080000D03*
X207645000Y-132080000D03*
X207645000Y-129540000D03*
X207645000Y-127000000D03*
X200025000Y-138430000D03*
X200025000Y-140970000D03*
X200025000Y-143510000D03*
X207645000Y-143510000D03*
X207645000Y-140970000D03*
X207645000Y-138430000D03*
D26*
X213995000Y-106680000D03*
X213995000Y-109220000D03*
X213995000Y-104140000D03*
X213995000Y-118110000D03*
X213995000Y-120650000D03*
X213995000Y-115570000D03*
X213995000Y-129540000D03*
X213995000Y-132080000D03*
X213995000Y-127000000D03*
X213995000Y-140970000D03*
X213995000Y-143510000D03*
X213995000Y-138430000D03*
D19*
X200025000Y-149860000D03*
X200025000Y-152400000D03*
X200025000Y-154940000D03*
X207645000Y-154940000D03*
X207645000Y-152400000D03*
X207645000Y-149860000D03*
X200025000Y-161290000D03*
X200025000Y-163830000D03*
X200025000Y-166370000D03*
X207645000Y-166370000D03*
X207645000Y-163830000D03*
X207645000Y-161290000D03*
X200025000Y-172720000D03*
X200025000Y-175260000D03*
X200025000Y-177800000D03*
X207645000Y-177800000D03*
X207645000Y-175260000D03*
X207645000Y-172720000D03*
X200025000Y-184150000D03*
X200025000Y-186690000D03*
X200025000Y-189230000D03*
X207645000Y-189230000D03*
X207645000Y-186690000D03*
X207645000Y-184150000D03*
D26*
X213995000Y-152400000D03*
X213995000Y-154940000D03*
X213995000Y-149860000D03*
X213995000Y-163830000D03*
X213995000Y-166370000D03*
X213995000Y-161290000D03*
X213995000Y-175260000D03*
X213995000Y-177800000D03*
X213995000Y-172720000D03*
X213995000Y-186690000D03*
X213995000Y-189230000D03*
X213995000Y-184150000D03*
D19*
X200025000Y-195580000D03*
X200025000Y-198120000D03*
X200025000Y-200660000D03*
X207645000Y-200660000D03*
X207645000Y-198120000D03*
X207645000Y-195580000D03*
X200025000Y-218440000D03*
X200025000Y-220980000D03*
X200025000Y-223520000D03*
X207645000Y-223520000D03*
X207645000Y-220980000D03*
X207645000Y-218440000D03*
X200025000Y-229870000D03*
X200025000Y-232410000D03*
X200025000Y-234950000D03*
X207645000Y-234950000D03*
X207645000Y-232410000D03*
X207645000Y-229870000D03*
D26*
X213995000Y-198120000D03*
X213995000Y-200660000D03*
X213995000Y-195580000D03*
X213995000Y-209550000D03*
X213995000Y-212090000D03*
X213995000Y-207010000D03*
X213995000Y-220980000D03*
X213995000Y-223520000D03*
X213995000Y-218440000D03*
X213995000Y-232410000D03*
X213995000Y-234950000D03*
X213995000Y-229870000D03*
D39*
X137287000Y-189207140D03*
X137287000Y-198904860D03*
D40*
X181610000Y-223669860D03*
X181610000Y-229669340D03*
X186309000Y-226669600D03*
D18*
X80962500Y-68262500D03*
X223837500Y-68262500D03*
X223837500Y-211137500D03*
D25*
X142978000Y-208788000D03*
X141478000Y-208788000D03*
D29*
X139306300Y-208788000D03*
X137807700Y-208788000D03*
D25*
X135140000Y-214757000D03*
X136640000Y-214757000D03*
X139815000Y-214757000D03*
X138315000Y-214757000D03*
D41*
X153670000Y-216535000D03*
D42*
X153670000Y-226695000D03*
M02*
