M48
INCH,TZ
T1C0.010
T2C0.016
T3C0.030
T4C0.031
T5C0.035
T6C0.039
T7C0.039
T8C0.045
T9C0.050
T10C0.055
T11C0.190
T12C0.035
T13C0.128
%
G90
G05
T1
X5.8975Y-6.7075
X5.8975Y-6.7575
X5.9475Y-6.7075
X5.9475Y-6.7575
X5.9975Y-6.7075
X5.9975Y-6.7575
X6.0475Y-6.7075
X6.0475Y-6.7575
X6.0975Y-6.7075
X6.0975Y-6.7575
T2
X3.975Y-9.325
X4.535Y-4.215
X4.57Y-4.415
X4.625Y-8.9
X4.825Y-9.025
X4.85Y-8.9
X5.13Y-7.45
X5.13Y-7.565
X5.1325Y-2.01
X5.19Y-7.425
X5.19Y-7.855
X5.375Y-8.275
X5.4875Y-7.515
X5.515Y-7.46
X5.545Y-7.695
X5.55Y-7.2
X5.555Y-7.11
X5.56Y-7.05
X5.62Y-6.98
X5.62Y-7.575
X5.6398Y-7.405
X5.65Y-6.935
X5.6694Y-7.9944
X5.68Y-6.91
X5.68Y-8.21
X5.69Y-7.345
X5.7Y-2.675
X5.7Y-8.325
X5.7Y-8.385
X5.72Y-6.87
X5.7371Y-7.16
X5.755Y-7.24
X5.765Y-7.615
X5.77Y-7.47
X5.77Y-7.505
X5.77Y-7.55
X5.775Y-2.3
X5.7804Y-7.705
X5.8Y-8.25
X5.81Y-7.535
X5.825Y-7.19
X5.825Y-8.175
X5.835Y-7.38
X5.85Y-8.025
X5.86Y-7.185
X5.885Y-7.38
X5.8967Y-8.0125
X5.94Y-7.38
X5.945Y-8.335
X5.9475Y-6.5525
X5.97Y-7.415
X5.985Y-8.3
X5.995Y-7.25
X6.025Y-2.675
X6.025Y-7.385
X6.0275Y-7.1575
X6.03Y-8.1275
X6.03Y-8.19
X6.055Y-7.4175
X6.08Y-7.46
X6.1Y-2.275
X6.115Y-7.095
X6.13Y-7.175
X6.1675Y-7.0875
X6.21Y-7.71
X6.215Y-8.35
X6.22Y-7.555
X6.225Y-7.6
X6.23Y-7.7776
X6.23Y-8.1475
X6.2324Y-7.7397
X6.235Y-7.6475
X6.25Y-7.41
X6.2525Y-7.47
X6.255Y-7.51
X6.31Y-7.9
X6.315Y-8.25
X6.3412Y-7.1509
X6.3675Y-7.1775
X6.3825Y-7.1125
X6.3825Y-7.91
X6.3825Y-7.9575
X6.385Y-7.855
X6.3925Y-8.1754
X6.3964Y-7.2061
X6.4075Y-7.1375
X6.415Y-8.145
X6.4375Y-7.165
X6.44Y-7.4951
X6.45Y-7.675
X6.45Y-7.74
X6.4675Y-7.1925
X6.4975Y-7.22
X6.5051Y-7.43
X6.525Y-7.245
X6.5525Y-7.27
X6.58Y-7.295
X6.645Y-7.3425
X6.665Y-7.3675
X6.85Y-2.0025
X6.92Y-3.49
X6.9625Y-7.9075
X6.9625Y-7.9475
X7.12Y-8.58
X7.125Y-8.35
X7.6225Y-8.6
X7.635Y-9.05
X7.645Y-8.1475
X8.025Y-9.325
T3
X6.6Y-8.05
X6.6Y-8.35
X6.7Y-8.05
X6.7Y-8.35
X6.8Y-8.05
X6.8Y-8.35
X6.9Y-8.05
X6.9Y-8.35
T4
X3.825Y-2.3
X3.825Y-2.4
X3.825Y-2.5
X3.825Y-2.75
X3.825Y-2.85
X3.825Y-2.95
X3.825Y-3.2
X3.825Y-3.3
X3.825Y-3.4
X3.825Y-3.65
X3.825Y-3.75
X3.825Y-3.85
X3.825Y-4.1
X3.825Y-4.2
X3.825Y-4.3
X3.825Y-4.55
X3.825Y-4.65
X3.825Y-4.75
X3.825Y-5.
X3.825Y-5.1
X3.825Y-5.2
X3.825Y-5.45
X3.825Y-5.55
X3.825Y-5.65
X3.825Y-5.9
X3.825Y-6.
X3.825Y-6.1
X3.825Y-6.35
X3.825Y-6.45
X3.825Y-6.55
X3.825Y-6.8
X3.825Y-6.9
X3.825Y-7.
X3.825Y-7.25
X3.825Y-7.35
X3.825Y-7.45
X3.825Y-7.7
X3.825Y-7.8
X3.825Y-7.9
X3.825Y-8.15
X3.825Y-8.25
X3.825Y-8.35
X3.825Y-8.6
X3.825Y-8.7
X3.825Y-8.8
X3.825Y-9.05
X3.825Y-9.15
X3.825Y-9.25
X4.125Y-2.3
X4.125Y-2.4
X4.125Y-2.5
X4.125Y-2.75
X4.125Y-2.85
X4.125Y-2.95
X4.125Y-3.2
X4.125Y-3.3
X4.125Y-3.4
X4.125Y-3.65
X4.125Y-3.75
X4.125Y-3.85
X4.125Y-4.1
X4.125Y-4.2
X4.125Y-4.3
X4.125Y-4.55
X4.125Y-4.65
X4.125Y-4.75
X4.125Y-5.
X4.125Y-5.1
X4.125Y-5.2
X4.125Y-5.45
X4.125Y-5.55
X4.125Y-5.65
X4.125Y-5.9
X4.125Y-6.
X4.125Y-6.1
X4.125Y-6.35
X4.125Y-6.45
X4.125Y-6.55
X4.125Y-6.8
X4.125Y-6.9
X4.125Y-7.
X4.125Y-7.25
X4.125Y-7.35
X4.125Y-7.45
X4.125Y-7.7
X4.125Y-7.8
X4.125Y-7.9
X4.125Y-8.15
X4.125Y-8.25
X4.125Y-8.35
X4.125Y-8.6
X4.125Y-8.7
X4.125Y-8.8
X4.125Y-9.05
X4.125Y-9.15
X4.125Y-9.25
X7.875Y-2.3
X7.875Y-2.4
X7.875Y-2.5
X7.875Y-2.75
X7.875Y-2.85
X7.875Y-2.95
X7.875Y-3.2
X7.875Y-3.3
X7.875Y-3.4
X7.875Y-3.65
X7.875Y-3.75
X7.875Y-3.85
X7.875Y-4.1
X7.875Y-4.2
X7.875Y-4.3
X7.875Y-4.55
X7.875Y-4.65
X7.875Y-4.75
X7.875Y-5.
X7.875Y-5.1
X7.875Y-5.2
X7.875Y-5.45
X7.875Y-5.55
X7.875Y-5.65
X7.875Y-5.9
X7.875Y-6.
X7.875Y-6.1
X7.875Y-6.35
X7.875Y-6.45
X7.875Y-6.55
X7.875Y-6.8
X7.875Y-6.9
X7.875Y-7.
X7.875Y-7.25
X7.875Y-7.35
X7.875Y-7.45
X7.875Y-7.7
X7.875Y-7.8
X7.875Y-7.9
X7.875Y-8.15
X7.875Y-8.25
X7.875Y-8.35
X7.875Y-8.6
X7.875Y-8.7
X7.875Y-8.8
X7.875Y-9.05
X7.875Y-9.15
X7.875Y-9.25
X8.175Y-2.3
X8.175Y-2.4
X8.175Y-2.5
X8.175Y-2.75
X8.175Y-2.85
X8.175Y-2.95
X8.175Y-3.2
X8.175Y-3.3
X8.175Y-3.4
X8.175Y-3.65
X8.175Y-3.75
X8.175Y-3.85
X8.175Y-4.1
X8.175Y-4.2
X8.175Y-4.3
X8.175Y-4.55
X8.175Y-4.65
X8.175Y-4.75
X8.175Y-5.
X8.175Y-5.1
X8.175Y-5.2
X8.175Y-5.45
X8.175Y-5.55
X8.175Y-5.65
X8.175Y-5.9
X8.175Y-6.
X8.175Y-6.1
X8.175Y-6.35
X8.175Y-6.45
X8.175Y-6.55
X8.175Y-6.8
X8.175Y-6.9
X8.175Y-7.
X8.175Y-7.25
X8.175Y-7.35
X8.175Y-7.45
X8.175Y-7.7
X8.175Y-7.8
X8.175Y-7.9
X8.175Y-8.15
X8.175Y-8.25
X8.175Y-8.35
X8.175Y-8.6
X8.175Y-8.7
X8.175Y-8.8
X8.175Y-9.05
X8.175Y-9.15
X8.175Y-9.25
T5
X5.325Y-8.775
X5.375Y-8.675
X5.425Y-8.775
X5.475Y-8.675
X5.525Y-8.775
X5.575Y-8.675
X5.625Y-8.775
X5.675Y-8.675
X6.325Y-8.775
X6.375Y-8.675
X6.425Y-8.775
X6.475Y-8.675
X6.525Y-8.775
X6.575Y-8.675
X6.625Y-8.775
X6.675Y-8.675
T6
X5.2138Y-6.7175
X5.2138Y-6.875
X5.2138Y-7.0425
X5.2138Y-7.2
X5.45Y-6.7175
X5.45Y-6.875
X5.45Y-7.0425
X5.45Y-7.2
T7
X6.05Y-8.925
T8
X3.575Y-2.3
X3.575Y-2.4
X3.575Y-2.5
X3.575Y-2.75
X3.575Y-2.85
X3.575Y-2.95
X3.575Y-3.2
X3.575Y-3.3
X3.575Y-3.4
X3.575Y-3.65
X3.575Y-3.75
X3.575Y-3.85
X3.575Y-4.1
X3.575Y-4.2
X3.575Y-4.3
X3.575Y-4.55
X3.575Y-4.65
X3.575Y-4.75
X3.575Y-5.
X3.575Y-5.1
X3.575Y-5.2
X3.575Y-5.45
X3.575Y-5.55
X3.575Y-5.65
X3.575Y-5.9
X3.575Y-6.
X3.575Y-6.1
X3.575Y-6.35
X3.575Y-6.45
X3.575Y-6.55
X3.575Y-6.8
X3.575Y-6.9
X3.575Y-7.
X3.575Y-7.25
X3.575Y-7.35
X3.575Y-7.45
X3.575Y-7.7
X3.575Y-7.8
X3.575Y-7.9
X3.575Y-8.15
X3.575Y-8.25
X3.575Y-8.35
X3.575Y-8.6
X3.575Y-8.7
X3.575Y-8.8
X3.575Y-9.05
X3.575Y-9.15
X3.575Y-9.25
X8.425Y-2.3
X8.425Y-2.4
X8.425Y-2.5
X8.425Y-2.75
X8.425Y-2.85
X8.425Y-2.95
X8.425Y-3.2
X8.425Y-3.3
X8.425Y-3.4
X8.425Y-3.65
X8.425Y-3.75
X8.425Y-3.85
X8.425Y-4.1
X8.425Y-4.2
X8.425Y-4.3
X8.425Y-4.55
X8.425Y-4.65
X8.425Y-4.75
X8.425Y-5.
X8.425Y-5.1
X8.425Y-5.2
X8.425Y-5.45
X8.425Y-5.55
X8.425Y-5.65
X8.425Y-5.9
X8.425Y-6.
X8.425Y-6.1
X8.425Y-6.35
X8.425Y-6.45
X8.425Y-6.55
X8.425Y-6.8
X8.425Y-6.9
X8.425Y-7.
X8.425Y-7.25
X8.425Y-7.35
X8.425Y-7.45
X8.425Y-7.7
X8.425Y-7.8
X8.425Y-7.9
X8.425Y-8.15
X8.425Y-8.25
X8.425Y-8.35
X8.425Y-8.6
X8.425Y-8.7
X8.425Y-8.8
X8.425Y-9.05
X8.425Y-9.15
X8.425Y-9.25
T9
X6.05Y-8.525
T10
X2.7Y-2.7797
X2.7Y-2.9766
X2.7Y-3.1734
X2.7Y-3.3703
X2.7Y-4.5797
X2.7Y-4.7766
X2.7Y-4.9734
X2.7Y-5.1703
X2.7Y-6.3797
X2.7Y-6.5766
X2.7Y-6.7734
X2.7Y-6.9703
X2.7Y-8.1797
X2.7Y-8.3766
X2.7Y-8.5734
X2.7Y-8.7703
X5.7047Y-1.825
X5.9016Y-1.825
X6.0984Y-1.825
X6.2953Y-1.825
X9.3Y-2.7797
X9.3Y-2.9766
X9.3Y-3.1734
X9.3Y-3.3703
X9.3Y-4.5797
X9.3Y-4.7766
X9.3Y-4.9734
X9.3Y-5.1703
X9.3Y-6.3797
X9.3Y-6.5766
X9.3Y-6.7734
X9.3Y-6.9703
X9.3Y-8.1797
X9.3Y-8.3766
X9.3Y-8.5734
X9.3Y-8.7703
T11
X3.1875Y-2.6875
X3.1875Y-8.3125
X8.8125Y-2.6875
X8.8125Y-8.3125
T12
X4.6384Y-9.1165
X4.8116Y-9.1165
T13
X5.2665Y-9.025
X5.7338Y-9.025
X6.2665Y-9.025
X6.7338Y-9.025
T7
X7.1106Y-8.8059G85X7.1894Y-8.8059
G05
X7.1106Y-9.0421G85X7.1894Y-9.0421
G05
X7.335Y-8.9634G85X7.335Y-8.8847
G05
T0
M30
