G04 #@! TF.FileFunction,Legend,Bot*
%FSLAX46Y46*%
G04 Gerber Fmt 4.6, Leading zero omitted, Abs format (unit mm)*
G04 Created by KiCad (PCBNEW 4.0.1-stable) date 02/05/2016 19:52:28*
%MOMM*%
G01*
G04 APERTURE LIST*
%ADD10C,0.100000*%
%ADD11C,0.300000*%
G04 APERTURE END LIST*
D10*
D11*
X97459714Y-48430571D02*
X97459714Y-46930571D01*
X97459714Y-48359143D02*
X97602571Y-48430571D01*
X97888285Y-48430571D01*
X98031143Y-48359143D01*
X98102571Y-48287714D01*
X98174000Y-48144857D01*
X98174000Y-47716286D01*
X98102571Y-47573429D01*
X98031143Y-47502000D01*
X97888285Y-47430571D01*
X97602571Y-47430571D01*
X97459714Y-47502000D01*
X96531142Y-48430571D02*
X96674000Y-48359143D01*
X96745428Y-48216286D01*
X96745428Y-46930571D01*
X95316857Y-48430571D02*
X95316857Y-47644857D01*
X95388286Y-47502000D01*
X95531143Y-47430571D01*
X95816857Y-47430571D01*
X95959714Y-47502000D01*
X95316857Y-48359143D02*
X95459714Y-48430571D01*
X95816857Y-48430571D01*
X95959714Y-48359143D01*
X96031143Y-48216286D01*
X96031143Y-48073429D01*
X95959714Y-47930571D01*
X95816857Y-47859143D01*
X95459714Y-47859143D01*
X95316857Y-47787714D01*
X94745428Y-47430571D02*
X94459714Y-48430571D01*
X94174000Y-47716286D01*
X93888285Y-48430571D01*
X93602571Y-47430571D01*
X92102571Y-47716286D02*
X92173999Y-47644857D01*
X92316856Y-47573429D01*
X92459714Y-47573429D01*
X92602571Y-47644857D01*
X92673999Y-47716286D01*
X92745428Y-47859143D01*
X92745428Y-48002000D01*
X92673999Y-48144857D01*
X92602571Y-48216286D01*
X92459714Y-48287714D01*
X92316856Y-48287714D01*
X92173999Y-48216286D01*
X92102571Y-48144857D01*
X92102571Y-47573429D02*
X92102571Y-48144857D01*
X92031142Y-48216286D01*
X91959714Y-48216286D01*
X91816856Y-48144857D01*
X91745428Y-48002000D01*
X91745428Y-47644857D01*
X91888285Y-47430571D01*
X92102571Y-47287714D01*
X92388285Y-47216286D01*
X92673999Y-47287714D01*
X92888285Y-47430571D01*
X93031142Y-47644857D01*
X93102571Y-47930571D01*
X93031142Y-48216286D01*
X92888285Y-48430571D01*
X92673999Y-48573429D01*
X92388285Y-48644857D01*
X92102571Y-48573429D01*
X91888285Y-48430571D01*
X90459714Y-48430571D02*
X90459714Y-46930571D01*
X90459714Y-48359143D02*
X90602571Y-48430571D01*
X90888285Y-48430571D01*
X91031143Y-48359143D01*
X91102571Y-48287714D01*
X91174000Y-48144857D01*
X91174000Y-47716286D01*
X91102571Y-47573429D01*
X91031143Y-47502000D01*
X90888285Y-47430571D01*
X90602571Y-47430571D01*
X90459714Y-47502000D01*
X89531142Y-48430571D02*
X89674000Y-48359143D01*
X89745428Y-48216286D01*
X89745428Y-46930571D01*
X88316857Y-48430571D02*
X88316857Y-47644857D01*
X88388286Y-47502000D01*
X88531143Y-47430571D01*
X88816857Y-47430571D01*
X88959714Y-47502000D01*
X88316857Y-48359143D02*
X88459714Y-48430571D01*
X88816857Y-48430571D01*
X88959714Y-48359143D01*
X89031143Y-48216286D01*
X89031143Y-48073429D01*
X88959714Y-47930571D01*
X88816857Y-47859143D01*
X88459714Y-47859143D01*
X88316857Y-47787714D01*
X87745428Y-47430571D02*
X87459714Y-48430571D01*
X87174000Y-47716286D01*
X86888285Y-48430571D01*
X86602571Y-47430571D01*
X86031142Y-48287714D02*
X85959714Y-48359143D01*
X86031142Y-48430571D01*
X86102571Y-48359143D01*
X86031142Y-48287714D01*
X86031142Y-48430571D01*
X85316856Y-48430571D02*
X85316856Y-47430571D01*
X85316856Y-47573429D02*
X85245428Y-47502000D01*
X85102570Y-47430571D01*
X84888285Y-47430571D01*
X84745428Y-47502000D01*
X84673999Y-47644857D01*
X84673999Y-48430571D01*
X84673999Y-47644857D02*
X84602570Y-47502000D01*
X84459713Y-47430571D01*
X84245428Y-47430571D01*
X84102570Y-47502000D01*
X84031142Y-47644857D01*
X84031142Y-48430571D01*
X82745428Y-48359143D02*
X82888285Y-48430571D01*
X83173999Y-48430571D01*
X83316856Y-48359143D01*
X83388285Y-48216286D01*
X83388285Y-47644857D01*
X83316856Y-47502000D01*
X83173999Y-47430571D01*
X82888285Y-47430571D01*
X82745428Y-47502000D01*
X82673999Y-47644857D01*
X82673999Y-47787714D01*
X83388285Y-47930571D01*
X195635714Y-69235714D02*
X195707143Y-69307143D01*
X195921429Y-69378571D01*
X196064286Y-69378571D01*
X196278571Y-69307143D01*
X196421429Y-69164286D01*
X196492857Y-69021429D01*
X196564286Y-68735714D01*
X196564286Y-68521429D01*
X196492857Y-68235714D01*
X196421429Y-68092857D01*
X196278571Y-67950000D01*
X196064286Y-67878571D01*
X195921429Y-67878571D01*
X195707143Y-67950000D01*
X195635714Y-68021429D01*
X194992857Y-69378571D02*
X194992857Y-67878571D01*
X194350000Y-69378571D02*
X194350000Y-68592857D01*
X194421429Y-68450000D01*
X194564286Y-68378571D01*
X194778571Y-68378571D01*
X194921429Y-68450000D01*
X194992857Y-68521429D01*
X192992857Y-69378571D02*
X192992857Y-68592857D01*
X193064286Y-68450000D01*
X193207143Y-68378571D01*
X193492857Y-68378571D01*
X193635714Y-68450000D01*
X192992857Y-69307143D02*
X193135714Y-69378571D01*
X193492857Y-69378571D01*
X193635714Y-69307143D01*
X193707143Y-69164286D01*
X193707143Y-69021429D01*
X193635714Y-68878571D01*
X193492857Y-68807143D01*
X193135714Y-68807143D01*
X192992857Y-68735714D01*
X192278571Y-68378571D02*
X192278571Y-69378571D01*
X192278571Y-68521429D02*
X192207143Y-68450000D01*
X192064285Y-68378571D01*
X191850000Y-68378571D01*
X191707143Y-68450000D01*
X191635714Y-68592857D01*
X191635714Y-69378571D01*
X190921428Y-68378571D02*
X190921428Y-69378571D01*
X190921428Y-68521429D02*
X190850000Y-68450000D01*
X190707142Y-68378571D01*
X190492857Y-68378571D01*
X190350000Y-68450000D01*
X190278571Y-68592857D01*
X190278571Y-69378571D01*
X188992857Y-69307143D02*
X189135714Y-69378571D01*
X189421428Y-69378571D01*
X189564285Y-69307143D01*
X189635714Y-69164286D01*
X189635714Y-68592857D01*
X189564285Y-68450000D01*
X189421428Y-68378571D01*
X189135714Y-68378571D01*
X188992857Y-68450000D01*
X188921428Y-68592857D01*
X188921428Y-68735714D01*
X189635714Y-68878571D01*
X188064285Y-69378571D02*
X188207143Y-69307143D01*
X188278571Y-69164286D01*
X188278571Y-67878571D01*
X185564286Y-69378571D02*
X186421429Y-69378571D01*
X185992857Y-69378571D02*
X185992857Y-67878571D01*
X186135714Y-68092857D01*
X186278572Y-68235714D01*
X186421429Y-68307143D01*
X183778572Y-68807143D02*
X182635715Y-68807143D01*
X180778572Y-69378571D02*
X180778572Y-67878571D01*
X180207144Y-67878571D01*
X180064286Y-67950000D01*
X179992858Y-68021429D01*
X179921429Y-68164286D01*
X179921429Y-68378571D01*
X179992858Y-68521429D01*
X180064286Y-68592857D01*
X180207144Y-68664286D01*
X180778572Y-68664286D01*
X179278572Y-69378571D02*
X179278572Y-67878571D01*
X178278572Y-67878571D02*
X177992858Y-67878571D01*
X177850000Y-67950000D01*
X177707143Y-68092857D01*
X177635715Y-68378571D01*
X177635715Y-68878571D01*
X177707143Y-69164286D01*
X177850000Y-69307143D01*
X177992858Y-69378571D01*
X178278572Y-69378571D01*
X178421429Y-69307143D01*
X178564286Y-69164286D01*
X178635715Y-68878571D01*
X178635715Y-68378571D01*
X178564286Y-68092857D01*
X178421429Y-67950000D01*
X178278572Y-67878571D01*
X176207143Y-69378571D02*
X177064286Y-69378571D01*
X176635714Y-69378571D02*
X176635714Y-67878571D01*
X176778571Y-68092857D01*
X176921429Y-68235714D01*
X177064286Y-68307143D01*
X175921429Y-69521429D02*
X174778572Y-69521429D01*
X174492858Y-68021429D02*
X174421429Y-67950000D01*
X174278572Y-67878571D01*
X173921429Y-67878571D01*
X173778572Y-67950000D01*
X173707143Y-68021429D01*
X173635715Y-68164286D01*
X173635715Y-68307143D01*
X173707143Y-68521429D01*
X174564286Y-69378571D01*
X173635715Y-69378571D01*
X173135715Y-67878571D02*
X172207144Y-67878571D01*
X172707144Y-68450000D01*
X172492858Y-68450000D01*
X172350001Y-68521429D01*
X172278572Y-68592857D01*
X172207144Y-68735714D01*
X172207144Y-69092857D01*
X172278572Y-69235714D01*
X172350001Y-69307143D01*
X172492858Y-69378571D01*
X172921430Y-69378571D01*
X173064287Y-69307143D01*
X173135715Y-69235714D01*
X195635714Y-71635714D02*
X195707143Y-71707143D01*
X195921429Y-71778571D01*
X196064286Y-71778571D01*
X196278571Y-71707143D01*
X196421429Y-71564286D01*
X196492857Y-71421429D01*
X196564286Y-71135714D01*
X196564286Y-70921429D01*
X196492857Y-70635714D01*
X196421429Y-70492857D01*
X196278571Y-70350000D01*
X196064286Y-70278571D01*
X195921429Y-70278571D01*
X195707143Y-70350000D01*
X195635714Y-70421429D01*
X194992857Y-71778571D02*
X194992857Y-70278571D01*
X194350000Y-71778571D02*
X194350000Y-70992857D01*
X194421429Y-70850000D01*
X194564286Y-70778571D01*
X194778571Y-70778571D01*
X194921429Y-70850000D01*
X194992857Y-70921429D01*
X192992857Y-71778571D02*
X192992857Y-70992857D01*
X193064286Y-70850000D01*
X193207143Y-70778571D01*
X193492857Y-70778571D01*
X193635714Y-70850000D01*
X192992857Y-71707143D02*
X193135714Y-71778571D01*
X193492857Y-71778571D01*
X193635714Y-71707143D01*
X193707143Y-71564286D01*
X193707143Y-71421429D01*
X193635714Y-71278571D01*
X193492857Y-71207143D01*
X193135714Y-71207143D01*
X192992857Y-71135714D01*
X192278571Y-70778571D02*
X192278571Y-71778571D01*
X192278571Y-70921429D02*
X192207143Y-70850000D01*
X192064285Y-70778571D01*
X191850000Y-70778571D01*
X191707143Y-70850000D01*
X191635714Y-70992857D01*
X191635714Y-71778571D01*
X190921428Y-70778571D02*
X190921428Y-71778571D01*
X190921428Y-70921429D02*
X190850000Y-70850000D01*
X190707142Y-70778571D01*
X190492857Y-70778571D01*
X190350000Y-70850000D01*
X190278571Y-70992857D01*
X190278571Y-71778571D01*
X188992857Y-71707143D02*
X189135714Y-71778571D01*
X189421428Y-71778571D01*
X189564285Y-71707143D01*
X189635714Y-71564286D01*
X189635714Y-70992857D01*
X189564285Y-70850000D01*
X189421428Y-70778571D01*
X189135714Y-70778571D01*
X188992857Y-70850000D01*
X188921428Y-70992857D01*
X188921428Y-71135714D01*
X189635714Y-71278571D01*
X188064285Y-71778571D02*
X188207143Y-71707143D01*
X188278571Y-71564286D01*
X188278571Y-70278571D01*
X186421429Y-70421429D02*
X186350000Y-70350000D01*
X186207143Y-70278571D01*
X185850000Y-70278571D01*
X185707143Y-70350000D01*
X185635714Y-70421429D01*
X185564286Y-70564286D01*
X185564286Y-70707143D01*
X185635714Y-70921429D01*
X186492857Y-71778571D01*
X185564286Y-71778571D01*
X183778572Y-71207143D02*
X182635715Y-71207143D01*
X180778572Y-71778571D02*
X180778572Y-70278571D01*
X180207144Y-70278571D01*
X180064286Y-70350000D01*
X179992858Y-70421429D01*
X179921429Y-70564286D01*
X179921429Y-70778571D01*
X179992858Y-70921429D01*
X180064286Y-70992857D01*
X180207144Y-71064286D01*
X180778572Y-71064286D01*
X179278572Y-71778571D02*
X179278572Y-70278571D01*
X178278572Y-70278571D02*
X177992858Y-70278571D01*
X177850000Y-70350000D01*
X177707143Y-70492857D01*
X177635715Y-70778571D01*
X177635715Y-71278571D01*
X177707143Y-71564286D01*
X177850000Y-71707143D01*
X177992858Y-71778571D01*
X178278572Y-71778571D01*
X178421429Y-71707143D01*
X178564286Y-71564286D01*
X178635715Y-71278571D01*
X178635715Y-70778571D01*
X178564286Y-70492857D01*
X178421429Y-70350000D01*
X178278572Y-70278571D01*
X176207143Y-71778571D02*
X177064286Y-71778571D01*
X176635714Y-71778571D02*
X176635714Y-70278571D01*
X176778571Y-70492857D01*
X176921429Y-70635714D01*
X177064286Y-70707143D01*
X175921429Y-71921429D02*
X174778572Y-71921429D01*
X173635715Y-71778571D02*
X174492858Y-71778571D01*
X174064286Y-71778571D02*
X174064286Y-70278571D01*
X174207143Y-70492857D01*
X174350001Y-70635714D01*
X174492858Y-70707143D01*
X173135715Y-70278571D02*
X172135715Y-70278571D01*
X172778572Y-71778571D01*
X195635714Y-74035714D02*
X195707143Y-74107143D01*
X195921429Y-74178571D01*
X196064286Y-74178571D01*
X196278571Y-74107143D01*
X196421429Y-73964286D01*
X196492857Y-73821429D01*
X196564286Y-73535714D01*
X196564286Y-73321429D01*
X196492857Y-73035714D01*
X196421429Y-72892857D01*
X196278571Y-72750000D01*
X196064286Y-72678571D01*
X195921429Y-72678571D01*
X195707143Y-72750000D01*
X195635714Y-72821429D01*
X194992857Y-74178571D02*
X194992857Y-72678571D01*
X194350000Y-74178571D02*
X194350000Y-73392857D01*
X194421429Y-73250000D01*
X194564286Y-73178571D01*
X194778571Y-73178571D01*
X194921429Y-73250000D01*
X194992857Y-73321429D01*
X192992857Y-74178571D02*
X192992857Y-73392857D01*
X193064286Y-73250000D01*
X193207143Y-73178571D01*
X193492857Y-73178571D01*
X193635714Y-73250000D01*
X192992857Y-74107143D02*
X193135714Y-74178571D01*
X193492857Y-74178571D01*
X193635714Y-74107143D01*
X193707143Y-73964286D01*
X193707143Y-73821429D01*
X193635714Y-73678571D01*
X193492857Y-73607143D01*
X193135714Y-73607143D01*
X192992857Y-73535714D01*
X192278571Y-73178571D02*
X192278571Y-74178571D01*
X192278571Y-73321429D02*
X192207143Y-73250000D01*
X192064285Y-73178571D01*
X191850000Y-73178571D01*
X191707143Y-73250000D01*
X191635714Y-73392857D01*
X191635714Y-74178571D01*
X190921428Y-73178571D02*
X190921428Y-74178571D01*
X190921428Y-73321429D02*
X190850000Y-73250000D01*
X190707142Y-73178571D01*
X190492857Y-73178571D01*
X190350000Y-73250000D01*
X190278571Y-73392857D01*
X190278571Y-74178571D01*
X188992857Y-74107143D02*
X189135714Y-74178571D01*
X189421428Y-74178571D01*
X189564285Y-74107143D01*
X189635714Y-73964286D01*
X189635714Y-73392857D01*
X189564285Y-73250000D01*
X189421428Y-73178571D01*
X189135714Y-73178571D01*
X188992857Y-73250000D01*
X188921428Y-73392857D01*
X188921428Y-73535714D01*
X189635714Y-73678571D01*
X188064285Y-74178571D02*
X188207143Y-74107143D01*
X188278571Y-73964286D01*
X188278571Y-72678571D01*
X186492857Y-72678571D02*
X185564286Y-72678571D01*
X186064286Y-73250000D01*
X185850000Y-73250000D01*
X185707143Y-73321429D01*
X185635714Y-73392857D01*
X185564286Y-73535714D01*
X185564286Y-73892857D01*
X185635714Y-74035714D01*
X185707143Y-74107143D01*
X185850000Y-74178571D01*
X186278572Y-74178571D01*
X186421429Y-74107143D01*
X186492857Y-74035714D01*
X183778572Y-73607143D02*
X182635715Y-73607143D01*
X180778572Y-74178571D02*
X180778572Y-72678571D01*
X180207144Y-72678571D01*
X180064286Y-72750000D01*
X179992858Y-72821429D01*
X179921429Y-72964286D01*
X179921429Y-73178571D01*
X179992858Y-73321429D01*
X180064286Y-73392857D01*
X180207144Y-73464286D01*
X180778572Y-73464286D01*
X179278572Y-74178571D02*
X179278572Y-72678571D01*
X178278572Y-72678571D02*
X177992858Y-72678571D01*
X177850000Y-72750000D01*
X177707143Y-72892857D01*
X177635715Y-73178571D01*
X177635715Y-73678571D01*
X177707143Y-73964286D01*
X177850000Y-74107143D01*
X177992858Y-74178571D01*
X178278572Y-74178571D01*
X178421429Y-74107143D01*
X178564286Y-73964286D01*
X178635715Y-73678571D01*
X178635715Y-73178571D01*
X178564286Y-72892857D01*
X178421429Y-72750000D01*
X178278572Y-72678571D01*
X176207143Y-74178571D02*
X177064286Y-74178571D01*
X176635714Y-74178571D02*
X176635714Y-72678571D01*
X176778571Y-72892857D01*
X176921429Y-73035714D01*
X177064286Y-73107143D01*
X175921429Y-74321429D02*
X174778572Y-74321429D01*
X174492858Y-72821429D02*
X174421429Y-72750000D01*
X174278572Y-72678571D01*
X173921429Y-72678571D01*
X173778572Y-72750000D01*
X173707143Y-72821429D01*
X173635715Y-72964286D01*
X173635715Y-73107143D01*
X173707143Y-73321429D01*
X174564286Y-74178571D01*
X173635715Y-74178571D01*
X172707144Y-72678571D02*
X172564287Y-72678571D01*
X172421430Y-72750000D01*
X172350001Y-72821429D01*
X172278572Y-72964286D01*
X172207144Y-73250000D01*
X172207144Y-73607143D01*
X172278572Y-73892857D01*
X172350001Y-74035714D01*
X172421430Y-74107143D01*
X172564287Y-74178571D01*
X172707144Y-74178571D01*
X172850001Y-74107143D01*
X172921430Y-74035714D01*
X172992858Y-73892857D01*
X173064287Y-73607143D01*
X173064287Y-73250000D01*
X172992858Y-72964286D01*
X172921430Y-72821429D01*
X172850001Y-72750000D01*
X172707144Y-72678571D01*
X195635714Y-76435714D02*
X195707143Y-76507143D01*
X195921429Y-76578571D01*
X196064286Y-76578571D01*
X196278571Y-76507143D01*
X196421429Y-76364286D01*
X196492857Y-76221429D01*
X196564286Y-75935714D01*
X196564286Y-75721429D01*
X196492857Y-75435714D01*
X196421429Y-75292857D01*
X196278571Y-75150000D01*
X196064286Y-75078571D01*
X195921429Y-75078571D01*
X195707143Y-75150000D01*
X195635714Y-75221429D01*
X194992857Y-76578571D02*
X194992857Y-75078571D01*
X194350000Y-76578571D02*
X194350000Y-75792857D01*
X194421429Y-75650000D01*
X194564286Y-75578571D01*
X194778571Y-75578571D01*
X194921429Y-75650000D01*
X194992857Y-75721429D01*
X192992857Y-76578571D02*
X192992857Y-75792857D01*
X193064286Y-75650000D01*
X193207143Y-75578571D01*
X193492857Y-75578571D01*
X193635714Y-75650000D01*
X192992857Y-76507143D02*
X193135714Y-76578571D01*
X193492857Y-76578571D01*
X193635714Y-76507143D01*
X193707143Y-76364286D01*
X193707143Y-76221429D01*
X193635714Y-76078571D01*
X193492857Y-76007143D01*
X193135714Y-76007143D01*
X192992857Y-75935714D01*
X192278571Y-75578571D02*
X192278571Y-76578571D01*
X192278571Y-75721429D02*
X192207143Y-75650000D01*
X192064285Y-75578571D01*
X191850000Y-75578571D01*
X191707143Y-75650000D01*
X191635714Y-75792857D01*
X191635714Y-76578571D01*
X190921428Y-75578571D02*
X190921428Y-76578571D01*
X190921428Y-75721429D02*
X190850000Y-75650000D01*
X190707142Y-75578571D01*
X190492857Y-75578571D01*
X190350000Y-75650000D01*
X190278571Y-75792857D01*
X190278571Y-76578571D01*
X188992857Y-76507143D02*
X189135714Y-76578571D01*
X189421428Y-76578571D01*
X189564285Y-76507143D01*
X189635714Y-76364286D01*
X189635714Y-75792857D01*
X189564285Y-75650000D01*
X189421428Y-75578571D01*
X189135714Y-75578571D01*
X188992857Y-75650000D01*
X188921428Y-75792857D01*
X188921428Y-75935714D01*
X189635714Y-76078571D01*
X188064285Y-76578571D02*
X188207143Y-76507143D01*
X188278571Y-76364286D01*
X188278571Y-75078571D01*
X185707143Y-75578571D02*
X185707143Y-76578571D01*
X186064286Y-75007143D02*
X186421429Y-76078571D01*
X185492857Y-76078571D01*
X183778572Y-76007143D02*
X182635715Y-76007143D01*
X180778572Y-76578571D02*
X180778572Y-75078571D01*
X180207144Y-75078571D01*
X180064286Y-75150000D01*
X179992858Y-75221429D01*
X179921429Y-75364286D01*
X179921429Y-75578571D01*
X179992858Y-75721429D01*
X180064286Y-75792857D01*
X180207144Y-75864286D01*
X180778572Y-75864286D01*
X179278572Y-76578571D02*
X179278572Y-75078571D01*
X178278572Y-75078571D02*
X177992858Y-75078571D01*
X177850000Y-75150000D01*
X177707143Y-75292857D01*
X177635715Y-75578571D01*
X177635715Y-76078571D01*
X177707143Y-76364286D01*
X177850000Y-76507143D01*
X177992858Y-76578571D01*
X178278572Y-76578571D01*
X178421429Y-76507143D01*
X178564286Y-76364286D01*
X178635715Y-76078571D01*
X178635715Y-75578571D01*
X178564286Y-75292857D01*
X178421429Y-75150000D01*
X178278572Y-75078571D01*
X176207143Y-76578571D02*
X177064286Y-76578571D01*
X176635714Y-76578571D02*
X176635714Y-75078571D01*
X176778571Y-75292857D01*
X176921429Y-75435714D01*
X177064286Y-75507143D01*
X175921429Y-76721429D02*
X174778572Y-76721429D01*
X173635715Y-76578571D02*
X174492858Y-76578571D01*
X174064286Y-76578571D02*
X174064286Y-75078571D01*
X174207143Y-75292857D01*
X174350001Y-75435714D01*
X174492858Y-75507143D01*
X195635714Y-78835714D02*
X195707143Y-78907143D01*
X195921429Y-78978571D01*
X196064286Y-78978571D01*
X196278571Y-78907143D01*
X196421429Y-78764286D01*
X196492857Y-78621429D01*
X196564286Y-78335714D01*
X196564286Y-78121429D01*
X196492857Y-77835714D01*
X196421429Y-77692857D01*
X196278571Y-77550000D01*
X196064286Y-77478571D01*
X195921429Y-77478571D01*
X195707143Y-77550000D01*
X195635714Y-77621429D01*
X194992857Y-78978571D02*
X194992857Y-77478571D01*
X194350000Y-78978571D02*
X194350000Y-78192857D01*
X194421429Y-78050000D01*
X194564286Y-77978571D01*
X194778571Y-77978571D01*
X194921429Y-78050000D01*
X194992857Y-78121429D01*
X192992857Y-78978571D02*
X192992857Y-78192857D01*
X193064286Y-78050000D01*
X193207143Y-77978571D01*
X193492857Y-77978571D01*
X193635714Y-78050000D01*
X192992857Y-78907143D02*
X193135714Y-78978571D01*
X193492857Y-78978571D01*
X193635714Y-78907143D01*
X193707143Y-78764286D01*
X193707143Y-78621429D01*
X193635714Y-78478571D01*
X193492857Y-78407143D01*
X193135714Y-78407143D01*
X192992857Y-78335714D01*
X192278571Y-77978571D02*
X192278571Y-78978571D01*
X192278571Y-78121429D02*
X192207143Y-78050000D01*
X192064285Y-77978571D01*
X191850000Y-77978571D01*
X191707143Y-78050000D01*
X191635714Y-78192857D01*
X191635714Y-78978571D01*
X190921428Y-77978571D02*
X190921428Y-78978571D01*
X190921428Y-78121429D02*
X190850000Y-78050000D01*
X190707142Y-77978571D01*
X190492857Y-77978571D01*
X190350000Y-78050000D01*
X190278571Y-78192857D01*
X190278571Y-78978571D01*
X188992857Y-78907143D02*
X189135714Y-78978571D01*
X189421428Y-78978571D01*
X189564285Y-78907143D01*
X189635714Y-78764286D01*
X189635714Y-78192857D01*
X189564285Y-78050000D01*
X189421428Y-77978571D01*
X189135714Y-77978571D01*
X188992857Y-78050000D01*
X188921428Y-78192857D01*
X188921428Y-78335714D01*
X189635714Y-78478571D01*
X188064285Y-78978571D02*
X188207143Y-78907143D01*
X188278571Y-78764286D01*
X188278571Y-77478571D01*
X185635714Y-77478571D02*
X186350000Y-77478571D01*
X186421429Y-78192857D01*
X186350000Y-78121429D01*
X186207143Y-78050000D01*
X185850000Y-78050000D01*
X185707143Y-78121429D01*
X185635714Y-78192857D01*
X185564286Y-78335714D01*
X185564286Y-78692857D01*
X185635714Y-78835714D01*
X185707143Y-78907143D01*
X185850000Y-78978571D01*
X186207143Y-78978571D01*
X186350000Y-78907143D01*
X186421429Y-78835714D01*
X183778572Y-78407143D02*
X182635715Y-78407143D01*
X180778572Y-78978571D02*
X180778572Y-77478571D01*
X180207144Y-77478571D01*
X180064286Y-77550000D01*
X179992858Y-77621429D01*
X179921429Y-77764286D01*
X179921429Y-77978571D01*
X179992858Y-78121429D01*
X180064286Y-78192857D01*
X180207144Y-78264286D01*
X180778572Y-78264286D01*
X179278572Y-78978571D02*
X179278572Y-77478571D01*
X178278572Y-77478571D02*
X177992858Y-77478571D01*
X177850000Y-77550000D01*
X177707143Y-77692857D01*
X177635715Y-77978571D01*
X177635715Y-78478571D01*
X177707143Y-78764286D01*
X177850000Y-78907143D01*
X177992858Y-78978571D01*
X178278572Y-78978571D01*
X178421429Y-78907143D01*
X178564286Y-78764286D01*
X178635715Y-78478571D01*
X178635715Y-77978571D01*
X178564286Y-77692857D01*
X178421429Y-77550000D01*
X178278572Y-77478571D01*
X176207143Y-78978571D02*
X177064286Y-78978571D01*
X176635714Y-78978571D02*
X176635714Y-77478571D01*
X176778571Y-77692857D01*
X176921429Y-77835714D01*
X177064286Y-77907143D01*
X175921429Y-79121429D02*
X174778572Y-79121429D01*
X173778572Y-77978571D02*
X173778572Y-78978571D01*
X174135715Y-77407143D02*
X174492858Y-78478571D01*
X173564286Y-78478571D01*
X195635714Y-81235714D02*
X195707143Y-81307143D01*
X195921429Y-81378571D01*
X196064286Y-81378571D01*
X196278571Y-81307143D01*
X196421429Y-81164286D01*
X196492857Y-81021429D01*
X196564286Y-80735714D01*
X196564286Y-80521429D01*
X196492857Y-80235714D01*
X196421429Y-80092857D01*
X196278571Y-79950000D01*
X196064286Y-79878571D01*
X195921429Y-79878571D01*
X195707143Y-79950000D01*
X195635714Y-80021429D01*
X194992857Y-81378571D02*
X194992857Y-79878571D01*
X194350000Y-81378571D02*
X194350000Y-80592857D01*
X194421429Y-80450000D01*
X194564286Y-80378571D01*
X194778571Y-80378571D01*
X194921429Y-80450000D01*
X194992857Y-80521429D01*
X192992857Y-81378571D02*
X192992857Y-80592857D01*
X193064286Y-80450000D01*
X193207143Y-80378571D01*
X193492857Y-80378571D01*
X193635714Y-80450000D01*
X192992857Y-81307143D02*
X193135714Y-81378571D01*
X193492857Y-81378571D01*
X193635714Y-81307143D01*
X193707143Y-81164286D01*
X193707143Y-81021429D01*
X193635714Y-80878571D01*
X193492857Y-80807143D01*
X193135714Y-80807143D01*
X192992857Y-80735714D01*
X192278571Y-80378571D02*
X192278571Y-81378571D01*
X192278571Y-80521429D02*
X192207143Y-80450000D01*
X192064285Y-80378571D01*
X191850000Y-80378571D01*
X191707143Y-80450000D01*
X191635714Y-80592857D01*
X191635714Y-81378571D01*
X190921428Y-80378571D02*
X190921428Y-81378571D01*
X190921428Y-80521429D02*
X190850000Y-80450000D01*
X190707142Y-80378571D01*
X190492857Y-80378571D01*
X190350000Y-80450000D01*
X190278571Y-80592857D01*
X190278571Y-81378571D01*
X188992857Y-81307143D02*
X189135714Y-81378571D01*
X189421428Y-81378571D01*
X189564285Y-81307143D01*
X189635714Y-81164286D01*
X189635714Y-80592857D01*
X189564285Y-80450000D01*
X189421428Y-80378571D01*
X189135714Y-80378571D01*
X188992857Y-80450000D01*
X188921428Y-80592857D01*
X188921428Y-80735714D01*
X189635714Y-80878571D01*
X188064285Y-81378571D02*
X188207143Y-81307143D01*
X188278571Y-81164286D01*
X188278571Y-79878571D01*
X185707143Y-79878571D02*
X185992857Y-79878571D01*
X186135714Y-79950000D01*
X186207143Y-80021429D01*
X186350000Y-80235714D01*
X186421429Y-80521429D01*
X186421429Y-81092857D01*
X186350000Y-81235714D01*
X186278572Y-81307143D01*
X186135714Y-81378571D01*
X185850000Y-81378571D01*
X185707143Y-81307143D01*
X185635714Y-81235714D01*
X185564286Y-81092857D01*
X185564286Y-80735714D01*
X185635714Y-80592857D01*
X185707143Y-80521429D01*
X185850000Y-80450000D01*
X186135714Y-80450000D01*
X186278572Y-80521429D01*
X186350000Y-80592857D01*
X186421429Y-80735714D01*
X183778572Y-80807143D02*
X182635715Y-80807143D01*
X180778572Y-81378571D02*
X180778572Y-79878571D01*
X180207144Y-79878571D01*
X180064286Y-79950000D01*
X179992858Y-80021429D01*
X179921429Y-80164286D01*
X179921429Y-80378571D01*
X179992858Y-80521429D01*
X180064286Y-80592857D01*
X180207144Y-80664286D01*
X180778572Y-80664286D01*
X179278572Y-81378571D02*
X179278572Y-79878571D01*
X178278572Y-79878571D02*
X177992858Y-79878571D01*
X177850000Y-79950000D01*
X177707143Y-80092857D01*
X177635715Y-80378571D01*
X177635715Y-80878571D01*
X177707143Y-81164286D01*
X177850000Y-81307143D01*
X177992858Y-81378571D01*
X178278572Y-81378571D01*
X178421429Y-81307143D01*
X178564286Y-81164286D01*
X178635715Y-80878571D01*
X178635715Y-80378571D01*
X178564286Y-80092857D01*
X178421429Y-79950000D01*
X178278572Y-79878571D01*
X176207143Y-81378571D02*
X177064286Y-81378571D01*
X176635714Y-81378571D02*
X176635714Y-79878571D01*
X176778571Y-80092857D01*
X176921429Y-80235714D01*
X177064286Y-80307143D01*
X175921429Y-81521429D02*
X174778572Y-81521429D01*
X174492858Y-80021429D02*
X174421429Y-79950000D01*
X174278572Y-79878571D01*
X173921429Y-79878571D01*
X173778572Y-79950000D01*
X173707143Y-80021429D01*
X173635715Y-80164286D01*
X173635715Y-80307143D01*
X173707143Y-80521429D01*
X174564286Y-81378571D01*
X173635715Y-81378571D01*
X173135715Y-79878571D02*
X172135715Y-79878571D01*
X172778572Y-81378571D01*
X195635714Y-83635714D02*
X195707143Y-83707143D01*
X195921429Y-83778571D01*
X196064286Y-83778571D01*
X196278571Y-83707143D01*
X196421429Y-83564286D01*
X196492857Y-83421429D01*
X196564286Y-83135714D01*
X196564286Y-82921429D01*
X196492857Y-82635714D01*
X196421429Y-82492857D01*
X196278571Y-82350000D01*
X196064286Y-82278571D01*
X195921429Y-82278571D01*
X195707143Y-82350000D01*
X195635714Y-82421429D01*
X194992857Y-83778571D02*
X194992857Y-82278571D01*
X194350000Y-83778571D02*
X194350000Y-82992857D01*
X194421429Y-82850000D01*
X194564286Y-82778571D01*
X194778571Y-82778571D01*
X194921429Y-82850000D01*
X194992857Y-82921429D01*
X192992857Y-83778571D02*
X192992857Y-82992857D01*
X193064286Y-82850000D01*
X193207143Y-82778571D01*
X193492857Y-82778571D01*
X193635714Y-82850000D01*
X192992857Y-83707143D02*
X193135714Y-83778571D01*
X193492857Y-83778571D01*
X193635714Y-83707143D01*
X193707143Y-83564286D01*
X193707143Y-83421429D01*
X193635714Y-83278571D01*
X193492857Y-83207143D01*
X193135714Y-83207143D01*
X192992857Y-83135714D01*
X192278571Y-82778571D02*
X192278571Y-83778571D01*
X192278571Y-82921429D02*
X192207143Y-82850000D01*
X192064285Y-82778571D01*
X191850000Y-82778571D01*
X191707143Y-82850000D01*
X191635714Y-82992857D01*
X191635714Y-83778571D01*
X190921428Y-82778571D02*
X190921428Y-83778571D01*
X190921428Y-82921429D02*
X190850000Y-82850000D01*
X190707142Y-82778571D01*
X190492857Y-82778571D01*
X190350000Y-82850000D01*
X190278571Y-82992857D01*
X190278571Y-83778571D01*
X188992857Y-83707143D02*
X189135714Y-83778571D01*
X189421428Y-83778571D01*
X189564285Y-83707143D01*
X189635714Y-83564286D01*
X189635714Y-82992857D01*
X189564285Y-82850000D01*
X189421428Y-82778571D01*
X189135714Y-82778571D01*
X188992857Y-82850000D01*
X188921428Y-82992857D01*
X188921428Y-83135714D01*
X189635714Y-83278571D01*
X188064285Y-83778571D02*
X188207143Y-83707143D01*
X188278571Y-83564286D01*
X188278571Y-82278571D01*
X186492857Y-82278571D02*
X185492857Y-82278571D01*
X186135714Y-83778571D01*
X183778572Y-83207143D02*
X182635715Y-83207143D01*
X180778572Y-83778571D02*
X180778572Y-82278571D01*
X180207144Y-82278571D01*
X180064286Y-82350000D01*
X179992858Y-82421429D01*
X179921429Y-82564286D01*
X179921429Y-82778571D01*
X179992858Y-82921429D01*
X180064286Y-82992857D01*
X180207144Y-83064286D01*
X180778572Y-83064286D01*
X179278572Y-83778571D02*
X179278572Y-82278571D01*
X178278572Y-82278571D02*
X177992858Y-82278571D01*
X177850000Y-82350000D01*
X177707143Y-82492857D01*
X177635715Y-82778571D01*
X177635715Y-83278571D01*
X177707143Y-83564286D01*
X177850000Y-83707143D01*
X177992858Y-83778571D01*
X178278572Y-83778571D01*
X178421429Y-83707143D01*
X178564286Y-83564286D01*
X178635715Y-83278571D01*
X178635715Y-82778571D01*
X178564286Y-82492857D01*
X178421429Y-82350000D01*
X178278572Y-82278571D01*
X176207143Y-83778571D02*
X177064286Y-83778571D01*
X176635714Y-83778571D02*
X176635714Y-82278571D01*
X176778571Y-82492857D01*
X176921429Y-82635714D01*
X177064286Y-82707143D01*
X175921429Y-83921429D02*
X174778572Y-83921429D01*
X174492858Y-82421429D02*
X174421429Y-82350000D01*
X174278572Y-82278571D01*
X173921429Y-82278571D01*
X173778572Y-82350000D01*
X173707143Y-82421429D01*
X173635715Y-82564286D01*
X173635715Y-82707143D01*
X173707143Y-82921429D01*
X174564286Y-83778571D01*
X173635715Y-83778571D01*
X172350001Y-82278571D02*
X172635715Y-82278571D01*
X172778572Y-82350000D01*
X172850001Y-82421429D01*
X172992858Y-82635714D01*
X173064287Y-82921429D01*
X173064287Y-83492857D01*
X172992858Y-83635714D01*
X172921430Y-83707143D01*
X172778572Y-83778571D01*
X172492858Y-83778571D01*
X172350001Y-83707143D01*
X172278572Y-83635714D01*
X172207144Y-83492857D01*
X172207144Y-83135714D01*
X172278572Y-82992857D01*
X172350001Y-82921429D01*
X172492858Y-82850000D01*
X172778572Y-82850000D01*
X172921430Y-82921429D01*
X172992858Y-82992857D01*
X173064287Y-83135714D01*
X195635714Y-86035714D02*
X195707143Y-86107143D01*
X195921429Y-86178571D01*
X196064286Y-86178571D01*
X196278571Y-86107143D01*
X196421429Y-85964286D01*
X196492857Y-85821429D01*
X196564286Y-85535714D01*
X196564286Y-85321429D01*
X196492857Y-85035714D01*
X196421429Y-84892857D01*
X196278571Y-84750000D01*
X196064286Y-84678571D01*
X195921429Y-84678571D01*
X195707143Y-84750000D01*
X195635714Y-84821429D01*
X194992857Y-86178571D02*
X194992857Y-84678571D01*
X194350000Y-86178571D02*
X194350000Y-85392857D01*
X194421429Y-85250000D01*
X194564286Y-85178571D01*
X194778571Y-85178571D01*
X194921429Y-85250000D01*
X194992857Y-85321429D01*
X192992857Y-86178571D02*
X192992857Y-85392857D01*
X193064286Y-85250000D01*
X193207143Y-85178571D01*
X193492857Y-85178571D01*
X193635714Y-85250000D01*
X192992857Y-86107143D02*
X193135714Y-86178571D01*
X193492857Y-86178571D01*
X193635714Y-86107143D01*
X193707143Y-85964286D01*
X193707143Y-85821429D01*
X193635714Y-85678571D01*
X193492857Y-85607143D01*
X193135714Y-85607143D01*
X192992857Y-85535714D01*
X192278571Y-85178571D02*
X192278571Y-86178571D01*
X192278571Y-85321429D02*
X192207143Y-85250000D01*
X192064285Y-85178571D01*
X191850000Y-85178571D01*
X191707143Y-85250000D01*
X191635714Y-85392857D01*
X191635714Y-86178571D01*
X190921428Y-85178571D02*
X190921428Y-86178571D01*
X190921428Y-85321429D02*
X190850000Y-85250000D01*
X190707142Y-85178571D01*
X190492857Y-85178571D01*
X190350000Y-85250000D01*
X190278571Y-85392857D01*
X190278571Y-86178571D01*
X188992857Y-86107143D02*
X189135714Y-86178571D01*
X189421428Y-86178571D01*
X189564285Y-86107143D01*
X189635714Y-85964286D01*
X189635714Y-85392857D01*
X189564285Y-85250000D01*
X189421428Y-85178571D01*
X189135714Y-85178571D01*
X188992857Y-85250000D01*
X188921428Y-85392857D01*
X188921428Y-85535714D01*
X189635714Y-85678571D01*
X188064285Y-86178571D02*
X188207143Y-86107143D01*
X188278571Y-85964286D01*
X188278571Y-84678571D01*
X186135714Y-85321429D02*
X186278572Y-85250000D01*
X186350000Y-85178571D01*
X186421429Y-85035714D01*
X186421429Y-84964286D01*
X186350000Y-84821429D01*
X186278572Y-84750000D01*
X186135714Y-84678571D01*
X185850000Y-84678571D01*
X185707143Y-84750000D01*
X185635714Y-84821429D01*
X185564286Y-84964286D01*
X185564286Y-85035714D01*
X185635714Y-85178571D01*
X185707143Y-85250000D01*
X185850000Y-85321429D01*
X186135714Y-85321429D01*
X186278572Y-85392857D01*
X186350000Y-85464286D01*
X186421429Y-85607143D01*
X186421429Y-85892857D01*
X186350000Y-86035714D01*
X186278572Y-86107143D01*
X186135714Y-86178571D01*
X185850000Y-86178571D01*
X185707143Y-86107143D01*
X185635714Y-86035714D01*
X185564286Y-85892857D01*
X185564286Y-85607143D01*
X185635714Y-85464286D01*
X185707143Y-85392857D01*
X185850000Y-85321429D01*
X183778572Y-85607143D02*
X182635715Y-85607143D01*
X180778572Y-86178571D02*
X180778572Y-84678571D01*
X180207144Y-84678571D01*
X180064286Y-84750000D01*
X179992858Y-84821429D01*
X179921429Y-84964286D01*
X179921429Y-85178571D01*
X179992858Y-85321429D01*
X180064286Y-85392857D01*
X180207144Y-85464286D01*
X180778572Y-85464286D01*
X179278572Y-86178571D02*
X179278572Y-84678571D01*
X178278572Y-84678571D02*
X177992858Y-84678571D01*
X177850000Y-84750000D01*
X177707143Y-84892857D01*
X177635715Y-85178571D01*
X177635715Y-85678571D01*
X177707143Y-85964286D01*
X177850000Y-86107143D01*
X177992858Y-86178571D01*
X178278572Y-86178571D01*
X178421429Y-86107143D01*
X178564286Y-85964286D01*
X178635715Y-85678571D01*
X178635715Y-85178571D01*
X178564286Y-84892857D01*
X178421429Y-84750000D01*
X178278572Y-84678571D01*
X176207143Y-86178571D02*
X177064286Y-86178571D01*
X176635714Y-86178571D02*
X176635714Y-84678571D01*
X176778571Y-84892857D01*
X176921429Y-85035714D01*
X177064286Y-85107143D01*
X175921429Y-86321429D02*
X174778572Y-86321429D01*
X173635715Y-86178571D02*
X174492858Y-86178571D01*
X174064286Y-86178571D02*
X174064286Y-84678571D01*
X174207143Y-84892857D01*
X174350001Y-85035714D01*
X174492858Y-85107143D01*
X172707144Y-84678571D02*
X172564287Y-84678571D01*
X172421430Y-84750000D01*
X172350001Y-84821429D01*
X172278572Y-84964286D01*
X172207144Y-85250000D01*
X172207144Y-85607143D01*
X172278572Y-85892857D01*
X172350001Y-86035714D01*
X172421430Y-86107143D01*
X172564287Y-86178571D01*
X172707144Y-86178571D01*
X172850001Y-86107143D01*
X172921430Y-86035714D01*
X172992858Y-85892857D01*
X173064287Y-85607143D01*
X173064287Y-85250000D01*
X172992858Y-84964286D01*
X172921430Y-84821429D01*
X172850001Y-84750000D01*
X172707144Y-84678571D01*
X195635714Y-88435714D02*
X195707143Y-88507143D01*
X195921429Y-88578571D01*
X196064286Y-88578571D01*
X196278571Y-88507143D01*
X196421429Y-88364286D01*
X196492857Y-88221429D01*
X196564286Y-87935714D01*
X196564286Y-87721429D01*
X196492857Y-87435714D01*
X196421429Y-87292857D01*
X196278571Y-87150000D01*
X196064286Y-87078571D01*
X195921429Y-87078571D01*
X195707143Y-87150000D01*
X195635714Y-87221429D01*
X194992857Y-88578571D02*
X194992857Y-87078571D01*
X194350000Y-88578571D02*
X194350000Y-87792857D01*
X194421429Y-87650000D01*
X194564286Y-87578571D01*
X194778571Y-87578571D01*
X194921429Y-87650000D01*
X194992857Y-87721429D01*
X192992857Y-88578571D02*
X192992857Y-87792857D01*
X193064286Y-87650000D01*
X193207143Y-87578571D01*
X193492857Y-87578571D01*
X193635714Y-87650000D01*
X192992857Y-88507143D02*
X193135714Y-88578571D01*
X193492857Y-88578571D01*
X193635714Y-88507143D01*
X193707143Y-88364286D01*
X193707143Y-88221429D01*
X193635714Y-88078571D01*
X193492857Y-88007143D01*
X193135714Y-88007143D01*
X192992857Y-87935714D01*
X192278571Y-87578571D02*
X192278571Y-88578571D01*
X192278571Y-87721429D02*
X192207143Y-87650000D01*
X192064285Y-87578571D01*
X191850000Y-87578571D01*
X191707143Y-87650000D01*
X191635714Y-87792857D01*
X191635714Y-88578571D01*
X190921428Y-87578571D02*
X190921428Y-88578571D01*
X190921428Y-87721429D02*
X190850000Y-87650000D01*
X190707142Y-87578571D01*
X190492857Y-87578571D01*
X190350000Y-87650000D01*
X190278571Y-87792857D01*
X190278571Y-88578571D01*
X188992857Y-88507143D02*
X189135714Y-88578571D01*
X189421428Y-88578571D01*
X189564285Y-88507143D01*
X189635714Y-88364286D01*
X189635714Y-87792857D01*
X189564285Y-87650000D01*
X189421428Y-87578571D01*
X189135714Y-87578571D01*
X188992857Y-87650000D01*
X188921428Y-87792857D01*
X188921428Y-87935714D01*
X189635714Y-88078571D01*
X188064285Y-88578571D02*
X188207143Y-88507143D01*
X188278571Y-88364286D01*
X188278571Y-87078571D01*
X186278572Y-88578571D02*
X185992857Y-88578571D01*
X185850000Y-88507143D01*
X185778572Y-88435714D01*
X185635714Y-88221429D01*
X185564286Y-87935714D01*
X185564286Y-87364286D01*
X185635714Y-87221429D01*
X185707143Y-87150000D01*
X185850000Y-87078571D01*
X186135714Y-87078571D01*
X186278572Y-87150000D01*
X186350000Y-87221429D01*
X186421429Y-87364286D01*
X186421429Y-87721429D01*
X186350000Y-87864286D01*
X186278572Y-87935714D01*
X186135714Y-88007143D01*
X185850000Y-88007143D01*
X185707143Y-87935714D01*
X185635714Y-87864286D01*
X185564286Y-87721429D01*
X183778572Y-88007143D02*
X182635715Y-88007143D01*
X180778572Y-88578571D02*
X180778572Y-87078571D01*
X180207144Y-87078571D01*
X180064286Y-87150000D01*
X179992858Y-87221429D01*
X179921429Y-87364286D01*
X179921429Y-87578571D01*
X179992858Y-87721429D01*
X180064286Y-87792857D01*
X180207144Y-87864286D01*
X180778572Y-87864286D01*
X179278572Y-88578571D02*
X179278572Y-87078571D01*
X178278572Y-87078571D02*
X177992858Y-87078571D01*
X177850000Y-87150000D01*
X177707143Y-87292857D01*
X177635715Y-87578571D01*
X177635715Y-88078571D01*
X177707143Y-88364286D01*
X177850000Y-88507143D01*
X177992858Y-88578571D01*
X178278572Y-88578571D01*
X178421429Y-88507143D01*
X178564286Y-88364286D01*
X178635715Y-88078571D01*
X178635715Y-87578571D01*
X178564286Y-87292857D01*
X178421429Y-87150000D01*
X178278572Y-87078571D01*
X176207143Y-88578571D02*
X177064286Y-88578571D01*
X176635714Y-88578571D02*
X176635714Y-87078571D01*
X176778571Y-87292857D01*
X176921429Y-87435714D01*
X177064286Y-87507143D01*
X175921429Y-88721429D02*
X174778572Y-88721429D01*
X174564286Y-87078571D02*
X173564286Y-87078571D01*
X174207143Y-88578571D01*
X195635714Y-90835714D02*
X195707143Y-90907143D01*
X195921429Y-90978571D01*
X196064286Y-90978571D01*
X196278571Y-90907143D01*
X196421429Y-90764286D01*
X196492857Y-90621429D01*
X196564286Y-90335714D01*
X196564286Y-90121429D01*
X196492857Y-89835714D01*
X196421429Y-89692857D01*
X196278571Y-89550000D01*
X196064286Y-89478571D01*
X195921429Y-89478571D01*
X195707143Y-89550000D01*
X195635714Y-89621429D01*
X194992857Y-90978571D02*
X194992857Y-89478571D01*
X194350000Y-90978571D02*
X194350000Y-90192857D01*
X194421429Y-90050000D01*
X194564286Y-89978571D01*
X194778571Y-89978571D01*
X194921429Y-90050000D01*
X194992857Y-90121429D01*
X192992857Y-90978571D02*
X192992857Y-90192857D01*
X193064286Y-90050000D01*
X193207143Y-89978571D01*
X193492857Y-89978571D01*
X193635714Y-90050000D01*
X192992857Y-90907143D02*
X193135714Y-90978571D01*
X193492857Y-90978571D01*
X193635714Y-90907143D01*
X193707143Y-90764286D01*
X193707143Y-90621429D01*
X193635714Y-90478571D01*
X193492857Y-90407143D01*
X193135714Y-90407143D01*
X192992857Y-90335714D01*
X192278571Y-89978571D02*
X192278571Y-90978571D01*
X192278571Y-90121429D02*
X192207143Y-90050000D01*
X192064285Y-89978571D01*
X191850000Y-89978571D01*
X191707143Y-90050000D01*
X191635714Y-90192857D01*
X191635714Y-90978571D01*
X190921428Y-89978571D02*
X190921428Y-90978571D01*
X190921428Y-90121429D02*
X190850000Y-90050000D01*
X190707142Y-89978571D01*
X190492857Y-89978571D01*
X190350000Y-90050000D01*
X190278571Y-90192857D01*
X190278571Y-90978571D01*
X188992857Y-90907143D02*
X189135714Y-90978571D01*
X189421428Y-90978571D01*
X189564285Y-90907143D01*
X189635714Y-90764286D01*
X189635714Y-90192857D01*
X189564285Y-90050000D01*
X189421428Y-89978571D01*
X189135714Y-89978571D01*
X188992857Y-90050000D01*
X188921428Y-90192857D01*
X188921428Y-90335714D01*
X189635714Y-90478571D01*
X188064285Y-90978571D02*
X188207143Y-90907143D01*
X188278571Y-90764286D01*
X188278571Y-89478571D01*
X185564286Y-90978571D02*
X186421429Y-90978571D01*
X185992857Y-90978571D02*
X185992857Y-89478571D01*
X186135714Y-89692857D01*
X186278572Y-89835714D01*
X186421429Y-89907143D01*
X184635715Y-89478571D02*
X184492858Y-89478571D01*
X184350001Y-89550000D01*
X184278572Y-89621429D01*
X184207143Y-89764286D01*
X184135715Y-90050000D01*
X184135715Y-90407143D01*
X184207143Y-90692857D01*
X184278572Y-90835714D01*
X184350001Y-90907143D01*
X184492858Y-90978571D01*
X184635715Y-90978571D01*
X184778572Y-90907143D01*
X184850001Y-90835714D01*
X184921429Y-90692857D01*
X184992858Y-90407143D01*
X184992858Y-90050000D01*
X184921429Y-89764286D01*
X184850001Y-89621429D01*
X184778572Y-89550000D01*
X184635715Y-89478571D01*
X182350001Y-90407143D02*
X181207144Y-90407143D01*
X179350001Y-90978571D02*
X179350001Y-89478571D01*
X178778573Y-89478571D01*
X178635715Y-89550000D01*
X178564287Y-89621429D01*
X178492858Y-89764286D01*
X178492858Y-89978571D01*
X178564287Y-90121429D01*
X178635715Y-90192857D01*
X178778573Y-90264286D01*
X179350001Y-90264286D01*
X177850001Y-90978571D02*
X177850001Y-89478571D01*
X176850001Y-89478571D02*
X176564287Y-89478571D01*
X176421429Y-89550000D01*
X176278572Y-89692857D01*
X176207144Y-89978571D01*
X176207144Y-90478571D01*
X176278572Y-90764286D01*
X176421429Y-90907143D01*
X176564287Y-90978571D01*
X176850001Y-90978571D01*
X176992858Y-90907143D01*
X177135715Y-90764286D01*
X177207144Y-90478571D01*
X177207144Y-89978571D01*
X177135715Y-89692857D01*
X176992858Y-89550000D01*
X176850001Y-89478571D01*
X174778572Y-90978571D02*
X175635715Y-90978571D01*
X175207143Y-90978571D02*
X175207143Y-89478571D01*
X175350000Y-89692857D01*
X175492858Y-89835714D01*
X175635715Y-89907143D01*
X174492858Y-91121429D02*
X173350001Y-91121429D01*
X172207144Y-90978571D02*
X173064287Y-90978571D01*
X172635715Y-90978571D02*
X172635715Y-89478571D01*
X172778572Y-89692857D01*
X172921430Y-89835714D01*
X173064287Y-89907143D01*
X171492859Y-90978571D02*
X171207144Y-90978571D01*
X171064287Y-90907143D01*
X170992859Y-90835714D01*
X170850001Y-90621429D01*
X170778573Y-90335714D01*
X170778573Y-89764286D01*
X170850001Y-89621429D01*
X170921430Y-89550000D01*
X171064287Y-89478571D01*
X171350001Y-89478571D01*
X171492859Y-89550000D01*
X171564287Y-89621429D01*
X171635716Y-89764286D01*
X171635716Y-90121429D01*
X171564287Y-90264286D01*
X171492859Y-90335714D01*
X171350001Y-90407143D01*
X171064287Y-90407143D01*
X170921430Y-90335714D01*
X170850001Y-90264286D01*
X170778573Y-90121429D01*
X195635714Y-93235714D02*
X195707143Y-93307143D01*
X195921429Y-93378571D01*
X196064286Y-93378571D01*
X196278571Y-93307143D01*
X196421429Y-93164286D01*
X196492857Y-93021429D01*
X196564286Y-92735714D01*
X196564286Y-92521429D01*
X196492857Y-92235714D01*
X196421429Y-92092857D01*
X196278571Y-91950000D01*
X196064286Y-91878571D01*
X195921429Y-91878571D01*
X195707143Y-91950000D01*
X195635714Y-92021429D01*
X194992857Y-93378571D02*
X194992857Y-91878571D01*
X194350000Y-93378571D02*
X194350000Y-92592857D01*
X194421429Y-92450000D01*
X194564286Y-92378571D01*
X194778571Y-92378571D01*
X194921429Y-92450000D01*
X194992857Y-92521429D01*
X192992857Y-93378571D02*
X192992857Y-92592857D01*
X193064286Y-92450000D01*
X193207143Y-92378571D01*
X193492857Y-92378571D01*
X193635714Y-92450000D01*
X192992857Y-93307143D02*
X193135714Y-93378571D01*
X193492857Y-93378571D01*
X193635714Y-93307143D01*
X193707143Y-93164286D01*
X193707143Y-93021429D01*
X193635714Y-92878571D01*
X193492857Y-92807143D01*
X193135714Y-92807143D01*
X192992857Y-92735714D01*
X192278571Y-92378571D02*
X192278571Y-93378571D01*
X192278571Y-92521429D02*
X192207143Y-92450000D01*
X192064285Y-92378571D01*
X191850000Y-92378571D01*
X191707143Y-92450000D01*
X191635714Y-92592857D01*
X191635714Y-93378571D01*
X190921428Y-92378571D02*
X190921428Y-93378571D01*
X190921428Y-92521429D02*
X190850000Y-92450000D01*
X190707142Y-92378571D01*
X190492857Y-92378571D01*
X190350000Y-92450000D01*
X190278571Y-92592857D01*
X190278571Y-93378571D01*
X188992857Y-93307143D02*
X189135714Y-93378571D01*
X189421428Y-93378571D01*
X189564285Y-93307143D01*
X189635714Y-93164286D01*
X189635714Y-92592857D01*
X189564285Y-92450000D01*
X189421428Y-92378571D01*
X189135714Y-92378571D01*
X188992857Y-92450000D01*
X188921428Y-92592857D01*
X188921428Y-92735714D01*
X189635714Y-92878571D01*
X188064285Y-93378571D02*
X188207143Y-93307143D01*
X188278571Y-93164286D01*
X188278571Y-91878571D01*
X185564286Y-93378571D02*
X186421429Y-93378571D01*
X185992857Y-93378571D02*
X185992857Y-91878571D01*
X186135714Y-92092857D01*
X186278572Y-92235714D01*
X186421429Y-92307143D01*
X184135715Y-93378571D02*
X184992858Y-93378571D01*
X184564286Y-93378571D02*
X184564286Y-91878571D01*
X184707143Y-92092857D01*
X184850001Y-92235714D01*
X184992858Y-92307143D01*
X182350001Y-92807143D02*
X181207144Y-92807143D01*
X179350001Y-93378571D02*
X179350001Y-91878571D01*
X178778573Y-91878571D01*
X178635715Y-91950000D01*
X178564287Y-92021429D01*
X178492858Y-92164286D01*
X178492858Y-92378571D01*
X178564287Y-92521429D01*
X178635715Y-92592857D01*
X178778573Y-92664286D01*
X179350001Y-92664286D01*
X177850001Y-93378571D02*
X177850001Y-91878571D01*
X176850001Y-91878571D02*
X176564287Y-91878571D01*
X176421429Y-91950000D01*
X176278572Y-92092857D01*
X176207144Y-92378571D01*
X176207144Y-92878571D01*
X176278572Y-93164286D01*
X176421429Y-93307143D01*
X176564287Y-93378571D01*
X176850001Y-93378571D01*
X176992858Y-93307143D01*
X177135715Y-93164286D01*
X177207144Y-92878571D01*
X177207144Y-92378571D01*
X177135715Y-92092857D01*
X176992858Y-91950000D01*
X176850001Y-91878571D01*
X174778572Y-93378571D02*
X175635715Y-93378571D01*
X175207143Y-93378571D02*
X175207143Y-91878571D01*
X175350000Y-92092857D01*
X175492858Y-92235714D01*
X175635715Y-92307143D01*
X174492858Y-93521429D02*
X173350001Y-93521429D01*
X173064287Y-92021429D02*
X172992858Y-91950000D01*
X172850001Y-91878571D01*
X172492858Y-91878571D01*
X172350001Y-91950000D01*
X172278572Y-92021429D01*
X172207144Y-92164286D01*
X172207144Y-92307143D01*
X172278572Y-92521429D01*
X173135715Y-93378571D01*
X172207144Y-93378571D01*
X170850001Y-91878571D02*
X171564287Y-91878571D01*
X171635716Y-92592857D01*
X171564287Y-92521429D01*
X171421430Y-92450000D01*
X171064287Y-92450000D01*
X170921430Y-92521429D01*
X170850001Y-92592857D01*
X170778573Y-92735714D01*
X170778573Y-93092857D01*
X170850001Y-93235714D01*
X170921430Y-93307143D01*
X171064287Y-93378571D01*
X171421430Y-93378571D01*
X171564287Y-93307143D01*
X171635716Y-93235714D01*
X195635714Y-95635714D02*
X195707143Y-95707143D01*
X195921429Y-95778571D01*
X196064286Y-95778571D01*
X196278571Y-95707143D01*
X196421429Y-95564286D01*
X196492857Y-95421429D01*
X196564286Y-95135714D01*
X196564286Y-94921429D01*
X196492857Y-94635714D01*
X196421429Y-94492857D01*
X196278571Y-94350000D01*
X196064286Y-94278571D01*
X195921429Y-94278571D01*
X195707143Y-94350000D01*
X195635714Y-94421429D01*
X194992857Y-95778571D02*
X194992857Y-94278571D01*
X194350000Y-95778571D02*
X194350000Y-94992857D01*
X194421429Y-94850000D01*
X194564286Y-94778571D01*
X194778571Y-94778571D01*
X194921429Y-94850000D01*
X194992857Y-94921429D01*
X192992857Y-95778571D02*
X192992857Y-94992857D01*
X193064286Y-94850000D01*
X193207143Y-94778571D01*
X193492857Y-94778571D01*
X193635714Y-94850000D01*
X192992857Y-95707143D02*
X193135714Y-95778571D01*
X193492857Y-95778571D01*
X193635714Y-95707143D01*
X193707143Y-95564286D01*
X193707143Y-95421429D01*
X193635714Y-95278571D01*
X193492857Y-95207143D01*
X193135714Y-95207143D01*
X192992857Y-95135714D01*
X192278571Y-94778571D02*
X192278571Y-95778571D01*
X192278571Y-94921429D02*
X192207143Y-94850000D01*
X192064285Y-94778571D01*
X191850000Y-94778571D01*
X191707143Y-94850000D01*
X191635714Y-94992857D01*
X191635714Y-95778571D01*
X190921428Y-94778571D02*
X190921428Y-95778571D01*
X190921428Y-94921429D02*
X190850000Y-94850000D01*
X190707142Y-94778571D01*
X190492857Y-94778571D01*
X190350000Y-94850000D01*
X190278571Y-94992857D01*
X190278571Y-95778571D01*
X188992857Y-95707143D02*
X189135714Y-95778571D01*
X189421428Y-95778571D01*
X189564285Y-95707143D01*
X189635714Y-95564286D01*
X189635714Y-94992857D01*
X189564285Y-94850000D01*
X189421428Y-94778571D01*
X189135714Y-94778571D01*
X188992857Y-94850000D01*
X188921428Y-94992857D01*
X188921428Y-95135714D01*
X189635714Y-95278571D01*
X188064285Y-95778571D02*
X188207143Y-95707143D01*
X188278571Y-95564286D01*
X188278571Y-94278571D01*
X185564286Y-95778571D02*
X186421429Y-95778571D01*
X185992857Y-95778571D02*
X185992857Y-94278571D01*
X186135714Y-94492857D01*
X186278572Y-94635714D01*
X186421429Y-94707143D01*
X184992858Y-94421429D02*
X184921429Y-94350000D01*
X184778572Y-94278571D01*
X184421429Y-94278571D01*
X184278572Y-94350000D01*
X184207143Y-94421429D01*
X184135715Y-94564286D01*
X184135715Y-94707143D01*
X184207143Y-94921429D01*
X185064286Y-95778571D01*
X184135715Y-95778571D01*
X182350001Y-95207143D02*
X181207144Y-95207143D01*
X179350001Y-95778571D02*
X179350001Y-94278571D01*
X178778573Y-94278571D01*
X178635715Y-94350000D01*
X178564287Y-94421429D01*
X178492858Y-94564286D01*
X178492858Y-94778571D01*
X178564287Y-94921429D01*
X178635715Y-94992857D01*
X178778573Y-95064286D01*
X179350001Y-95064286D01*
X177850001Y-95778571D02*
X177850001Y-94278571D01*
X176850001Y-94278571D02*
X176564287Y-94278571D01*
X176421429Y-94350000D01*
X176278572Y-94492857D01*
X176207144Y-94778571D01*
X176207144Y-95278571D01*
X176278572Y-95564286D01*
X176421429Y-95707143D01*
X176564287Y-95778571D01*
X176850001Y-95778571D01*
X176992858Y-95707143D01*
X177135715Y-95564286D01*
X177207144Y-95278571D01*
X177207144Y-94778571D01*
X177135715Y-94492857D01*
X176992858Y-94350000D01*
X176850001Y-94278571D01*
X174778572Y-95778571D02*
X175635715Y-95778571D01*
X175207143Y-95778571D02*
X175207143Y-94278571D01*
X175350000Y-94492857D01*
X175492858Y-94635714D01*
X175635715Y-94707143D01*
X174492858Y-95921429D02*
X173350001Y-95921429D01*
X172350001Y-94278571D02*
X172635715Y-94278571D01*
X172778572Y-94350000D01*
X172850001Y-94421429D01*
X172992858Y-94635714D01*
X173064287Y-94921429D01*
X173064287Y-95492857D01*
X172992858Y-95635714D01*
X172921430Y-95707143D01*
X172778572Y-95778571D01*
X172492858Y-95778571D01*
X172350001Y-95707143D01*
X172278572Y-95635714D01*
X172207144Y-95492857D01*
X172207144Y-95135714D01*
X172278572Y-94992857D01*
X172350001Y-94921429D01*
X172492858Y-94850000D01*
X172778572Y-94850000D01*
X172921430Y-94921429D01*
X172992858Y-94992857D01*
X173064287Y-95135714D01*
X195635714Y-98035714D02*
X195707143Y-98107143D01*
X195921429Y-98178571D01*
X196064286Y-98178571D01*
X196278571Y-98107143D01*
X196421429Y-97964286D01*
X196492857Y-97821429D01*
X196564286Y-97535714D01*
X196564286Y-97321429D01*
X196492857Y-97035714D01*
X196421429Y-96892857D01*
X196278571Y-96750000D01*
X196064286Y-96678571D01*
X195921429Y-96678571D01*
X195707143Y-96750000D01*
X195635714Y-96821429D01*
X194992857Y-98178571D02*
X194992857Y-96678571D01*
X194350000Y-98178571D02*
X194350000Y-97392857D01*
X194421429Y-97250000D01*
X194564286Y-97178571D01*
X194778571Y-97178571D01*
X194921429Y-97250000D01*
X194992857Y-97321429D01*
X192992857Y-98178571D02*
X192992857Y-97392857D01*
X193064286Y-97250000D01*
X193207143Y-97178571D01*
X193492857Y-97178571D01*
X193635714Y-97250000D01*
X192992857Y-98107143D02*
X193135714Y-98178571D01*
X193492857Y-98178571D01*
X193635714Y-98107143D01*
X193707143Y-97964286D01*
X193707143Y-97821429D01*
X193635714Y-97678571D01*
X193492857Y-97607143D01*
X193135714Y-97607143D01*
X192992857Y-97535714D01*
X192278571Y-97178571D02*
X192278571Y-98178571D01*
X192278571Y-97321429D02*
X192207143Y-97250000D01*
X192064285Y-97178571D01*
X191850000Y-97178571D01*
X191707143Y-97250000D01*
X191635714Y-97392857D01*
X191635714Y-98178571D01*
X190921428Y-97178571D02*
X190921428Y-98178571D01*
X190921428Y-97321429D02*
X190850000Y-97250000D01*
X190707142Y-97178571D01*
X190492857Y-97178571D01*
X190350000Y-97250000D01*
X190278571Y-97392857D01*
X190278571Y-98178571D01*
X188992857Y-98107143D02*
X189135714Y-98178571D01*
X189421428Y-98178571D01*
X189564285Y-98107143D01*
X189635714Y-97964286D01*
X189635714Y-97392857D01*
X189564285Y-97250000D01*
X189421428Y-97178571D01*
X189135714Y-97178571D01*
X188992857Y-97250000D01*
X188921428Y-97392857D01*
X188921428Y-97535714D01*
X189635714Y-97678571D01*
X188064285Y-98178571D02*
X188207143Y-98107143D01*
X188278571Y-97964286D01*
X188278571Y-96678571D01*
X185564286Y-98178571D02*
X186421429Y-98178571D01*
X185992857Y-98178571D02*
X185992857Y-96678571D01*
X186135714Y-96892857D01*
X186278572Y-97035714D01*
X186421429Y-97107143D01*
X185064286Y-96678571D02*
X184135715Y-96678571D01*
X184635715Y-97250000D01*
X184421429Y-97250000D01*
X184278572Y-97321429D01*
X184207143Y-97392857D01*
X184135715Y-97535714D01*
X184135715Y-97892857D01*
X184207143Y-98035714D01*
X184278572Y-98107143D01*
X184421429Y-98178571D01*
X184850001Y-98178571D01*
X184992858Y-98107143D01*
X185064286Y-98035714D01*
X182350001Y-97607143D02*
X181207144Y-97607143D01*
X179350001Y-98178571D02*
X179350001Y-96678571D01*
X178778573Y-96678571D01*
X178635715Y-96750000D01*
X178564287Y-96821429D01*
X178492858Y-96964286D01*
X178492858Y-97178571D01*
X178564287Y-97321429D01*
X178635715Y-97392857D01*
X178778573Y-97464286D01*
X179350001Y-97464286D01*
X177850001Y-98178571D02*
X177850001Y-96678571D01*
X176850001Y-96678571D02*
X176564287Y-96678571D01*
X176421429Y-96750000D01*
X176278572Y-96892857D01*
X176207144Y-97178571D01*
X176207144Y-97678571D01*
X176278572Y-97964286D01*
X176421429Y-98107143D01*
X176564287Y-98178571D01*
X176850001Y-98178571D01*
X176992858Y-98107143D01*
X177135715Y-97964286D01*
X177207144Y-97678571D01*
X177207144Y-97178571D01*
X177135715Y-96892857D01*
X176992858Y-96750000D01*
X176850001Y-96678571D01*
X174778572Y-98178571D02*
X175635715Y-98178571D01*
X175207143Y-98178571D02*
X175207143Y-96678571D01*
X175350000Y-96892857D01*
X175492858Y-97035714D01*
X175635715Y-97107143D01*
X174492858Y-98321429D02*
X173350001Y-98321429D01*
X172707144Y-96678571D02*
X172564287Y-96678571D01*
X172421430Y-96750000D01*
X172350001Y-96821429D01*
X172278572Y-96964286D01*
X172207144Y-97250000D01*
X172207144Y-97607143D01*
X172278572Y-97892857D01*
X172350001Y-98035714D01*
X172421430Y-98107143D01*
X172564287Y-98178571D01*
X172707144Y-98178571D01*
X172850001Y-98107143D01*
X172921430Y-98035714D01*
X172992858Y-97892857D01*
X173064287Y-97607143D01*
X173064287Y-97250000D01*
X172992858Y-96964286D01*
X172921430Y-96821429D01*
X172850001Y-96750000D01*
X172707144Y-96678571D01*
X195635714Y-100435714D02*
X195707143Y-100507143D01*
X195921429Y-100578571D01*
X196064286Y-100578571D01*
X196278571Y-100507143D01*
X196421429Y-100364286D01*
X196492857Y-100221429D01*
X196564286Y-99935714D01*
X196564286Y-99721429D01*
X196492857Y-99435714D01*
X196421429Y-99292857D01*
X196278571Y-99150000D01*
X196064286Y-99078571D01*
X195921429Y-99078571D01*
X195707143Y-99150000D01*
X195635714Y-99221429D01*
X194992857Y-100578571D02*
X194992857Y-99078571D01*
X194350000Y-100578571D02*
X194350000Y-99792857D01*
X194421429Y-99650000D01*
X194564286Y-99578571D01*
X194778571Y-99578571D01*
X194921429Y-99650000D01*
X194992857Y-99721429D01*
X192992857Y-100578571D02*
X192992857Y-99792857D01*
X193064286Y-99650000D01*
X193207143Y-99578571D01*
X193492857Y-99578571D01*
X193635714Y-99650000D01*
X192992857Y-100507143D02*
X193135714Y-100578571D01*
X193492857Y-100578571D01*
X193635714Y-100507143D01*
X193707143Y-100364286D01*
X193707143Y-100221429D01*
X193635714Y-100078571D01*
X193492857Y-100007143D01*
X193135714Y-100007143D01*
X192992857Y-99935714D01*
X192278571Y-99578571D02*
X192278571Y-100578571D01*
X192278571Y-99721429D02*
X192207143Y-99650000D01*
X192064285Y-99578571D01*
X191850000Y-99578571D01*
X191707143Y-99650000D01*
X191635714Y-99792857D01*
X191635714Y-100578571D01*
X190921428Y-99578571D02*
X190921428Y-100578571D01*
X190921428Y-99721429D02*
X190850000Y-99650000D01*
X190707142Y-99578571D01*
X190492857Y-99578571D01*
X190350000Y-99650000D01*
X190278571Y-99792857D01*
X190278571Y-100578571D01*
X188992857Y-100507143D02*
X189135714Y-100578571D01*
X189421428Y-100578571D01*
X189564285Y-100507143D01*
X189635714Y-100364286D01*
X189635714Y-99792857D01*
X189564285Y-99650000D01*
X189421428Y-99578571D01*
X189135714Y-99578571D01*
X188992857Y-99650000D01*
X188921428Y-99792857D01*
X188921428Y-99935714D01*
X189635714Y-100078571D01*
X188064285Y-100578571D02*
X188207143Y-100507143D01*
X188278571Y-100364286D01*
X188278571Y-99078571D01*
X185564286Y-100578571D02*
X186421429Y-100578571D01*
X185992857Y-100578571D02*
X185992857Y-99078571D01*
X186135714Y-99292857D01*
X186278572Y-99435714D01*
X186421429Y-99507143D01*
X184278572Y-99578571D02*
X184278572Y-100578571D01*
X184635715Y-99007143D02*
X184992858Y-100078571D01*
X184064286Y-100078571D01*
X182350001Y-100007143D02*
X181207144Y-100007143D01*
X179350001Y-100578571D02*
X179350001Y-99078571D01*
X178778573Y-99078571D01*
X178635715Y-99150000D01*
X178564287Y-99221429D01*
X178492858Y-99364286D01*
X178492858Y-99578571D01*
X178564287Y-99721429D01*
X178635715Y-99792857D01*
X178778573Y-99864286D01*
X179350001Y-99864286D01*
X177850001Y-100578571D02*
X177850001Y-99078571D01*
X176850001Y-99078571D02*
X176564287Y-99078571D01*
X176421429Y-99150000D01*
X176278572Y-99292857D01*
X176207144Y-99578571D01*
X176207144Y-100078571D01*
X176278572Y-100364286D01*
X176421429Y-100507143D01*
X176564287Y-100578571D01*
X176850001Y-100578571D01*
X176992858Y-100507143D01*
X177135715Y-100364286D01*
X177207144Y-100078571D01*
X177207144Y-99578571D01*
X177135715Y-99292857D01*
X176992858Y-99150000D01*
X176850001Y-99078571D01*
X174778572Y-100578571D02*
X175635715Y-100578571D01*
X175207143Y-100578571D02*
X175207143Y-99078571D01*
X175350000Y-99292857D01*
X175492858Y-99435714D01*
X175635715Y-99507143D01*
X174492858Y-100721429D02*
X173350001Y-100721429D01*
X172207144Y-100578571D02*
X173064287Y-100578571D01*
X172635715Y-100578571D02*
X172635715Y-99078571D01*
X172778572Y-99292857D01*
X172921430Y-99435714D01*
X173064287Y-99507143D01*
X170921430Y-99078571D02*
X171207144Y-99078571D01*
X171350001Y-99150000D01*
X171421430Y-99221429D01*
X171564287Y-99435714D01*
X171635716Y-99721429D01*
X171635716Y-100292857D01*
X171564287Y-100435714D01*
X171492859Y-100507143D01*
X171350001Y-100578571D01*
X171064287Y-100578571D01*
X170921430Y-100507143D01*
X170850001Y-100435714D01*
X170778573Y-100292857D01*
X170778573Y-99935714D01*
X170850001Y-99792857D01*
X170921430Y-99721429D01*
X171064287Y-99650000D01*
X171350001Y-99650000D01*
X171492859Y-99721429D01*
X171564287Y-99792857D01*
X171635716Y-99935714D01*
X195635714Y-102835714D02*
X195707143Y-102907143D01*
X195921429Y-102978571D01*
X196064286Y-102978571D01*
X196278571Y-102907143D01*
X196421429Y-102764286D01*
X196492857Y-102621429D01*
X196564286Y-102335714D01*
X196564286Y-102121429D01*
X196492857Y-101835714D01*
X196421429Y-101692857D01*
X196278571Y-101550000D01*
X196064286Y-101478571D01*
X195921429Y-101478571D01*
X195707143Y-101550000D01*
X195635714Y-101621429D01*
X194992857Y-102978571D02*
X194992857Y-101478571D01*
X194350000Y-102978571D02*
X194350000Y-102192857D01*
X194421429Y-102050000D01*
X194564286Y-101978571D01*
X194778571Y-101978571D01*
X194921429Y-102050000D01*
X194992857Y-102121429D01*
X192992857Y-102978571D02*
X192992857Y-102192857D01*
X193064286Y-102050000D01*
X193207143Y-101978571D01*
X193492857Y-101978571D01*
X193635714Y-102050000D01*
X192992857Y-102907143D02*
X193135714Y-102978571D01*
X193492857Y-102978571D01*
X193635714Y-102907143D01*
X193707143Y-102764286D01*
X193707143Y-102621429D01*
X193635714Y-102478571D01*
X193492857Y-102407143D01*
X193135714Y-102407143D01*
X192992857Y-102335714D01*
X192278571Y-101978571D02*
X192278571Y-102978571D01*
X192278571Y-102121429D02*
X192207143Y-102050000D01*
X192064285Y-101978571D01*
X191850000Y-101978571D01*
X191707143Y-102050000D01*
X191635714Y-102192857D01*
X191635714Y-102978571D01*
X190921428Y-101978571D02*
X190921428Y-102978571D01*
X190921428Y-102121429D02*
X190850000Y-102050000D01*
X190707142Y-101978571D01*
X190492857Y-101978571D01*
X190350000Y-102050000D01*
X190278571Y-102192857D01*
X190278571Y-102978571D01*
X188992857Y-102907143D02*
X189135714Y-102978571D01*
X189421428Y-102978571D01*
X189564285Y-102907143D01*
X189635714Y-102764286D01*
X189635714Y-102192857D01*
X189564285Y-102050000D01*
X189421428Y-101978571D01*
X189135714Y-101978571D01*
X188992857Y-102050000D01*
X188921428Y-102192857D01*
X188921428Y-102335714D01*
X189635714Y-102478571D01*
X188064285Y-102978571D02*
X188207143Y-102907143D01*
X188278571Y-102764286D01*
X188278571Y-101478571D01*
X185564286Y-102978571D02*
X186421429Y-102978571D01*
X185992857Y-102978571D02*
X185992857Y-101478571D01*
X186135714Y-101692857D01*
X186278572Y-101835714D01*
X186421429Y-101907143D01*
X184207143Y-101478571D02*
X184921429Y-101478571D01*
X184992858Y-102192857D01*
X184921429Y-102121429D01*
X184778572Y-102050000D01*
X184421429Y-102050000D01*
X184278572Y-102121429D01*
X184207143Y-102192857D01*
X184135715Y-102335714D01*
X184135715Y-102692857D01*
X184207143Y-102835714D01*
X184278572Y-102907143D01*
X184421429Y-102978571D01*
X184778572Y-102978571D01*
X184921429Y-102907143D01*
X184992858Y-102835714D01*
X182350001Y-102407143D02*
X181207144Y-102407143D01*
X179350001Y-102978571D02*
X179350001Y-101478571D01*
X178778573Y-101478571D01*
X178635715Y-101550000D01*
X178564287Y-101621429D01*
X178492858Y-101764286D01*
X178492858Y-101978571D01*
X178564287Y-102121429D01*
X178635715Y-102192857D01*
X178778573Y-102264286D01*
X179350001Y-102264286D01*
X177850001Y-102978571D02*
X177850001Y-101478571D01*
X176850001Y-101478571D02*
X176564287Y-101478571D01*
X176421429Y-101550000D01*
X176278572Y-101692857D01*
X176207144Y-101978571D01*
X176207144Y-102478571D01*
X176278572Y-102764286D01*
X176421429Y-102907143D01*
X176564287Y-102978571D01*
X176850001Y-102978571D01*
X176992858Y-102907143D01*
X177135715Y-102764286D01*
X177207144Y-102478571D01*
X177207144Y-101978571D01*
X177135715Y-101692857D01*
X176992858Y-101550000D01*
X176850001Y-101478571D01*
X174778572Y-102978571D02*
X175635715Y-102978571D01*
X175207143Y-102978571D02*
X175207143Y-101478571D01*
X175350000Y-101692857D01*
X175492858Y-101835714D01*
X175635715Y-101907143D01*
X174492858Y-103121429D02*
X173350001Y-103121429D01*
X172207144Y-102978571D02*
X173064287Y-102978571D01*
X172635715Y-102978571D02*
X172635715Y-101478571D01*
X172778572Y-101692857D01*
X172921430Y-101835714D01*
X173064287Y-101907143D01*
X171635716Y-101621429D02*
X171564287Y-101550000D01*
X171421430Y-101478571D01*
X171064287Y-101478571D01*
X170921430Y-101550000D01*
X170850001Y-101621429D01*
X170778573Y-101764286D01*
X170778573Y-101907143D01*
X170850001Y-102121429D01*
X171707144Y-102978571D01*
X170778573Y-102978571D01*
X195635714Y-105235714D02*
X195707143Y-105307143D01*
X195921429Y-105378571D01*
X196064286Y-105378571D01*
X196278571Y-105307143D01*
X196421429Y-105164286D01*
X196492857Y-105021429D01*
X196564286Y-104735714D01*
X196564286Y-104521429D01*
X196492857Y-104235714D01*
X196421429Y-104092857D01*
X196278571Y-103950000D01*
X196064286Y-103878571D01*
X195921429Y-103878571D01*
X195707143Y-103950000D01*
X195635714Y-104021429D01*
X194992857Y-105378571D02*
X194992857Y-103878571D01*
X194350000Y-105378571D02*
X194350000Y-104592857D01*
X194421429Y-104450000D01*
X194564286Y-104378571D01*
X194778571Y-104378571D01*
X194921429Y-104450000D01*
X194992857Y-104521429D01*
X192992857Y-105378571D02*
X192992857Y-104592857D01*
X193064286Y-104450000D01*
X193207143Y-104378571D01*
X193492857Y-104378571D01*
X193635714Y-104450000D01*
X192992857Y-105307143D02*
X193135714Y-105378571D01*
X193492857Y-105378571D01*
X193635714Y-105307143D01*
X193707143Y-105164286D01*
X193707143Y-105021429D01*
X193635714Y-104878571D01*
X193492857Y-104807143D01*
X193135714Y-104807143D01*
X192992857Y-104735714D01*
X192278571Y-104378571D02*
X192278571Y-105378571D01*
X192278571Y-104521429D02*
X192207143Y-104450000D01*
X192064285Y-104378571D01*
X191850000Y-104378571D01*
X191707143Y-104450000D01*
X191635714Y-104592857D01*
X191635714Y-105378571D01*
X190921428Y-104378571D02*
X190921428Y-105378571D01*
X190921428Y-104521429D02*
X190850000Y-104450000D01*
X190707142Y-104378571D01*
X190492857Y-104378571D01*
X190350000Y-104450000D01*
X190278571Y-104592857D01*
X190278571Y-105378571D01*
X188992857Y-105307143D02*
X189135714Y-105378571D01*
X189421428Y-105378571D01*
X189564285Y-105307143D01*
X189635714Y-105164286D01*
X189635714Y-104592857D01*
X189564285Y-104450000D01*
X189421428Y-104378571D01*
X189135714Y-104378571D01*
X188992857Y-104450000D01*
X188921428Y-104592857D01*
X188921428Y-104735714D01*
X189635714Y-104878571D01*
X188064285Y-105378571D02*
X188207143Y-105307143D01*
X188278571Y-105164286D01*
X188278571Y-103878571D01*
X185564286Y-105378571D02*
X186421429Y-105378571D01*
X185992857Y-105378571D02*
X185992857Y-103878571D01*
X186135714Y-104092857D01*
X186278572Y-104235714D01*
X186421429Y-104307143D01*
X184278572Y-103878571D02*
X184564286Y-103878571D01*
X184707143Y-103950000D01*
X184778572Y-104021429D01*
X184921429Y-104235714D01*
X184992858Y-104521429D01*
X184992858Y-105092857D01*
X184921429Y-105235714D01*
X184850001Y-105307143D01*
X184707143Y-105378571D01*
X184421429Y-105378571D01*
X184278572Y-105307143D01*
X184207143Y-105235714D01*
X184135715Y-105092857D01*
X184135715Y-104735714D01*
X184207143Y-104592857D01*
X184278572Y-104521429D01*
X184421429Y-104450000D01*
X184707143Y-104450000D01*
X184850001Y-104521429D01*
X184921429Y-104592857D01*
X184992858Y-104735714D01*
X182350001Y-104807143D02*
X181207144Y-104807143D01*
X179350001Y-105378571D02*
X179350001Y-103878571D01*
X178778573Y-103878571D01*
X178635715Y-103950000D01*
X178564287Y-104021429D01*
X178492858Y-104164286D01*
X178492858Y-104378571D01*
X178564287Y-104521429D01*
X178635715Y-104592857D01*
X178778573Y-104664286D01*
X179350001Y-104664286D01*
X177850001Y-105378571D02*
X177850001Y-103878571D01*
X176850001Y-103878571D02*
X176564287Y-103878571D01*
X176421429Y-103950000D01*
X176278572Y-104092857D01*
X176207144Y-104378571D01*
X176207144Y-104878571D01*
X176278572Y-105164286D01*
X176421429Y-105307143D01*
X176564287Y-105378571D01*
X176850001Y-105378571D01*
X176992858Y-105307143D01*
X177135715Y-105164286D01*
X177207144Y-104878571D01*
X177207144Y-104378571D01*
X177135715Y-104092857D01*
X176992858Y-103950000D01*
X176850001Y-103878571D01*
X174778572Y-105378571D02*
X175635715Y-105378571D01*
X175207143Y-105378571D02*
X175207143Y-103878571D01*
X175350000Y-104092857D01*
X175492858Y-104235714D01*
X175635715Y-104307143D01*
X174492858Y-105521429D02*
X173350001Y-105521429D01*
X172207144Y-105378571D02*
X173064287Y-105378571D01*
X172635715Y-105378571D02*
X172635715Y-103878571D01*
X172778572Y-104092857D01*
X172921430Y-104235714D01*
X173064287Y-104307143D01*
X170850001Y-103878571D02*
X171564287Y-103878571D01*
X171635716Y-104592857D01*
X171564287Y-104521429D01*
X171421430Y-104450000D01*
X171064287Y-104450000D01*
X170921430Y-104521429D01*
X170850001Y-104592857D01*
X170778573Y-104735714D01*
X170778573Y-105092857D01*
X170850001Y-105235714D01*
X170921430Y-105307143D01*
X171064287Y-105378571D01*
X171421430Y-105378571D01*
X171564287Y-105307143D01*
X171635716Y-105235714D01*
X195635714Y-107635714D02*
X195707143Y-107707143D01*
X195921429Y-107778571D01*
X196064286Y-107778571D01*
X196278571Y-107707143D01*
X196421429Y-107564286D01*
X196492857Y-107421429D01*
X196564286Y-107135714D01*
X196564286Y-106921429D01*
X196492857Y-106635714D01*
X196421429Y-106492857D01*
X196278571Y-106350000D01*
X196064286Y-106278571D01*
X195921429Y-106278571D01*
X195707143Y-106350000D01*
X195635714Y-106421429D01*
X194992857Y-107778571D02*
X194992857Y-106278571D01*
X194350000Y-107778571D02*
X194350000Y-106992857D01*
X194421429Y-106850000D01*
X194564286Y-106778571D01*
X194778571Y-106778571D01*
X194921429Y-106850000D01*
X194992857Y-106921429D01*
X192992857Y-107778571D02*
X192992857Y-106992857D01*
X193064286Y-106850000D01*
X193207143Y-106778571D01*
X193492857Y-106778571D01*
X193635714Y-106850000D01*
X192992857Y-107707143D02*
X193135714Y-107778571D01*
X193492857Y-107778571D01*
X193635714Y-107707143D01*
X193707143Y-107564286D01*
X193707143Y-107421429D01*
X193635714Y-107278571D01*
X193492857Y-107207143D01*
X193135714Y-107207143D01*
X192992857Y-107135714D01*
X192278571Y-106778571D02*
X192278571Y-107778571D01*
X192278571Y-106921429D02*
X192207143Y-106850000D01*
X192064285Y-106778571D01*
X191850000Y-106778571D01*
X191707143Y-106850000D01*
X191635714Y-106992857D01*
X191635714Y-107778571D01*
X190921428Y-106778571D02*
X190921428Y-107778571D01*
X190921428Y-106921429D02*
X190850000Y-106850000D01*
X190707142Y-106778571D01*
X190492857Y-106778571D01*
X190350000Y-106850000D01*
X190278571Y-106992857D01*
X190278571Y-107778571D01*
X188992857Y-107707143D02*
X189135714Y-107778571D01*
X189421428Y-107778571D01*
X189564285Y-107707143D01*
X189635714Y-107564286D01*
X189635714Y-106992857D01*
X189564285Y-106850000D01*
X189421428Y-106778571D01*
X189135714Y-106778571D01*
X188992857Y-106850000D01*
X188921428Y-106992857D01*
X188921428Y-107135714D01*
X189635714Y-107278571D01*
X188064285Y-107778571D02*
X188207143Y-107707143D01*
X188278571Y-107564286D01*
X188278571Y-106278571D01*
X185564286Y-107778571D02*
X186421429Y-107778571D01*
X185992857Y-107778571D02*
X185992857Y-106278571D01*
X186135714Y-106492857D01*
X186278572Y-106635714D01*
X186421429Y-106707143D01*
X185064286Y-106278571D02*
X184064286Y-106278571D01*
X184707143Y-107778571D01*
X182350001Y-107207143D02*
X181207144Y-107207143D01*
X179350001Y-107778571D02*
X179350001Y-106278571D01*
X178778573Y-106278571D01*
X178635715Y-106350000D01*
X178564287Y-106421429D01*
X178492858Y-106564286D01*
X178492858Y-106778571D01*
X178564287Y-106921429D01*
X178635715Y-106992857D01*
X178778573Y-107064286D01*
X179350001Y-107064286D01*
X177850001Y-107778571D02*
X177850001Y-106278571D01*
X176850001Y-106278571D02*
X176564287Y-106278571D01*
X176421429Y-106350000D01*
X176278572Y-106492857D01*
X176207144Y-106778571D01*
X176207144Y-107278571D01*
X176278572Y-107564286D01*
X176421429Y-107707143D01*
X176564287Y-107778571D01*
X176850001Y-107778571D01*
X176992858Y-107707143D01*
X177135715Y-107564286D01*
X177207144Y-107278571D01*
X177207144Y-106778571D01*
X177135715Y-106492857D01*
X176992858Y-106350000D01*
X176850001Y-106278571D01*
X174778572Y-107778571D02*
X175635715Y-107778571D01*
X175207143Y-107778571D02*
X175207143Y-106278571D01*
X175350000Y-106492857D01*
X175492858Y-106635714D01*
X175635715Y-106707143D01*
X174492858Y-107921429D02*
X173350001Y-107921429D01*
X172921430Y-107778571D02*
X172635715Y-107778571D01*
X172492858Y-107707143D01*
X172421430Y-107635714D01*
X172278572Y-107421429D01*
X172207144Y-107135714D01*
X172207144Y-106564286D01*
X172278572Y-106421429D01*
X172350001Y-106350000D01*
X172492858Y-106278571D01*
X172778572Y-106278571D01*
X172921430Y-106350000D01*
X172992858Y-106421429D01*
X173064287Y-106564286D01*
X173064287Y-106921429D01*
X172992858Y-107064286D01*
X172921430Y-107135714D01*
X172778572Y-107207143D01*
X172492858Y-107207143D01*
X172350001Y-107135714D01*
X172278572Y-107064286D01*
X172207144Y-106921429D01*
X195635714Y-110035714D02*
X195707143Y-110107143D01*
X195921429Y-110178571D01*
X196064286Y-110178571D01*
X196278571Y-110107143D01*
X196421429Y-109964286D01*
X196492857Y-109821429D01*
X196564286Y-109535714D01*
X196564286Y-109321429D01*
X196492857Y-109035714D01*
X196421429Y-108892857D01*
X196278571Y-108750000D01*
X196064286Y-108678571D01*
X195921429Y-108678571D01*
X195707143Y-108750000D01*
X195635714Y-108821429D01*
X194992857Y-110178571D02*
X194992857Y-108678571D01*
X194350000Y-110178571D02*
X194350000Y-109392857D01*
X194421429Y-109250000D01*
X194564286Y-109178571D01*
X194778571Y-109178571D01*
X194921429Y-109250000D01*
X194992857Y-109321429D01*
X192992857Y-110178571D02*
X192992857Y-109392857D01*
X193064286Y-109250000D01*
X193207143Y-109178571D01*
X193492857Y-109178571D01*
X193635714Y-109250000D01*
X192992857Y-110107143D02*
X193135714Y-110178571D01*
X193492857Y-110178571D01*
X193635714Y-110107143D01*
X193707143Y-109964286D01*
X193707143Y-109821429D01*
X193635714Y-109678571D01*
X193492857Y-109607143D01*
X193135714Y-109607143D01*
X192992857Y-109535714D01*
X192278571Y-109178571D02*
X192278571Y-110178571D01*
X192278571Y-109321429D02*
X192207143Y-109250000D01*
X192064285Y-109178571D01*
X191850000Y-109178571D01*
X191707143Y-109250000D01*
X191635714Y-109392857D01*
X191635714Y-110178571D01*
X190921428Y-109178571D02*
X190921428Y-110178571D01*
X190921428Y-109321429D02*
X190850000Y-109250000D01*
X190707142Y-109178571D01*
X190492857Y-109178571D01*
X190350000Y-109250000D01*
X190278571Y-109392857D01*
X190278571Y-110178571D01*
X188992857Y-110107143D02*
X189135714Y-110178571D01*
X189421428Y-110178571D01*
X189564285Y-110107143D01*
X189635714Y-109964286D01*
X189635714Y-109392857D01*
X189564285Y-109250000D01*
X189421428Y-109178571D01*
X189135714Y-109178571D01*
X188992857Y-109250000D01*
X188921428Y-109392857D01*
X188921428Y-109535714D01*
X189635714Y-109678571D01*
X188064285Y-110178571D02*
X188207143Y-110107143D01*
X188278571Y-109964286D01*
X188278571Y-108678571D01*
X185564286Y-110178571D02*
X186421429Y-110178571D01*
X185992857Y-110178571D02*
X185992857Y-108678571D01*
X186135714Y-108892857D01*
X186278572Y-109035714D01*
X186421429Y-109107143D01*
X184707143Y-109321429D02*
X184850001Y-109250000D01*
X184921429Y-109178571D01*
X184992858Y-109035714D01*
X184992858Y-108964286D01*
X184921429Y-108821429D01*
X184850001Y-108750000D01*
X184707143Y-108678571D01*
X184421429Y-108678571D01*
X184278572Y-108750000D01*
X184207143Y-108821429D01*
X184135715Y-108964286D01*
X184135715Y-109035714D01*
X184207143Y-109178571D01*
X184278572Y-109250000D01*
X184421429Y-109321429D01*
X184707143Y-109321429D01*
X184850001Y-109392857D01*
X184921429Y-109464286D01*
X184992858Y-109607143D01*
X184992858Y-109892857D01*
X184921429Y-110035714D01*
X184850001Y-110107143D01*
X184707143Y-110178571D01*
X184421429Y-110178571D01*
X184278572Y-110107143D01*
X184207143Y-110035714D01*
X184135715Y-109892857D01*
X184135715Y-109607143D01*
X184207143Y-109464286D01*
X184278572Y-109392857D01*
X184421429Y-109321429D01*
X182350001Y-109607143D02*
X181207144Y-109607143D01*
X179350001Y-110178571D02*
X179350001Y-108678571D01*
X178778573Y-108678571D01*
X178635715Y-108750000D01*
X178564287Y-108821429D01*
X178492858Y-108964286D01*
X178492858Y-109178571D01*
X178564287Y-109321429D01*
X178635715Y-109392857D01*
X178778573Y-109464286D01*
X179350001Y-109464286D01*
X177850001Y-110178571D02*
X177850001Y-108678571D01*
X176850001Y-108678571D02*
X176564287Y-108678571D01*
X176421429Y-108750000D01*
X176278572Y-108892857D01*
X176207144Y-109178571D01*
X176207144Y-109678571D01*
X176278572Y-109964286D01*
X176421429Y-110107143D01*
X176564287Y-110178571D01*
X176850001Y-110178571D01*
X176992858Y-110107143D01*
X177135715Y-109964286D01*
X177207144Y-109678571D01*
X177207144Y-109178571D01*
X177135715Y-108892857D01*
X176992858Y-108750000D01*
X176850001Y-108678571D01*
X174778572Y-110178571D02*
X175635715Y-110178571D01*
X175207143Y-110178571D02*
X175207143Y-108678571D01*
X175350000Y-108892857D01*
X175492858Y-109035714D01*
X175635715Y-109107143D01*
X174492858Y-110321429D02*
X173350001Y-110321429D01*
X173064287Y-108821429D02*
X172992858Y-108750000D01*
X172850001Y-108678571D01*
X172492858Y-108678571D01*
X172350001Y-108750000D01*
X172278572Y-108821429D01*
X172207144Y-108964286D01*
X172207144Y-109107143D01*
X172278572Y-109321429D01*
X173135715Y-110178571D01*
X172207144Y-110178571D01*
X171635716Y-108821429D02*
X171564287Y-108750000D01*
X171421430Y-108678571D01*
X171064287Y-108678571D01*
X170921430Y-108750000D01*
X170850001Y-108821429D01*
X170778573Y-108964286D01*
X170778573Y-109107143D01*
X170850001Y-109321429D01*
X171707144Y-110178571D01*
X170778573Y-110178571D01*
X195635714Y-112435714D02*
X195707143Y-112507143D01*
X195921429Y-112578571D01*
X196064286Y-112578571D01*
X196278571Y-112507143D01*
X196421429Y-112364286D01*
X196492857Y-112221429D01*
X196564286Y-111935714D01*
X196564286Y-111721429D01*
X196492857Y-111435714D01*
X196421429Y-111292857D01*
X196278571Y-111150000D01*
X196064286Y-111078571D01*
X195921429Y-111078571D01*
X195707143Y-111150000D01*
X195635714Y-111221429D01*
X194992857Y-112578571D02*
X194992857Y-111078571D01*
X194350000Y-112578571D02*
X194350000Y-111792857D01*
X194421429Y-111650000D01*
X194564286Y-111578571D01*
X194778571Y-111578571D01*
X194921429Y-111650000D01*
X194992857Y-111721429D01*
X192992857Y-112578571D02*
X192992857Y-111792857D01*
X193064286Y-111650000D01*
X193207143Y-111578571D01*
X193492857Y-111578571D01*
X193635714Y-111650000D01*
X192992857Y-112507143D02*
X193135714Y-112578571D01*
X193492857Y-112578571D01*
X193635714Y-112507143D01*
X193707143Y-112364286D01*
X193707143Y-112221429D01*
X193635714Y-112078571D01*
X193492857Y-112007143D01*
X193135714Y-112007143D01*
X192992857Y-111935714D01*
X192278571Y-111578571D02*
X192278571Y-112578571D01*
X192278571Y-111721429D02*
X192207143Y-111650000D01*
X192064285Y-111578571D01*
X191850000Y-111578571D01*
X191707143Y-111650000D01*
X191635714Y-111792857D01*
X191635714Y-112578571D01*
X190921428Y-111578571D02*
X190921428Y-112578571D01*
X190921428Y-111721429D02*
X190850000Y-111650000D01*
X190707142Y-111578571D01*
X190492857Y-111578571D01*
X190350000Y-111650000D01*
X190278571Y-111792857D01*
X190278571Y-112578571D01*
X188992857Y-112507143D02*
X189135714Y-112578571D01*
X189421428Y-112578571D01*
X189564285Y-112507143D01*
X189635714Y-112364286D01*
X189635714Y-111792857D01*
X189564285Y-111650000D01*
X189421428Y-111578571D01*
X189135714Y-111578571D01*
X188992857Y-111650000D01*
X188921428Y-111792857D01*
X188921428Y-111935714D01*
X189635714Y-112078571D01*
X188064285Y-112578571D02*
X188207143Y-112507143D01*
X188278571Y-112364286D01*
X188278571Y-111078571D01*
X185564286Y-112578571D02*
X186421429Y-112578571D01*
X185992857Y-112578571D02*
X185992857Y-111078571D01*
X186135714Y-111292857D01*
X186278572Y-111435714D01*
X186421429Y-111507143D01*
X184850001Y-112578571D02*
X184564286Y-112578571D01*
X184421429Y-112507143D01*
X184350001Y-112435714D01*
X184207143Y-112221429D01*
X184135715Y-111935714D01*
X184135715Y-111364286D01*
X184207143Y-111221429D01*
X184278572Y-111150000D01*
X184421429Y-111078571D01*
X184707143Y-111078571D01*
X184850001Y-111150000D01*
X184921429Y-111221429D01*
X184992858Y-111364286D01*
X184992858Y-111721429D01*
X184921429Y-111864286D01*
X184850001Y-111935714D01*
X184707143Y-112007143D01*
X184421429Y-112007143D01*
X184278572Y-111935714D01*
X184207143Y-111864286D01*
X184135715Y-111721429D01*
X182350001Y-112007143D02*
X181207144Y-112007143D01*
X179350001Y-112578571D02*
X179350001Y-111078571D01*
X178778573Y-111078571D01*
X178635715Y-111150000D01*
X178564287Y-111221429D01*
X178492858Y-111364286D01*
X178492858Y-111578571D01*
X178564287Y-111721429D01*
X178635715Y-111792857D01*
X178778573Y-111864286D01*
X179350001Y-111864286D01*
X177850001Y-112578571D02*
X177850001Y-111078571D01*
X176850001Y-111078571D02*
X176564287Y-111078571D01*
X176421429Y-111150000D01*
X176278572Y-111292857D01*
X176207144Y-111578571D01*
X176207144Y-112078571D01*
X176278572Y-112364286D01*
X176421429Y-112507143D01*
X176564287Y-112578571D01*
X176850001Y-112578571D01*
X176992858Y-112507143D01*
X177135715Y-112364286D01*
X177207144Y-112078571D01*
X177207144Y-111578571D01*
X177135715Y-111292857D01*
X176992858Y-111150000D01*
X176850001Y-111078571D01*
X174778572Y-112578571D02*
X175635715Y-112578571D01*
X175207143Y-112578571D02*
X175207143Y-111078571D01*
X175350000Y-111292857D01*
X175492858Y-111435714D01*
X175635715Y-111507143D01*
X174492858Y-112721429D02*
X173350001Y-112721429D01*
X172207144Y-112578571D02*
X173064287Y-112578571D01*
X172635715Y-112578571D02*
X172635715Y-111078571D01*
X172778572Y-111292857D01*
X172921430Y-111435714D01*
X173064287Y-111507143D01*
X170921430Y-111578571D02*
X170921430Y-112578571D01*
X171278573Y-111007143D02*
X171635716Y-112078571D01*
X170707144Y-112078571D01*
X195635714Y-114835714D02*
X195707143Y-114907143D01*
X195921429Y-114978571D01*
X196064286Y-114978571D01*
X196278571Y-114907143D01*
X196421429Y-114764286D01*
X196492857Y-114621429D01*
X196564286Y-114335714D01*
X196564286Y-114121429D01*
X196492857Y-113835714D01*
X196421429Y-113692857D01*
X196278571Y-113550000D01*
X196064286Y-113478571D01*
X195921429Y-113478571D01*
X195707143Y-113550000D01*
X195635714Y-113621429D01*
X194992857Y-114978571D02*
X194992857Y-113478571D01*
X194350000Y-114978571D02*
X194350000Y-114192857D01*
X194421429Y-114050000D01*
X194564286Y-113978571D01*
X194778571Y-113978571D01*
X194921429Y-114050000D01*
X194992857Y-114121429D01*
X192992857Y-114978571D02*
X192992857Y-114192857D01*
X193064286Y-114050000D01*
X193207143Y-113978571D01*
X193492857Y-113978571D01*
X193635714Y-114050000D01*
X192992857Y-114907143D02*
X193135714Y-114978571D01*
X193492857Y-114978571D01*
X193635714Y-114907143D01*
X193707143Y-114764286D01*
X193707143Y-114621429D01*
X193635714Y-114478571D01*
X193492857Y-114407143D01*
X193135714Y-114407143D01*
X192992857Y-114335714D01*
X192278571Y-113978571D02*
X192278571Y-114978571D01*
X192278571Y-114121429D02*
X192207143Y-114050000D01*
X192064285Y-113978571D01*
X191850000Y-113978571D01*
X191707143Y-114050000D01*
X191635714Y-114192857D01*
X191635714Y-114978571D01*
X190921428Y-113978571D02*
X190921428Y-114978571D01*
X190921428Y-114121429D02*
X190850000Y-114050000D01*
X190707142Y-113978571D01*
X190492857Y-113978571D01*
X190350000Y-114050000D01*
X190278571Y-114192857D01*
X190278571Y-114978571D01*
X188992857Y-114907143D02*
X189135714Y-114978571D01*
X189421428Y-114978571D01*
X189564285Y-114907143D01*
X189635714Y-114764286D01*
X189635714Y-114192857D01*
X189564285Y-114050000D01*
X189421428Y-113978571D01*
X189135714Y-113978571D01*
X188992857Y-114050000D01*
X188921428Y-114192857D01*
X188921428Y-114335714D01*
X189635714Y-114478571D01*
X188064285Y-114978571D02*
X188207143Y-114907143D01*
X188278571Y-114764286D01*
X188278571Y-113478571D01*
X186421429Y-113621429D02*
X186350000Y-113550000D01*
X186207143Y-113478571D01*
X185850000Y-113478571D01*
X185707143Y-113550000D01*
X185635714Y-113621429D01*
X185564286Y-113764286D01*
X185564286Y-113907143D01*
X185635714Y-114121429D01*
X186492857Y-114978571D01*
X185564286Y-114978571D01*
X184635715Y-113478571D02*
X184492858Y-113478571D01*
X184350001Y-113550000D01*
X184278572Y-113621429D01*
X184207143Y-113764286D01*
X184135715Y-114050000D01*
X184135715Y-114407143D01*
X184207143Y-114692857D01*
X184278572Y-114835714D01*
X184350001Y-114907143D01*
X184492858Y-114978571D01*
X184635715Y-114978571D01*
X184778572Y-114907143D01*
X184850001Y-114835714D01*
X184921429Y-114692857D01*
X184992858Y-114407143D01*
X184992858Y-114050000D01*
X184921429Y-113764286D01*
X184850001Y-113621429D01*
X184778572Y-113550000D01*
X184635715Y-113478571D01*
X182350001Y-114407143D02*
X181207144Y-114407143D01*
X179350001Y-114978571D02*
X179350001Y-113478571D01*
X178778573Y-113478571D01*
X178635715Y-113550000D01*
X178564287Y-113621429D01*
X178492858Y-113764286D01*
X178492858Y-113978571D01*
X178564287Y-114121429D01*
X178635715Y-114192857D01*
X178778573Y-114264286D01*
X179350001Y-114264286D01*
X177850001Y-114978571D02*
X177850001Y-113478571D01*
X176850001Y-113478571D02*
X176564287Y-113478571D01*
X176421429Y-113550000D01*
X176278572Y-113692857D01*
X176207144Y-113978571D01*
X176207144Y-114478571D01*
X176278572Y-114764286D01*
X176421429Y-114907143D01*
X176564287Y-114978571D01*
X176850001Y-114978571D01*
X176992858Y-114907143D01*
X177135715Y-114764286D01*
X177207144Y-114478571D01*
X177207144Y-113978571D01*
X177135715Y-113692857D01*
X176992858Y-113550000D01*
X176850001Y-113478571D01*
X174778572Y-114978571D02*
X175635715Y-114978571D01*
X175207143Y-114978571D02*
X175207143Y-113478571D01*
X175350000Y-113692857D01*
X175492858Y-113835714D01*
X175635715Y-113907143D01*
X174492858Y-115121429D02*
X173350001Y-115121429D01*
X172207144Y-114978571D02*
X173064287Y-114978571D01*
X172635715Y-114978571D02*
X172635715Y-113478571D01*
X172778572Y-113692857D01*
X172921430Y-113835714D01*
X173064287Y-113907143D01*
X171707144Y-113478571D02*
X170778573Y-113478571D01*
X171278573Y-114050000D01*
X171064287Y-114050000D01*
X170921430Y-114121429D01*
X170850001Y-114192857D01*
X170778573Y-114335714D01*
X170778573Y-114692857D01*
X170850001Y-114835714D01*
X170921430Y-114907143D01*
X171064287Y-114978571D01*
X171492859Y-114978571D01*
X171635716Y-114907143D01*
X171707144Y-114835714D01*
X195635714Y-117235714D02*
X195707143Y-117307143D01*
X195921429Y-117378571D01*
X196064286Y-117378571D01*
X196278571Y-117307143D01*
X196421429Y-117164286D01*
X196492857Y-117021429D01*
X196564286Y-116735714D01*
X196564286Y-116521429D01*
X196492857Y-116235714D01*
X196421429Y-116092857D01*
X196278571Y-115950000D01*
X196064286Y-115878571D01*
X195921429Y-115878571D01*
X195707143Y-115950000D01*
X195635714Y-116021429D01*
X194992857Y-117378571D02*
X194992857Y-115878571D01*
X194350000Y-117378571D02*
X194350000Y-116592857D01*
X194421429Y-116450000D01*
X194564286Y-116378571D01*
X194778571Y-116378571D01*
X194921429Y-116450000D01*
X194992857Y-116521429D01*
X192992857Y-117378571D02*
X192992857Y-116592857D01*
X193064286Y-116450000D01*
X193207143Y-116378571D01*
X193492857Y-116378571D01*
X193635714Y-116450000D01*
X192992857Y-117307143D02*
X193135714Y-117378571D01*
X193492857Y-117378571D01*
X193635714Y-117307143D01*
X193707143Y-117164286D01*
X193707143Y-117021429D01*
X193635714Y-116878571D01*
X193492857Y-116807143D01*
X193135714Y-116807143D01*
X192992857Y-116735714D01*
X192278571Y-116378571D02*
X192278571Y-117378571D01*
X192278571Y-116521429D02*
X192207143Y-116450000D01*
X192064285Y-116378571D01*
X191850000Y-116378571D01*
X191707143Y-116450000D01*
X191635714Y-116592857D01*
X191635714Y-117378571D01*
X190921428Y-116378571D02*
X190921428Y-117378571D01*
X190921428Y-116521429D02*
X190850000Y-116450000D01*
X190707142Y-116378571D01*
X190492857Y-116378571D01*
X190350000Y-116450000D01*
X190278571Y-116592857D01*
X190278571Y-117378571D01*
X188992857Y-117307143D02*
X189135714Y-117378571D01*
X189421428Y-117378571D01*
X189564285Y-117307143D01*
X189635714Y-117164286D01*
X189635714Y-116592857D01*
X189564285Y-116450000D01*
X189421428Y-116378571D01*
X189135714Y-116378571D01*
X188992857Y-116450000D01*
X188921428Y-116592857D01*
X188921428Y-116735714D01*
X189635714Y-116878571D01*
X188064285Y-117378571D02*
X188207143Y-117307143D01*
X188278571Y-117164286D01*
X188278571Y-115878571D01*
X186421429Y-116021429D02*
X186350000Y-115950000D01*
X186207143Y-115878571D01*
X185850000Y-115878571D01*
X185707143Y-115950000D01*
X185635714Y-116021429D01*
X185564286Y-116164286D01*
X185564286Y-116307143D01*
X185635714Y-116521429D01*
X186492857Y-117378571D01*
X185564286Y-117378571D01*
X184135715Y-117378571D02*
X184992858Y-117378571D01*
X184564286Y-117378571D02*
X184564286Y-115878571D01*
X184707143Y-116092857D01*
X184850001Y-116235714D01*
X184992858Y-116307143D01*
X182350001Y-116807143D02*
X181207144Y-116807143D01*
X179350001Y-117378571D02*
X179350001Y-115878571D01*
X178778573Y-115878571D01*
X178635715Y-115950000D01*
X178564287Y-116021429D01*
X178492858Y-116164286D01*
X178492858Y-116378571D01*
X178564287Y-116521429D01*
X178635715Y-116592857D01*
X178778573Y-116664286D01*
X179350001Y-116664286D01*
X177850001Y-117378571D02*
X177850001Y-115878571D01*
X176850001Y-115878571D02*
X176564287Y-115878571D01*
X176421429Y-115950000D01*
X176278572Y-116092857D01*
X176207144Y-116378571D01*
X176207144Y-116878571D01*
X176278572Y-117164286D01*
X176421429Y-117307143D01*
X176564287Y-117378571D01*
X176850001Y-117378571D01*
X176992858Y-117307143D01*
X177135715Y-117164286D01*
X177207144Y-116878571D01*
X177207144Y-116378571D01*
X177135715Y-116092857D01*
X176992858Y-115950000D01*
X176850001Y-115878571D01*
X174778572Y-117378571D02*
X175635715Y-117378571D01*
X175207143Y-117378571D02*
X175207143Y-115878571D01*
X175350000Y-116092857D01*
X175492858Y-116235714D01*
X175635715Y-116307143D01*
X174492858Y-117521429D02*
X173350001Y-117521429D01*
X173135715Y-115878571D02*
X172207144Y-115878571D01*
X172707144Y-116450000D01*
X172492858Y-116450000D01*
X172350001Y-116521429D01*
X172278572Y-116592857D01*
X172207144Y-116735714D01*
X172207144Y-117092857D01*
X172278572Y-117235714D01*
X172350001Y-117307143D01*
X172492858Y-117378571D01*
X172921430Y-117378571D01*
X173064287Y-117307143D01*
X173135715Y-117235714D01*
X195635714Y-119635714D02*
X195707143Y-119707143D01*
X195921429Y-119778571D01*
X196064286Y-119778571D01*
X196278571Y-119707143D01*
X196421429Y-119564286D01*
X196492857Y-119421429D01*
X196564286Y-119135714D01*
X196564286Y-118921429D01*
X196492857Y-118635714D01*
X196421429Y-118492857D01*
X196278571Y-118350000D01*
X196064286Y-118278571D01*
X195921429Y-118278571D01*
X195707143Y-118350000D01*
X195635714Y-118421429D01*
X194992857Y-119778571D02*
X194992857Y-118278571D01*
X194350000Y-119778571D02*
X194350000Y-118992857D01*
X194421429Y-118850000D01*
X194564286Y-118778571D01*
X194778571Y-118778571D01*
X194921429Y-118850000D01*
X194992857Y-118921429D01*
X192992857Y-119778571D02*
X192992857Y-118992857D01*
X193064286Y-118850000D01*
X193207143Y-118778571D01*
X193492857Y-118778571D01*
X193635714Y-118850000D01*
X192992857Y-119707143D02*
X193135714Y-119778571D01*
X193492857Y-119778571D01*
X193635714Y-119707143D01*
X193707143Y-119564286D01*
X193707143Y-119421429D01*
X193635714Y-119278571D01*
X193492857Y-119207143D01*
X193135714Y-119207143D01*
X192992857Y-119135714D01*
X192278571Y-118778571D02*
X192278571Y-119778571D01*
X192278571Y-118921429D02*
X192207143Y-118850000D01*
X192064285Y-118778571D01*
X191850000Y-118778571D01*
X191707143Y-118850000D01*
X191635714Y-118992857D01*
X191635714Y-119778571D01*
X190921428Y-118778571D02*
X190921428Y-119778571D01*
X190921428Y-118921429D02*
X190850000Y-118850000D01*
X190707142Y-118778571D01*
X190492857Y-118778571D01*
X190350000Y-118850000D01*
X190278571Y-118992857D01*
X190278571Y-119778571D01*
X188992857Y-119707143D02*
X189135714Y-119778571D01*
X189421428Y-119778571D01*
X189564285Y-119707143D01*
X189635714Y-119564286D01*
X189635714Y-118992857D01*
X189564285Y-118850000D01*
X189421428Y-118778571D01*
X189135714Y-118778571D01*
X188992857Y-118850000D01*
X188921428Y-118992857D01*
X188921428Y-119135714D01*
X189635714Y-119278571D01*
X188064285Y-119778571D02*
X188207143Y-119707143D01*
X188278571Y-119564286D01*
X188278571Y-118278571D01*
X186421429Y-118421429D02*
X186350000Y-118350000D01*
X186207143Y-118278571D01*
X185850000Y-118278571D01*
X185707143Y-118350000D01*
X185635714Y-118421429D01*
X185564286Y-118564286D01*
X185564286Y-118707143D01*
X185635714Y-118921429D01*
X186492857Y-119778571D01*
X185564286Y-119778571D01*
X184992858Y-118421429D02*
X184921429Y-118350000D01*
X184778572Y-118278571D01*
X184421429Y-118278571D01*
X184278572Y-118350000D01*
X184207143Y-118421429D01*
X184135715Y-118564286D01*
X184135715Y-118707143D01*
X184207143Y-118921429D01*
X185064286Y-119778571D01*
X184135715Y-119778571D01*
X182350001Y-119207143D02*
X181207144Y-119207143D01*
X179350001Y-119778571D02*
X179350001Y-118278571D01*
X178778573Y-118278571D01*
X178635715Y-118350000D01*
X178564287Y-118421429D01*
X178492858Y-118564286D01*
X178492858Y-118778571D01*
X178564287Y-118921429D01*
X178635715Y-118992857D01*
X178778573Y-119064286D01*
X179350001Y-119064286D01*
X177850001Y-119778571D02*
X177850001Y-118278571D01*
X176850001Y-118278571D02*
X176564287Y-118278571D01*
X176421429Y-118350000D01*
X176278572Y-118492857D01*
X176207144Y-118778571D01*
X176207144Y-119278571D01*
X176278572Y-119564286D01*
X176421429Y-119707143D01*
X176564287Y-119778571D01*
X176850001Y-119778571D01*
X176992858Y-119707143D01*
X177135715Y-119564286D01*
X177207144Y-119278571D01*
X177207144Y-118778571D01*
X177135715Y-118492857D01*
X176992858Y-118350000D01*
X176850001Y-118278571D01*
X174778572Y-119778571D02*
X175635715Y-119778571D01*
X175207143Y-119778571D02*
X175207143Y-118278571D01*
X175350000Y-118492857D01*
X175492858Y-118635714D01*
X175635715Y-118707143D01*
X174135715Y-119207143D02*
X172992858Y-119207143D01*
X172421429Y-118278571D02*
X171492858Y-118278571D01*
X171992858Y-118850000D01*
X171778572Y-118850000D01*
X171635715Y-118921429D01*
X171564286Y-118992857D01*
X171492858Y-119135714D01*
X171492858Y-119492857D01*
X171564286Y-119635714D01*
X171635715Y-119707143D01*
X171778572Y-119778571D01*
X172207144Y-119778571D01*
X172350001Y-119707143D01*
X172421429Y-119635714D01*
X170564287Y-118278571D02*
X170421430Y-118278571D01*
X170278573Y-118350000D01*
X170207144Y-118421429D01*
X170135715Y-118564286D01*
X170064287Y-118850000D01*
X170064287Y-119207143D01*
X170135715Y-119492857D01*
X170207144Y-119635714D01*
X170278573Y-119707143D01*
X170421430Y-119778571D01*
X170564287Y-119778571D01*
X170707144Y-119707143D01*
X170778573Y-119635714D01*
X170850001Y-119492857D01*
X170921430Y-119207143D01*
X170921430Y-118850000D01*
X170850001Y-118564286D01*
X170778573Y-118421429D01*
X170707144Y-118350000D01*
X170564287Y-118278571D01*
X195635714Y-122035714D02*
X195707143Y-122107143D01*
X195921429Y-122178571D01*
X196064286Y-122178571D01*
X196278571Y-122107143D01*
X196421429Y-121964286D01*
X196492857Y-121821429D01*
X196564286Y-121535714D01*
X196564286Y-121321429D01*
X196492857Y-121035714D01*
X196421429Y-120892857D01*
X196278571Y-120750000D01*
X196064286Y-120678571D01*
X195921429Y-120678571D01*
X195707143Y-120750000D01*
X195635714Y-120821429D01*
X194992857Y-122178571D02*
X194992857Y-120678571D01*
X194350000Y-122178571D02*
X194350000Y-121392857D01*
X194421429Y-121250000D01*
X194564286Y-121178571D01*
X194778571Y-121178571D01*
X194921429Y-121250000D01*
X194992857Y-121321429D01*
X192992857Y-122178571D02*
X192992857Y-121392857D01*
X193064286Y-121250000D01*
X193207143Y-121178571D01*
X193492857Y-121178571D01*
X193635714Y-121250000D01*
X192992857Y-122107143D02*
X193135714Y-122178571D01*
X193492857Y-122178571D01*
X193635714Y-122107143D01*
X193707143Y-121964286D01*
X193707143Y-121821429D01*
X193635714Y-121678571D01*
X193492857Y-121607143D01*
X193135714Y-121607143D01*
X192992857Y-121535714D01*
X192278571Y-121178571D02*
X192278571Y-122178571D01*
X192278571Y-121321429D02*
X192207143Y-121250000D01*
X192064285Y-121178571D01*
X191850000Y-121178571D01*
X191707143Y-121250000D01*
X191635714Y-121392857D01*
X191635714Y-122178571D01*
X190921428Y-121178571D02*
X190921428Y-122178571D01*
X190921428Y-121321429D02*
X190850000Y-121250000D01*
X190707142Y-121178571D01*
X190492857Y-121178571D01*
X190350000Y-121250000D01*
X190278571Y-121392857D01*
X190278571Y-122178571D01*
X188992857Y-122107143D02*
X189135714Y-122178571D01*
X189421428Y-122178571D01*
X189564285Y-122107143D01*
X189635714Y-121964286D01*
X189635714Y-121392857D01*
X189564285Y-121250000D01*
X189421428Y-121178571D01*
X189135714Y-121178571D01*
X188992857Y-121250000D01*
X188921428Y-121392857D01*
X188921428Y-121535714D01*
X189635714Y-121678571D01*
X188064285Y-122178571D02*
X188207143Y-122107143D01*
X188278571Y-121964286D01*
X188278571Y-120678571D01*
X186421429Y-120821429D02*
X186350000Y-120750000D01*
X186207143Y-120678571D01*
X185850000Y-120678571D01*
X185707143Y-120750000D01*
X185635714Y-120821429D01*
X185564286Y-120964286D01*
X185564286Y-121107143D01*
X185635714Y-121321429D01*
X186492857Y-122178571D01*
X185564286Y-122178571D01*
X185064286Y-120678571D02*
X184135715Y-120678571D01*
X184635715Y-121250000D01*
X184421429Y-121250000D01*
X184278572Y-121321429D01*
X184207143Y-121392857D01*
X184135715Y-121535714D01*
X184135715Y-121892857D01*
X184207143Y-122035714D01*
X184278572Y-122107143D01*
X184421429Y-122178571D01*
X184850001Y-122178571D01*
X184992858Y-122107143D01*
X185064286Y-122035714D01*
X182350001Y-121607143D02*
X181207144Y-121607143D01*
X179350001Y-122178571D02*
X179350001Y-120678571D01*
X178778573Y-120678571D01*
X178635715Y-120750000D01*
X178564287Y-120821429D01*
X178492858Y-120964286D01*
X178492858Y-121178571D01*
X178564287Y-121321429D01*
X178635715Y-121392857D01*
X178778573Y-121464286D01*
X179350001Y-121464286D01*
X177850001Y-122178571D02*
X177850001Y-120678571D01*
X176850001Y-120678571D02*
X176564287Y-120678571D01*
X176421429Y-120750000D01*
X176278572Y-120892857D01*
X176207144Y-121178571D01*
X176207144Y-121678571D01*
X176278572Y-121964286D01*
X176421429Y-122107143D01*
X176564287Y-122178571D01*
X176850001Y-122178571D01*
X176992858Y-122107143D01*
X177135715Y-121964286D01*
X177207144Y-121678571D01*
X177207144Y-121178571D01*
X177135715Y-120892857D01*
X176992858Y-120750000D01*
X176850001Y-120678571D01*
X174778572Y-122178571D02*
X175635715Y-122178571D01*
X175207143Y-122178571D02*
X175207143Y-120678571D01*
X175350000Y-120892857D01*
X175492858Y-121035714D01*
X175635715Y-121107143D01*
X174492858Y-122321429D02*
X173350001Y-122321429D01*
X172207144Y-122178571D02*
X173064287Y-122178571D01*
X172635715Y-122178571D02*
X172635715Y-120678571D01*
X172778572Y-120892857D01*
X172921430Y-121035714D01*
X173064287Y-121107143D01*
X170778573Y-122178571D02*
X171635716Y-122178571D01*
X171207144Y-122178571D02*
X171207144Y-120678571D01*
X171350001Y-120892857D01*
X171492859Y-121035714D01*
X171635716Y-121107143D01*
X195635714Y-124435714D02*
X195707143Y-124507143D01*
X195921429Y-124578571D01*
X196064286Y-124578571D01*
X196278571Y-124507143D01*
X196421429Y-124364286D01*
X196492857Y-124221429D01*
X196564286Y-123935714D01*
X196564286Y-123721429D01*
X196492857Y-123435714D01*
X196421429Y-123292857D01*
X196278571Y-123150000D01*
X196064286Y-123078571D01*
X195921429Y-123078571D01*
X195707143Y-123150000D01*
X195635714Y-123221429D01*
X194992857Y-124578571D02*
X194992857Y-123078571D01*
X194350000Y-124578571D02*
X194350000Y-123792857D01*
X194421429Y-123650000D01*
X194564286Y-123578571D01*
X194778571Y-123578571D01*
X194921429Y-123650000D01*
X194992857Y-123721429D01*
X192992857Y-124578571D02*
X192992857Y-123792857D01*
X193064286Y-123650000D01*
X193207143Y-123578571D01*
X193492857Y-123578571D01*
X193635714Y-123650000D01*
X192992857Y-124507143D02*
X193135714Y-124578571D01*
X193492857Y-124578571D01*
X193635714Y-124507143D01*
X193707143Y-124364286D01*
X193707143Y-124221429D01*
X193635714Y-124078571D01*
X193492857Y-124007143D01*
X193135714Y-124007143D01*
X192992857Y-123935714D01*
X192278571Y-123578571D02*
X192278571Y-124578571D01*
X192278571Y-123721429D02*
X192207143Y-123650000D01*
X192064285Y-123578571D01*
X191850000Y-123578571D01*
X191707143Y-123650000D01*
X191635714Y-123792857D01*
X191635714Y-124578571D01*
X190921428Y-123578571D02*
X190921428Y-124578571D01*
X190921428Y-123721429D02*
X190850000Y-123650000D01*
X190707142Y-123578571D01*
X190492857Y-123578571D01*
X190350000Y-123650000D01*
X190278571Y-123792857D01*
X190278571Y-124578571D01*
X188992857Y-124507143D02*
X189135714Y-124578571D01*
X189421428Y-124578571D01*
X189564285Y-124507143D01*
X189635714Y-124364286D01*
X189635714Y-123792857D01*
X189564285Y-123650000D01*
X189421428Y-123578571D01*
X189135714Y-123578571D01*
X188992857Y-123650000D01*
X188921428Y-123792857D01*
X188921428Y-123935714D01*
X189635714Y-124078571D01*
X188064285Y-124578571D02*
X188207143Y-124507143D01*
X188278571Y-124364286D01*
X188278571Y-123078571D01*
X186421429Y-123221429D02*
X186350000Y-123150000D01*
X186207143Y-123078571D01*
X185850000Y-123078571D01*
X185707143Y-123150000D01*
X185635714Y-123221429D01*
X185564286Y-123364286D01*
X185564286Y-123507143D01*
X185635714Y-123721429D01*
X186492857Y-124578571D01*
X185564286Y-124578571D01*
X184278572Y-123578571D02*
X184278572Y-124578571D01*
X184635715Y-123007143D02*
X184992858Y-124078571D01*
X184064286Y-124078571D01*
X182350001Y-124007143D02*
X181207144Y-124007143D01*
X179350001Y-124578571D02*
X179350001Y-123078571D01*
X178778573Y-123078571D01*
X178635715Y-123150000D01*
X178564287Y-123221429D01*
X178492858Y-123364286D01*
X178492858Y-123578571D01*
X178564287Y-123721429D01*
X178635715Y-123792857D01*
X178778573Y-123864286D01*
X179350001Y-123864286D01*
X177850001Y-124578571D02*
X177850001Y-123078571D01*
X176850001Y-123078571D02*
X176564287Y-123078571D01*
X176421429Y-123150000D01*
X176278572Y-123292857D01*
X176207144Y-123578571D01*
X176207144Y-124078571D01*
X176278572Y-124364286D01*
X176421429Y-124507143D01*
X176564287Y-124578571D01*
X176850001Y-124578571D01*
X176992858Y-124507143D01*
X177135715Y-124364286D01*
X177207144Y-124078571D01*
X177207144Y-123578571D01*
X177135715Y-123292857D01*
X176992858Y-123150000D01*
X176850001Y-123078571D01*
X174778572Y-124578571D02*
X175635715Y-124578571D01*
X175207143Y-124578571D02*
X175207143Y-123078571D01*
X175350000Y-123292857D01*
X175492858Y-123435714D01*
X175635715Y-123507143D01*
X174492858Y-124721429D02*
X173350001Y-124721429D01*
X173064287Y-123221429D02*
X172992858Y-123150000D01*
X172850001Y-123078571D01*
X172492858Y-123078571D01*
X172350001Y-123150000D01*
X172278572Y-123221429D01*
X172207144Y-123364286D01*
X172207144Y-123507143D01*
X172278572Y-123721429D01*
X173135715Y-124578571D01*
X172207144Y-124578571D01*
X171492859Y-124578571D02*
X171207144Y-124578571D01*
X171064287Y-124507143D01*
X170992859Y-124435714D01*
X170850001Y-124221429D01*
X170778573Y-123935714D01*
X170778573Y-123364286D01*
X170850001Y-123221429D01*
X170921430Y-123150000D01*
X171064287Y-123078571D01*
X171350001Y-123078571D01*
X171492859Y-123150000D01*
X171564287Y-123221429D01*
X171635716Y-123364286D01*
X171635716Y-123721429D01*
X171564287Y-123864286D01*
X171492859Y-123935714D01*
X171350001Y-124007143D01*
X171064287Y-124007143D01*
X170921430Y-123935714D01*
X170850001Y-123864286D01*
X170778573Y-123721429D01*
X195635714Y-126835714D02*
X195707143Y-126907143D01*
X195921429Y-126978571D01*
X196064286Y-126978571D01*
X196278571Y-126907143D01*
X196421429Y-126764286D01*
X196492857Y-126621429D01*
X196564286Y-126335714D01*
X196564286Y-126121429D01*
X196492857Y-125835714D01*
X196421429Y-125692857D01*
X196278571Y-125550000D01*
X196064286Y-125478571D01*
X195921429Y-125478571D01*
X195707143Y-125550000D01*
X195635714Y-125621429D01*
X194992857Y-126978571D02*
X194992857Y-125478571D01*
X194350000Y-126978571D02*
X194350000Y-126192857D01*
X194421429Y-126050000D01*
X194564286Y-125978571D01*
X194778571Y-125978571D01*
X194921429Y-126050000D01*
X194992857Y-126121429D01*
X192992857Y-126978571D02*
X192992857Y-126192857D01*
X193064286Y-126050000D01*
X193207143Y-125978571D01*
X193492857Y-125978571D01*
X193635714Y-126050000D01*
X192992857Y-126907143D02*
X193135714Y-126978571D01*
X193492857Y-126978571D01*
X193635714Y-126907143D01*
X193707143Y-126764286D01*
X193707143Y-126621429D01*
X193635714Y-126478571D01*
X193492857Y-126407143D01*
X193135714Y-126407143D01*
X192992857Y-126335714D01*
X192278571Y-125978571D02*
X192278571Y-126978571D01*
X192278571Y-126121429D02*
X192207143Y-126050000D01*
X192064285Y-125978571D01*
X191850000Y-125978571D01*
X191707143Y-126050000D01*
X191635714Y-126192857D01*
X191635714Y-126978571D01*
X190921428Y-125978571D02*
X190921428Y-126978571D01*
X190921428Y-126121429D02*
X190850000Y-126050000D01*
X190707142Y-125978571D01*
X190492857Y-125978571D01*
X190350000Y-126050000D01*
X190278571Y-126192857D01*
X190278571Y-126978571D01*
X188992857Y-126907143D02*
X189135714Y-126978571D01*
X189421428Y-126978571D01*
X189564285Y-126907143D01*
X189635714Y-126764286D01*
X189635714Y-126192857D01*
X189564285Y-126050000D01*
X189421428Y-125978571D01*
X189135714Y-125978571D01*
X188992857Y-126050000D01*
X188921428Y-126192857D01*
X188921428Y-126335714D01*
X189635714Y-126478571D01*
X188064285Y-126978571D02*
X188207143Y-126907143D01*
X188278571Y-126764286D01*
X188278571Y-125478571D01*
X186421429Y-125621429D02*
X186350000Y-125550000D01*
X186207143Y-125478571D01*
X185850000Y-125478571D01*
X185707143Y-125550000D01*
X185635714Y-125621429D01*
X185564286Y-125764286D01*
X185564286Y-125907143D01*
X185635714Y-126121429D01*
X186492857Y-126978571D01*
X185564286Y-126978571D01*
X184207143Y-125478571D02*
X184921429Y-125478571D01*
X184992858Y-126192857D01*
X184921429Y-126121429D01*
X184778572Y-126050000D01*
X184421429Y-126050000D01*
X184278572Y-126121429D01*
X184207143Y-126192857D01*
X184135715Y-126335714D01*
X184135715Y-126692857D01*
X184207143Y-126835714D01*
X184278572Y-126907143D01*
X184421429Y-126978571D01*
X184778572Y-126978571D01*
X184921429Y-126907143D01*
X184992858Y-126835714D01*
X182350001Y-126407143D02*
X181207144Y-126407143D01*
X179350001Y-126978571D02*
X179350001Y-125478571D01*
X178778573Y-125478571D01*
X178635715Y-125550000D01*
X178564287Y-125621429D01*
X178492858Y-125764286D01*
X178492858Y-125978571D01*
X178564287Y-126121429D01*
X178635715Y-126192857D01*
X178778573Y-126264286D01*
X179350001Y-126264286D01*
X177850001Y-126978571D02*
X177850001Y-125478571D01*
X176850001Y-125478571D02*
X176564287Y-125478571D01*
X176421429Y-125550000D01*
X176278572Y-125692857D01*
X176207144Y-125978571D01*
X176207144Y-126478571D01*
X176278572Y-126764286D01*
X176421429Y-126907143D01*
X176564287Y-126978571D01*
X176850001Y-126978571D01*
X176992858Y-126907143D01*
X177135715Y-126764286D01*
X177207144Y-126478571D01*
X177207144Y-125978571D01*
X177135715Y-125692857D01*
X176992858Y-125550000D01*
X176850001Y-125478571D01*
X174778572Y-126978571D02*
X175635715Y-126978571D01*
X175207143Y-126978571D02*
X175207143Y-125478571D01*
X175350000Y-125692857D01*
X175492858Y-125835714D01*
X175635715Y-125907143D01*
X174492858Y-127121429D02*
X173350001Y-127121429D01*
X172778572Y-126121429D02*
X172921430Y-126050000D01*
X172992858Y-125978571D01*
X173064287Y-125835714D01*
X173064287Y-125764286D01*
X172992858Y-125621429D01*
X172921430Y-125550000D01*
X172778572Y-125478571D01*
X172492858Y-125478571D01*
X172350001Y-125550000D01*
X172278572Y-125621429D01*
X172207144Y-125764286D01*
X172207144Y-125835714D01*
X172278572Y-125978571D01*
X172350001Y-126050000D01*
X172492858Y-126121429D01*
X172778572Y-126121429D01*
X172921430Y-126192857D01*
X172992858Y-126264286D01*
X173064287Y-126407143D01*
X173064287Y-126692857D01*
X172992858Y-126835714D01*
X172921430Y-126907143D01*
X172778572Y-126978571D01*
X172492858Y-126978571D01*
X172350001Y-126907143D01*
X172278572Y-126835714D01*
X172207144Y-126692857D01*
X172207144Y-126407143D01*
X172278572Y-126264286D01*
X172350001Y-126192857D01*
X172492858Y-126121429D01*
X195635714Y-129235714D02*
X195707143Y-129307143D01*
X195921429Y-129378571D01*
X196064286Y-129378571D01*
X196278571Y-129307143D01*
X196421429Y-129164286D01*
X196492857Y-129021429D01*
X196564286Y-128735714D01*
X196564286Y-128521429D01*
X196492857Y-128235714D01*
X196421429Y-128092857D01*
X196278571Y-127950000D01*
X196064286Y-127878571D01*
X195921429Y-127878571D01*
X195707143Y-127950000D01*
X195635714Y-128021429D01*
X194992857Y-129378571D02*
X194992857Y-127878571D01*
X194350000Y-129378571D02*
X194350000Y-128592857D01*
X194421429Y-128450000D01*
X194564286Y-128378571D01*
X194778571Y-128378571D01*
X194921429Y-128450000D01*
X194992857Y-128521429D01*
X192992857Y-129378571D02*
X192992857Y-128592857D01*
X193064286Y-128450000D01*
X193207143Y-128378571D01*
X193492857Y-128378571D01*
X193635714Y-128450000D01*
X192992857Y-129307143D02*
X193135714Y-129378571D01*
X193492857Y-129378571D01*
X193635714Y-129307143D01*
X193707143Y-129164286D01*
X193707143Y-129021429D01*
X193635714Y-128878571D01*
X193492857Y-128807143D01*
X193135714Y-128807143D01*
X192992857Y-128735714D01*
X192278571Y-128378571D02*
X192278571Y-129378571D01*
X192278571Y-128521429D02*
X192207143Y-128450000D01*
X192064285Y-128378571D01*
X191850000Y-128378571D01*
X191707143Y-128450000D01*
X191635714Y-128592857D01*
X191635714Y-129378571D01*
X190921428Y-128378571D02*
X190921428Y-129378571D01*
X190921428Y-128521429D02*
X190850000Y-128450000D01*
X190707142Y-128378571D01*
X190492857Y-128378571D01*
X190350000Y-128450000D01*
X190278571Y-128592857D01*
X190278571Y-129378571D01*
X188992857Y-129307143D02*
X189135714Y-129378571D01*
X189421428Y-129378571D01*
X189564285Y-129307143D01*
X189635714Y-129164286D01*
X189635714Y-128592857D01*
X189564285Y-128450000D01*
X189421428Y-128378571D01*
X189135714Y-128378571D01*
X188992857Y-128450000D01*
X188921428Y-128592857D01*
X188921428Y-128735714D01*
X189635714Y-128878571D01*
X188064285Y-129378571D02*
X188207143Y-129307143D01*
X188278571Y-129164286D01*
X188278571Y-127878571D01*
X186421429Y-128021429D02*
X186350000Y-127950000D01*
X186207143Y-127878571D01*
X185850000Y-127878571D01*
X185707143Y-127950000D01*
X185635714Y-128021429D01*
X185564286Y-128164286D01*
X185564286Y-128307143D01*
X185635714Y-128521429D01*
X186492857Y-129378571D01*
X185564286Y-129378571D01*
X184278572Y-127878571D02*
X184564286Y-127878571D01*
X184707143Y-127950000D01*
X184778572Y-128021429D01*
X184921429Y-128235714D01*
X184992858Y-128521429D01*
X184992858Y-129092857D01*
X184921429Y-129235714D01*
X184850001Y-129307143D01*
X184707143Y-129378571D01*
X184421429Y-129378571D01*
X184278572Y-129307143D01*
X184207143Y-129235714D01*
X184135715Y-129092857D01*
X184135715Y-128735714D01*
X184207143Y-128592857D01*
X184278572Y-128521429D01*
X184421429Y-128450000D01*
X184707143Y-128450000D01*
X184850001Y-128521429D01*
X184921429Y-128592857D01*
X184992858Y-128735714D01*
X182350001Y-128807143D02*
X181207144Y-128807143D01*
X179350001Y-129378571D02*
X179350001Y-127878571D01*
X178778573Y-127878571D01*
X178635715Y-127950000D01*
X178564287Y-128021429D01*
X178492858Y-128164286D01*
X178492858Y-128378571D01*
X178564287Y-128521429D01*
X178635715Y-128592857D01*
X178778573Y-128664286D01*
X179350001Y-128664286D01*
X177850001Y-129378571D02*
X177850001Y-127878571D01*
X176850001Y-127878571D02*
X176564287Y-127878571D01*
X176421429Y-127950000D01*
X176278572Y-128092857D01*
X176207144Y-128378571D01*
X176207144Y-128878571D01*
X176278572Y-129164286D01*
X176421429Y-129307143D01*
X176564287Y-129378571D01*
X176850001Y-129378571D01*
X176992858Y-129307143D01*
X177135715Y-129164286D01*
X177207144Y-128878571D01*
X177207144Y-128378571D01*
X177135715Y-128092857D01*
X176992858Y-127950000D01*
X176850001Y-127878571D01*
X174778572Y-129378571D02*
X175635715Y-129378571D01*
X175207143Y-129378571D02*
X175207143Y-127878571D01*
X175350000Y-128092857D01*
X175492858Y-128235714D01*
X175635715Y-128307143D01*
X174492858Y-129521429D02*
X173350001Y-129521429D01*
X173064287Y-128021429D02*
X172992858Y-127950000D01*
X172850001Y-127878571D01*
X172492858Y-127878571D01*
X172350001Y-127950000D01*
X172278572Y-128021429D01*
X172207144Y-128164286D01*
X172207144Y-128307143D01*
X172278572Y-128521429D01*
X173135715Y-129378571D01*
X172207144Y-129378571D01*
X170778573Y-129378571D02*
X171635716Y-129378571D01*
X171207144Y-129378571D02*
X171207144Y-127878571D01*
X171350001Y-128092857D01*
X171492859Y-128235714D01*
X171635716Y-128307143D01*
X195635714Y-131635714D02*
X195707143Y-131707143D01*
X195921429Y-131778571D01*
X196064286Y-131778571D01*
X196278571Y-131707143D01*
X196421429Y-131564286D01*
X196492857Y-131421429D01*
X196564286Y-131135714D01*
X196564286Y-130921429D01*
X196492857Y-130635714D01*
X196421429Y-130492857D01*
X196278571Y-130350000D01*
X196064286Y-130278571D01*
X195921429Y-130278571D01*
X195707143Y-130350000D01*
X195635714Y-130421429D01*
X194992857Y-131778571D02*
X194992857Y-130278571D01*
X194350000Y-131778571D02*
X194350000Y-130992857D01*
X194421429Y-130850000D01*
X194564286Y-130778571D01*
X194778571Y-130778571D01*
X194921429Y-130850000D01*
X194992857Y-130921429D01*
X192992857Y-131778571D02*
X192992857Y-130992857D01*
X193064286Y-130850000D01*
X193207143Y-130778571D01*
X193492857Y-130778571D01*
X193635714Y-130850000D01*
X192992857Y-131707143D02*
X193135714Y-131778571D01*
X193492857Y-131778571D01*
X193635714Y-131707143D01*
X193707143Y-131564286D01*
X193707143Y-131421429D01*
X193635714Y-131278571D01*
X193492857Y-131207143D01*
X193135714Y-131207143D01*
X192992857Y-131135714D01*
X192278571Y-130778571D02*
X192278571Y-131778571D01*
X192278571Y-130921429D02*
X192207143Y-130850000D01*
X192064285Y-130778571D01*
X191850000Y-130778571D01*
X191707143Y-130850000D01*
X191635714Y-130992857D01*
X191635714Y-131778571D01*
X190921428Y-130778571D02*
X190921428Y-131778571D01*
X190921428Y-130921429D02*
X190850000Y-130850000D01*
X190707142Y-130778571D01*
X190492857Y-130778571D01*
X190350000Y-130850000D01*
X190278571Y-130992857D01*
X190278571Y-131778571D01*
X188992857Y-131707143D02*
X189135714Y-131778571D01*
X189421428Y-131778571D01*
X189564285Y-131707143D01*
X189635714Y-131564286D01*
X189635714Y-130992857D01*
X189564285Y-130850000D01*
X189421428Y-130778571D01*
X189135714Y-130778571D01*
X188992857Y-130850000D01*
X188921428Y-130992857D01*
X188921428Y-131135714D01*
X189635714Y-131278571D01*
X188064285Y-131778571D02*
X188207143Y-131707143D01*
X188278571Y-131564286D01*
X188278571Y-130278571D01*
X186421429Y-130421429D02*
X186350000Y-130350000D01*
X186207143Y-130278571D01*
X185850000Y-130278571D01*
X185707143Y-130350000D01*
X185635714Y-130421429D01*
X185564286Y-130564286D01*
X185564286Y-130707143D01*
X185635714Y-130921429D01*
X186492857Y-131778571D01*
X185564286Y-131778571D01*
X185064286Y-130278571D02*
X184064286Y-130278571D01*
X184707143Y-131778571D01*
X182350001Y-131207143D02*
X181207144Y-131207143D01*
X179350001Y-131778571D02*
X179350001Y-130278571D01*
X178778573Y-130278571D01*
X178635715Y-130350000D01*
X178564287Y-130421429D01*
X178492858Y-130564286D01*
X178492858Y-130778571D01*
X178564287Y-130921429D01*
X178635715Y-130992857D01*
X178778573Y-131064286D01*
X179350001Y-131064286D01*
X177850001Y-131778571D02*
X177850001Y-130278571D01*
X176850001Y-130278571D02*
X176564287Y-130278571D01*
X176421429Y-130350000D01*
X176278572Y-130492857D01*
X176207144Y-130778571D01*
X176207144Y-131278571D01*
X176278572Y-131564286D01*
X176421429Y-131707143D01*
X176564287Y-131778571D01*
X176850001Y-131778571D01*
X176992858Y-131707143D01*
X177135715Y-131564286D01*
X177207144Y-131278571D01*
X177207144Y-130778571D01*
X177135715Y-130492857D01*
X176992858Y-130350000D01*
X176850001Y-130278571D01*
X174778572Y-131778571D02*
X175635715Y-131778571D01*
X175207143Y-131778571D02*
X175207143Y-130278571D01*
X175350000Y-130492857D01*
X175492858Y-130635714D01*
X175635715Y-130707143D01*
X174492858Y-131921429D02*
X173350001Y-131921429D01*
X173064287Y-130421429D02*
X172992858Y-130350000D01*
X172850001Y-130278571D01*
X172492858Y-130278571D01*
X172350001Y-130350000D01*
X172278572Y-130421429D01*
X172207144Y-130564286D01*
X172207144Y-130707143D01*
X172278572Y-130921429D01*
X173135715Y-131778571D01*
X172207144Y-131778571D01*
X195635714Y-134035714D02*
X195707143Y-134107143D01*
X195921429Y-134178571D01*
X196064286Y-134178571D01*
X196278571Y-134107143D01*
X196421429Y-133964286D01*
X196492857Y-133821429D01*
X196564286Y-133535714D01*
X196564286Y-133321429D01*
X196492857Y-133035714D01*
X196421429Y-132892857D01*
X196278571Y-132750000D01*
X196064286Y-132678571D01*
X195921429Y-132678571D01*
X195707143Y-132750000D01*
X195635714Y-132821429D01*
X194992857Y-134178571D02*
X194992857Y-132678571D01*
X194350000Y-134178571D02*
X194350000Y-133392857D01*
X194421429Y-133250000D01*
X194564286Y-133178571D01*
X194778571Y-133178571D01*
X194921429Y-133250000D01*
X194992857Y-133321429D01*
X192992857Y-134178571D02*
X192992857Y-133392857D01*
X193064286Y-133250000D01*
X193207143Y-133178571D01*
X193492857Y-133178571D01*
X193635714Y-133250000D01*
X192992857Y-134107143D02*
X193135714Y-134178571D01*
X193492857Y-134178571D01*
X193635714Y-134107143D01*
X193707143Y-133964286D01*
X193707143Y-133821429D01*
X193635714Y-133678571D01*
X193492857Y-133607143D01*
X193135714Y-133607143D01*
X192992857Y-133535714D01*
X192278571Y-133178571D02*
X192278571Y-134178571D01*
X192278571Y-133321429D02*
X192207143Y-133250000D01*
X192064285Y-133178571D01*
X191850000Y-133178571D01*
X191707143Y-133250000D01*
X191635714Y-133392857D01*
X191635714Y-134178571D01*
X190921428Y-133178571D02*
X190921428Y-134178571D01*
X190921428Y-133321429D02*
X190850000Y-133250000D01*
X190707142Y-133178571D01*
X190492857Y-133178571D01*
X190350000Y-133250000D01*
X190278571Y-133392857D01*
X190278571Y-134178571D01*
X188992857Y-134107143D02*
X189135714Y-134178571D01*
X189421428Y-134178571D01*
X189564285Y-134107143D01*
X189635714Y-133964286D01*
X189635714Y-133392857D01*
X189564285Y-133250000D01*
X189421428Y-133178571D01*
X189135714Y-133178571D01*
X188992857Y-133250000D01*
X188921428Y-133392857D01*
X188921428Y-133535714D01*
X189635714Y-133678571D01*
X188064285Y-134178571D02*
X188207143Y-134107143D01*
X188278571Y-133964286D01*
X188278571Y-132678571D01*
X186421429Y-132821429D02*
X186350000Y-132750000D01*
X186207143Y-132678571D01*
X185850000Y-132678571D01*
X185707143Y-132750000D01*
X185635714Y-132821429D01*
X185564286Y-132964286D01*
X185564286Y-133107143D01*
X185635714Y-133321429D01*
X186492857Y-134178571D01*
X185564286Y-134178571D01*
X184707143Y-133321429D02*
X184850001Y-133250000D01*
X184921429Y-133178571D01*
X184992858Y-133035714D01*
X184992858Y-132964286D01*
X184921429Y-132821429D01*
X184850001Y-132750000D01*
X184707143Y-132678571D01*
X184421429Y-132678571D01*
X184278572Y-132750000D01*
X184207143Y-132821429D01*
X184135715Y-132964286D01*
X184135715Y-133035714D01*
X184207143Y-133178571D01*
X184278572Y-133250000D01*
X184421429Y-133321429D01*
X184707143Y-133321429D01*
X184850001Y-133392857D01*
X184921429Y-133464286D01*
X184992858Y-133607143D01*
X184992858Y-133892857D01*
X184921429Y-134035714D01*
X184850001Y-134107143D01*
X184707143Y-134178571D01*
X184421429Y-134178571D01*
X184278572Y-134107143D01*
X184207143Y-134035714D01*
X184135715Y-133892857D01*
X184135715Y-133607143D01*
X184207143Y-133464286D01*
X184278572Y-133392857D01*
X184421429Y-133321429D01*
X182350001Y-133607143D02*
X181207144Y-133607143D01*
X179350001Y-134178571D02*
X179350001Y-132678571D01*
X178778573Y-132678571D01*
X178635715Y-132750000D01*
X178564287Y-132821429D01*
X178492858Y-132964286D01*
X178492858Y-133178571D01*
X178564287Y-133321429D01*
X178635715Y-133392857D01*
X178778573Y-133464286D01*
X179350001Y-133464286D01*
X177850001Y-134178571D02*
X177850001Y-132678571D01*
X176850001Y-132678571D02*
X176564287Y-132678571D01*
X176421429Y-132750000D01*
X176278572Y-132892857D01*
X176207144Y-133178571D01*
X176207144Y-133678571D01*
X176278572Y-133964286D01*
X176421429Y-134107143D01*
X176564287Y-134178571D01*
X176850001Y-134178571D01*
X176992858Y-134107143D01*
X177135715Y-133964286D01*
X177207144Y-133678571D01*
X177207144Y-133178571D01*
X177135715Y-132892857D01*
X176992858Y-132750000D01*
X176850001Y-132678571D01*
X174778572Y-134178571D02*
X175635715Y-134178571D01*
X175207143Y-134178571D02*
X175207143Y-132678571D01*
X175350000Y-132892857D01*
X175492858Y-133035714D01*
X175635715Y-133107143D01*
X174492858Y-134321429D02*
X173350001Y-134321429D01*
X173135715Y-132678571D02*
X172207144Y-132678571D01*
X172707144Y-133250000D01*
X172492858Y-133250000D01*
X172350001Y-133321429D01*
X172278572Y-133392857D01*
X172207144Y-133535714D01*
X172207144Y-133892857D01*
X172278572Y-134035714D01*
X172350001Y-134107143D01*
X172492858Y-134178571D01*
X172921430Y-134178571D01*
X173064287Y-134107143D01*
X173135715Y-134035714D01*
X170778573Y-134178571D02*
X171635716Y-134178571D01*
X171207144Y-134178571D02*
X171207144Y-132678571D01*
X171350001Y-132892857D01*
X171492859Y-133035714D01*
X171635716Y-133107143D01*
X195635714Y-136435714D02*
X195707143Y-136507143D01*
X195921429Y-136578571D01*
X196064286Y-136578571D01*
X196278571Y-136507143D01*
X196421429Y-136364286D01*
X196492857Y-136221429D01*
X196564286Y-135935714D01*
X196564286Y-135721429D01*
X196492857Y-135435714D01*
X196421429Y-135292857D01*
X196278571Y-135150000D01*
X196064286Y-135078571D01*
X195921429Y-135078571D01*
X195707143Y-135150000D01*
X195635714Y-135221429D01*
X194992857Y-136578571D02*
X194992857Y-135078571D01*
X194350000Y-136578571D02*
X194350000Y-135792857D01*
X194421429Y-135650000D01*
X194564286Y-135578571D01*
X194778571Y-135578571D01*
X194921429Y-135650000D01*
X194992857Y-135721429D01*
X192992857Y-136578571D02*
X192992857Y-135792857D01*
X193064286Y-135650000D01*
X193207143Y-135578571D01*
X193492857Y-135578571D01*
X193635714Y-135650000D01*
X192992857Y-136507143D02*
X193135714Y-136578571D01*
X193492857Y-136578571D01*
X193635714Y-136507143D01*
X193707143Y-136364286D01*
X193707143Y-136221429D01*
X193635714Y-136078571D01*
X193492857Y-136007143D01*
X193135714Y-136007143D01*
X192992857Y-135935714D01*
X192278571Y-135578571D02*
X192278571Y-136578571D01*
X192278571Y-135721429D02*
X192207143Y-135650000D01*
X192064285Y-135578571D01*
X191850000Y-135578571D01*
X191707143Y-135650000D01*
X191635714Y-135792857D01*
X191635714Y-136578571D01*
X190921428Y-135578571D02*
X190921428Y-136578571D01*
X190921428Y-135721429D02*
X190850000Y-135650000D01*
X190707142Y-135578571D01*
X190492857Y-135578571D01*
X190350000Y-135650000D01*
X190278571Y-135792857D01*
X190278571Y-136578571D01*
X188992857Y-136507143D02*
X189135714Y-136578571D01*
X189421428Y-136578571D01*
X189564285Y-136507143D01*
X189635714Y-136364286D01*
X189635714Y-135792857D01*
X189564285Y-135650000D01*
X189421428Y-135578571D01*
X189135714Y-135578571D01*
X188992857Y-135650000D01*
X188921428Y-135792857D01*
X188921428Y-135935714D01*
X189635714Y-136078571D01*
X188064285Y-136578571D02*
X188207143Y-136507143D01*
X188278571Y-136364286D01*
X188278571Y-135078571D01*
X186421429Y-135221429D02*
X186350000Y-135150000D01*
X186207143Y-135078571D01*
X185850000Y-135078571D01*
X185707143Y-135150000D01*
X185635714Y-135221429D01*
X185564286Y-135364286D01*
X185564286Y-135507143D01*
X185635714Y-135721429D01*
X186492857Y-136578571D01*
X185564286Y-136578571D01*
X184850001Y-136578571D02*
X184564286Y-136578571D01*
X184421429Y-136507143D01*
X184350001Y-136435714D01*
X184207143Y-136221429D01*
X184135715Y-135935714D01*
X184135715Y-135364286D01*
X184207143Y-135221429D01*
X184278572Y-135150000D01*
X184421429Y-135078571D01*
X184707143Y-135078571D01*
X184850001Y-135150000D01*
X184921429Y-135221429D01*
X184992858Y-135364286D01*
X184992858Y-135721429D01*
X184921429Y-135864286D01*
X184850001Y-135935714D01*
X184707143Y-136007143D01*
X184421429Y-136007143D01*
X184278572Y-135935714D01*
X184207143Y-135864286D01*
X184135715Y-135721429D01*
X182350001Y-136007143D02*
X181207144Y-136007143D01*
X179350001Y-136578571D02*
X179350001Y-135078571D01*
X178778573Y-135078571D01*
X178635715Y-135150000D01*
X178564287Y-135221429D01*
X178492858Y-135364286D01*
X178492858Y-135578571D01*
X178564287Y-135721429D01*
X178635715Y-135792857D01*
X178778573Y-135864286D01*
X179350001Y-135864286D01*
X177850001Y-136578571D02*
X177850001Y-135078571D01*
X176850001Y-135078571D02*
X176564287Y-135078571D01*
X176421429Y-135150000D01*
X176278572Y-135292857D01*
X176207144Y-135578571D01*
X176207144Y-136078571D01*
X176278572Y-136364286D01*
X176421429Y-136507143D01*
X176564287Y-136578571D01*
X176850001Y-136578571D01*
X176992858Y-136507143D01*
X177135715Y-136364286D01*
X177207144Y-136078571D01*
X177207144Y-135578571D01*
X177135715Y-135292857D01*
X176992858Y-135150000D01*
X176850001Y-135078571D01*
X174778572Y-136578571D02*
X175635715Y-136578571D01*
X175207143Y-136578571D02*
X175207143Y-135078571D01*
X175350000Y-135292857D01*
X175492858Y-135435714D01*
X175635715Y-135507143D01*
X174492858Y-136721429D02*
X173350001Y-136721429D01*
X172278572Y-135078571D02*
X172992858Y-135078571D01*
X173064287Y-135792857D01*
X172992858Y-135721429D01*
X172850001Y-135650000D01*
X172492858Y-135650000D01*
X172350001Y-135721429D01*
X172278572Y-135792857D01*
X172207144Y-135935714D01*
X172207144Y-136292857D01*
X172278572Y-136435714D01*
X172350001Y-136507143D01*
X172492858Y-136578571D01*
X172850001Y-136578571D01*
X172992858Y-136507143D01*
X173064287Y-136435714D01*
X195635714Y-138835714D02*
X195707143Y-138907143D01*
X195921429Y-138978571D01*
X196064286Y-138978571D01*
X196278571Y-138907143D01*
X196421429Y-138764286D01*
X196492857Y-138621429D01*
X196564286Y-138335714D01*
X196564286Y-138121429D01*
X196492857Y-137835714D01*
X196421429Y-137692857D01*
X196278571Y-137550000D01*
X196064286Y-137478571D01*
X195921429Y-137478571D01*
X195707143Y-137550000D01*
X195635714Y-137621429D01*
X194992857Y-138978571D02*
X194992857Y-137478571D01*
X194350000Y-138978571D02*
X194350000Y-138192857D01*
X194421429Y-138050000D01*
X194564286Y-137978571D01*
X194778571Y-137978571D01*
X194921429Y-138050000D01*
X194992857Y-138121429D01*
X192992857Y-138978571D02*
X192992857Y-138192857D01*
X193064286Y-138050000D01*
X193207143Y-137978571D01*
X193492857Y-137978571D01*
X193635714Y-138050000D01*
X192992857Y-138907143D02*
X193135714Y-138978571D01*
X193492857Y-138978571D01*
X193635714Y-138907143D01*
X193707143Y-138764286D01*
X193707143Y-138621429D01*
X193635714Y-138478571D01*
X193492857Y-138407143D01*
X193135714Y-138407143D01*
X192992857Y-138335714D01*
X192278571Y-137978571D02*
X192278571Y-138978571D01*
X192278571Y-138121429D02*
X192207143Y-138050000D01*
X192064285Y-137978571D01*
X191850000Y-137978571D01*
X191707143Y-138050000D01*
X191635714Y-138192857D01*
X191635714Y-138978571D01*
X190921428Y-137978571D02*
X190921428Y-138978571D01*
X190921428Y-138121429D02*
X190850000Y-138050000D01*
X190707142Y-137978571D01*
X190492857Y-137978571D01*
X190350000Y-138050000D01*
X190278571Y-138192857D01*
X190278571Y-138978571D01*
X188992857Y-138907143D02*
X189135714Y-138978571D01*
X189421428Y-138978571D01*
X189564285Y-138907143D01*
X189635714Y-138764286D01*
X189635714Y-138192857D01*
X189564285Y-138050000D01*
X189421428Y-137978571D01*
X189135714Y-137978571D01*
X188992857Y-138050000D01*
X188921428Y-138192857D01*
X188921428Y-138335714D01*
X189635714Y-138478571D01*
X188064285Y-138978571D02*
X188207143Y-138907143D01*
X188278571Y-138764286D01*
X188278571Y-137478571D01*
X186492857Y-137478571D02*
X185564286Y-137478571D01*
X186064286Y-138050000D01*
X185850000Y-138050000D01*
X185707143Y-138121429D01*
X185635714Y-138192857D01*
X185564286Y-138335714D01*
X185564286Y-138692857D01*
X185635714Y-138835714D01*
X185707143Y-138907143D01*
X185850000Y-138978571D01*
X186278572Y-138978571D01*
X186421429Y-138907143D01*
X186492857Y-138835714D01*
X184635715Y-137478571D02*
X184492858Y-137478571D01*
X184350001Y-137550000D01*
X184278572Y-137621429D01*
X184207143Y-137764286D01*
X184135715Y-138050000D01*
X184135715Y-138407143D01*
X184207143Y-138692857D01*
X184278572Y-138835714D01*
X184350001Y-138907143D01*
X184492858Y-138978571D01*
X184635715Y-138978571D01*
X184778572Y-138907143D01*
X184850001Y-138835714D01*
X184921429Y-138692857D01*
X184992858Y-138407143D01*
X184992858Y-138050000D01*
X184921429Y-137764286D01*
X184850001Y-137621429D01*
X184778572Y-137550000D01*
X184635715Y-137478571D01*
X182350001Y-138407143D02*
X181207144Y-138407143D01*
X179350001Y-138978571D02*
X179350001Y-137478571D01*
X178778573Y-137478571D01*
X178635715Y-137550000D01*
X178564287Y-137621429D01*
X178492858Y-137764286D01*
X178492858Y-137978571D01*
X178564287Y-138121429D01*
X178635715Y-138192857D01*
X178778573Y-138264286D01*
X179350001Y-138264286D01*
X177850001Y-138978571D02*
X177850001Y-137478571D01*
X176850001Y-137478571D02*
X176564287Y-137478571D01*
X176421429Y-137550000D01*
X176278572Y-137692857D01*
X176207144Y-137978571D01*
X176207144Y-138478571D01*
X176278572Y-138764286D01*
X176421429Y-138907143D01*
X176564287Y-138978571D01*
X176850001Y-138978571D01*
X176992858Y-138907143D01*
X177135715Y-138764286D01*
X177207144Y-138478571D01*
X177207144Y-137978571D01*
X177135715Y-137692857D01*
X176992858Y-137550000D01*
X176850001Y-137478571D01*
X174778572Y-138978571D02*
X175635715Y-138978571D01*
X175207143Y-138978571D02*
X175207143Y-137478571D01*
X175350000Y-137692857D01*
X175492858Y-137835714D01*
X175635715Y-137907143D01*
X174492858Y-139121429D02*
X173350001Y-139121429D01*
X173064287Y-137621429D02*
X172992858Y-137550000D01*
X172850001Y-137478571D01*
X172492858Y-137478571D01*
X172350001Y-137550000D01*
X172278572Y-137621429D01*
X172207144Y-137764286D01*
X172207144Y-137907143D01*
X172278572Y-138121429D01*
X173135715Y-138978571D01*
X172207144Y-138978571D01*
X171350001Y-138121429D02*
X171492859Y-138050000D01*
X171564287Y-137978571D01*
X171635716Y-137835714D01*
X171635716Y-137764286D01*
X171564287Y-137621429D01*
X171492859Y-137550000D01*
X171350001Y-137478571D01*
X171064287Y-137478571D01*
X170921430Y-137550000D01*
X170850001Y-137621429D01*
X170778573Y-137764286D01*
X170778573Y-137835714D01*
X170850001Y-137978571D01*
X170921430Y-138050000D01*
X171064287Y-138121429D01*
X171350001Y-138121429D01*
X171492859Y-138192857D01*
X171564287Y-138264286D01*
X171635716Y-138407143D01*
X171635716Y-138692857D01*
X171564287Y-138835714D01*
X171492859Y-138907143D01*
X171350001Y-138978571D01*
X171064287Y-138978571D01*
X170921430Y-138907143D01*
X170850001Y-138835714D01*
X170778573Y-138692857D01*
X170778573Y-138407143D01*
X170850001Y-138264286D01*
X170921430Y-138192857D01*
X171064287Y-138121429D01*
X195635714Y-141235714D02*
X195707143Y-141307143D01*
X195921429Y-141378571D01*
X196064286Y-141378571D01*
X196278571Y-141307143D01*
X196421429Y-141164286D01*
X196492857Y-141021429D01*
X196564286Y-140735714D01*
X196564286Y-140521429D01*
X196492857Y-140235714D01*
X196421429Y-140092857D01*
X196278571Y-139950000D01*
X196064286Y-139878571D01*
X195921429Y-139878571D01*
X195707143Y-139950000D01*
X195635714Y-140021429D01*
X194992857Y-141378571D02*
X194992857Y-139878571D01*
X194350000Y-141378571D02*
X194350000Y-140592857D01*
X194421429Y-140450000D01*
X194564286Y-140378571D01*
X194778571Y-140378571D01*
X194921429Y-140450000D01*
X194992857Y-140521429D01*
X192992857Y-141378571D02*
X192992857Y-140592857D01*
X193064286Y-140450000D01*
X193207143Y-140378571D01*
X193492857Y-140378571D01*
X193635714Y-140450000D01*
X192992857Y-141307143D02*
X193135714Y-141378571D01*
X193492857Y-141378571D01*
X193635714Y-141307143D01*
X193707143Y-141164286D01*
X193707143Y-141021429D01*
X193635714Y-140878571D01*
X193492857Y-140807143D01*
X193135714Y-140807143D01*
X192992857Y-140735714D01*
X192278571Y-140378571D02*
X192278571Y-141378571D01*
X192278571Y-140521429D02*
X192207143Y-140450000D01*
X192064285Y-140378571D01*
X191850000Y-140378571D01*
X191707143Y-140450000D01*
X191635714Y-140592857D01*
X191635714Y-141378571D01*
X190921428Y-140378571D02*
X190921428Y-141378571D01*
X190921428Y-140521429D02*
X190850000Y-140450000D01*
X190707142Y-140378571D01*
X190492857Y-140378571D01*
X190350000Y-140450000D01*
X190278571Y-140592857D01*
X190278571Y-141378571D01*
X188992857Y-141307143D02*
X189135714Y-141378571D01*
X189421428Y-141378571D01*
X189564285Y-141307143D01*
X189635714Y-141164286D01*
X189635714Y-140592857D01*
X189564285Y-140450000D01*
X189421428Y-140378571D01*
X189135714Y-140378571D01*
X188992857Y-140450000D01*
X188921428Y-140592857D01*
X188921428Y-140735714D01*
X189635714Y-140878571D01*
X188064285Y-141378571D02*
X188207143Y-141307143D01*
X188278571Y-141164286D01*
X188278571Y-139878571D01*
X186492857Y-139878571D02*
X185564286Y-139878571D01*
X186064286Y-140450000D01*
X185850000Y-140450000D01*
X185707143Y-140521429D01*
X185635714Y-140592857D01*
X185564286Y-140735714D01*
X185564286Y-141092857D01*
X185635714Y-141235714D01*
X185707143Y-141307143D01*
X185850000Y-141378571D01*
X186278572Y-141378571D01*
X186421429Y-141307143D01*
X186492857Y-141235714D01*
X184135715Y-141378571D02*
X184992858Y-141378571D01*
X184564286Y-141378571D02*
X184564286Y-139878571D01*
X184707143Y-140092857D01*
X184850001Y-140235714D01*
X184992858Y-140307143D01*
X182350001Y-140807143D02*
X181207144Y-140807143D01*
X179350001Y-141378571D02*
X179350001Y-139878571D01*
X178778573Y-139878571D01*
X178635715Y-139950000D01*
X178564287Y-140021429D01*
X178492858Y-140164286D01*
X178492858Y-140378571D01*
X178564287Y-140521429D01*
X178635715Y-140592857D01*
X178778573Y-140664286D01*
X179350001Y-140664286D01*
X177850001Y-141378571D02*
X177850001Y-139878571D01*
X176850001Y-139878571D02*
X176564287Y-139878571D01*
X176421429Y-139950000D01*
X176278572Y-140092857D01*
X176207144Y-140378571D01*
X176207144Y-140878571D01*
X176278572Y-141164286D01*
X176421429Y-141307143D01*
X176564287Y-141378571D01*
X176850001Y-141378571D01*
X176992858Y-141307143D01*
X177135715Y-141164286D01*
X177207144Y-140878571D01*
X177207144Y-140378571D01*
X177135715Y-140092857D01*
X176992858Y-139950000D01*
X176850001Y-139878571D01*
X174778572Y-141378571D02*
X175635715Y-141378571D01*
X175207143Y-141378571D02*
X175207143Y-139878571D01*
X175350000Y-140092857D01*
X175492858Y-140235714D01*
X175635715Y-140307143D01*
X174492858Y-141521429D02*
X173350001Y-141521429D01*
X172207144Y-141378571D02*
X173064287Y-141378571D01*
X172635715Y-141378571D02*
X172635715Y-139878571D01*
X172778572Y-140092857D01*
X172921430Y-140235714D01*
X173064287Y-140307143D01*
X171350001Y-140521429D02*
X171492859Y-140450000D01*
X171564287Y-140378571D01*
X171635716Y-140235714D01*
X171635716Y-140164286D01*
X171564287Y-140021429D01*
X171492859Y-139950000D01*
X171350001Y-139878571D01*
X171064287Y-139878571D01*
X170921430Y-139950000D01*
X170850001Y-140021429D01*
X170778573Y-140164286D01*
X170778573Y-140235714D01*
X170850001Y-140378571D01*
X170921430Y-140450000D01*
X171064287Y-140521429D01*
X171350001Y-140521429D01*
X171492859Y-140592857D01*
X171564287Y-140664286D01*
X171635716Y-140807143D01*
X171635716Y-141092857D01*
X171564287Y-141235714D01*
X171492859Y-141307143D01*
X171350001Y-141378571D01*
X171064287Y-141378571D01*
X170921430Y-141307143D01*
X170850001Y-141235714D01*
X170778573Y-141092857D01*
X170778573Y-140807143D01*
X170850001Y-140664286D01*
X170921430Y-140592857D01*
X171064287Y-140521429D01*
X195635714Y-143635714D02*
X195707143Y-143707143D01*
X195921429Y-143778571D01*
X196064286Y-143778571D01*
X196278571Y-143707143D01*
X196421429Y-143564286D01*
X196492857Y-143421429D01*
X196564286Y-143135714D01*
X196564286Y-142921429D01*
X196492857Y-142635714D01*
X196421429Y-142492857D01*
X196278571Y-142350000D01*
X196064286Y-142278571D01*
X195921429Y-142278571D01*
X195707143Y-142350000D01*
X195635714Y-142421429D01*
X194992857Y-143778571D02*
X194992857Y-142278571D01*
X194350000Y-143778571D02*
X194350000Y-142992857D01*
X194421429Y-142850000D01*
X194564286Y-142778571D01*
X194778571Y-142778571D01*
X194921429Y-142850000D01*
X194992857Y-142921429D01*
X192992857Y-143778571D02*
X192992857Y-142992857D01*
X193064286Y-142850000D01*
X193207143Y-142778571D01*
X193492857Y-142778571D01*
X193635714Y-142850000D01*
X192992857Y-143707143D02*
X193135714Y-143778571D01*
X193492857Y-143778571D01*
X193635714Y-143707143D01*
X193707143Y-143564286D01*
X193707143Y-143421429D01*
X193635714Y-143278571D01*
X193492857Y-143207143D01*
X193135714Y-143207143D01*
X192992857Y-143135714D01*
X192278571Y-142778571D02*
X192278571Y-143778571D01*
X192278571Y-142921429D02*
X192207143Y-142850000D01*
X192064285Y-142778571D01*
X191850000Y-142778571D01*
X191707143Y-142850000D01*
X191635714Y-142992857D01*
X191635714Y-143778571D01*
X190921428Y-142778571D02*
X190921428Y-143778571D01*
X190921428Y-142921429D02*
X190850000Y-142850000D01*
X190707142Y-142778571D01*
X190492857Y-142778571D01*
X190350000Y-142850000D01*
X190278571Y-142992857D01*
X190278571Y-143778571D01*
X188992857Y-143707143D02*
X189135714Y-143778571D01*
X189421428Y-143778571D01*
X189564285Y-143707143D01*
X189635714Y-143564286D01*
X189635714Y-142992857D01*
X189564285Y-142850000D01*
X189421428Y-142778571D01*
X189135714Y-142778571D01*
X188992857Y-142850000D01*
X188921428Y-142992857D01*
X188921428Y-143135714D01*
X189635714Y-143278571D01*
X188064285Y-143778571D02*
X188207143Y-143707143D01*
X188278571Y-143564286D01*
X188278571Y-142278571D01*
X186492857Y-142278571D02*
X185564286Y-142278571D01*
X186064286Y-142850000D01*
X185850000Y-142850000D01*
X185707143Y-142921429D01*
X185635714Y-142992857D01*
X185564286Y-143135714D01*
X185564286Y-143492857D01*
X185635714Y-143635714D01*
X185707143Y-143707143D01*
X185850000Y-143778571D01*
X186278572Y-143778571D01*
X186421429Y-143707143D01*
X186492857Y-143635714D01*
X184992858Y-142421429D02*
X184921429Y-142350000D01*
X184778572Y-142278571D01*
X184421429Y-142278571D01*
X184278572Y-142350000D01*
X184207143Y-142421429D01*
X184135715Y-142564286D01*
X184135715Y-142707143D01*
X184207143Y-142921429D01*
X185064286Y-143778571D01*
X184135715Y-143778571D01*
X182350001Y-143207143D02*
X181207144Y-143207143D01*
X179350001Y-143778571D02*
X179350001Y-142278571D01*
X178778573Y-142278571D01*
X178635715Y-142350000D01*
X178564287Y-142421429D01*
X178492858Y-142564286D01*
X178492858Y-142778571D01*
X178564287Y-142921429D01*
X178635715Y-142992857D01*
X178778573Y-143064286D01*
X179350001Y-143064286D01*
X177850001Y-143778571D02*
X177850001Y-142278571D01*
X176850001Y-142278571D02*
X176564287Y-142278571D01*
X176421429Y-142350000D01*
X176278572Y-142492857D01*
X176207144Y-142778571D01*
X176207144Y-143278571D01*
X176278572Y-143564286D01*
X176421429Y-143707143D01*
X176564287Y-143778571D01*
X176850001Y-143778571D01*
X176992858Y-143707143D01*
X177135715Y-143564286D01*
X177207144Y-143278571D01*
X177207144Y-142778571D01*
X177135715Y-142492857D01*
X176992858Y-142350000D01*
X176850001Y-142278571D01*
X174778572Y-143778571D02*
X175635715Y-143778571D01*
X175207143Y-143778571D02*
X175207143Y-142278571D01*
X175350000Y-142492857D01*
X175492858Y-142635714D01*
X175635715Y-142707143D01*
X174492858Y-143921429D02*
X173350001Y-143921429D01*
X173064287Y-142421429D02*
X172992858Y-142350000D01*
X172850001Y-142278571D01*
X172492858Y-142278571D01*
X172350001Y-142350000D01*
X172278572Y-142421429D01*
X172207144Y-142564286D01*
X172207144Y-142707143D01*
X172278572Y-142921429D01*
X173135715Y-143778571D01*
X172207144Y-143778571D01*
X170921430Y-142778571D02*
X170921430Y-143778571D01*
X171278573Y-142207143D02*
X171635716Y-143278571D01*
X170707144Y-143278571D01*
X196564286Y-148150000D02*
X195850000Y-148150000D01*
X196707143Y-148578571D02*
X196207143Y-147078571D01*
X195707143Y-148578571D01*
X194564286Y-148578571D02*
X194564286Y-147078571D01*
X194564286Y-148507143D02*
X194707143Y-148578571D01*
X194992857Y-148578571D01*
X195135715Y-148507143D01*
X195207143Y-148435714D01*
X195278572Y-148292857D01*
X195278572Y-147864286D01*
X195207143Y-147721429D01*
X195135715Y-147650000D01*
X194992857Y-147578571D01*
X194707143Y-147578571D01*
X194564286Y-147650000D01*
X193207143Y-148578571D02*
X193207143Y-147078571D01*
X193207143Y-148507143D02*
X193350000Y-148578571D01*
X193635714Y-148578571D01*
X193778572Y-148507143D01*
X193850000Y-148435714D01*
X193921429Y-148292857D01*
X193921429Y-147864286D01*
X193850000Y-147721429D01*
X193778572Y-147650000D01*
X193635714Y-147578571D01*
X193350000Y-147578571D01*
X193207143Y-147650000D01*
X192492857Y-148578571D02*
X192492857Y-147578571D01*
X192492857Y-147864286D02*
X192421429Y-147721429D01*
X192350000Y-147650000D01*
X192207143Y-147578571D01*
X192064286Y-147578571D01*
X190992858Y-148507143D02*
X191135715Y-148578571D01*
X191421429Y-148578571D01*
X191564286Y-148507143D01*
X191635715Y-148364286D01*
X191635715Y-147792857D01*
X191564286Y-147650000D01*
X191421429Y-147578571D01*
X191135715Y-147578571D01*
X190992858Y-147650000D01*
X190921429Y-147792857D01*
X190921429Y-147935714D01*
X191635715Y-148078571D01*
X190350001Y-148507143D02*
X190207144Y-148578571D01*
X189921429Y-148578571D01*
X189778572Y-148507143D01*
X189707144Y-148364286D01*
X189707144Y-148292857D01*
X189778572Y-148150000D01*
X189921429Y-148078571D01*
X190135715Y-148078571D01*
X190278572Y-148007143D01*
X190350001Y-147864286D01*
X190350001Y-147792857D01*
X190278572Y-147650000D01*
X190135715Y-147578571D01*
X189921429Y-147578571D01*
X189778572Y-147650000D01*
X189135715Y-148507143D02*
X188992858Y-148578571D01*
X188707143Y-148578571D01*
X188564286Y-148507143D01*
X188492858Y-148364286D01*
X188492858Y-148292857D01*
X188564286Y-148150000D01*
X188707143Y-148078571D01*
X188921429Y-148078571D01*
X189064286Y-148007143D01*
X189135715Y-147864286D01*
X189135715Y-147792857D01*
X189064286Y-147650000D01*
X188921429Y-147578571D01*
X188707143Y-147578571D01*
X188564286Y-147650000D01*
X186778572Y-148507143D02*
X186564286Y-148578571D01*
X186207143Y-148578571D01*
X186064286Y-148507143D01*
X185992857Y-148435714D01*
X185921429Y-148292857D01*
X185921429Y-148150000D01*
X185992857Y-148007143D01*
X186064286Y-147935714D01*
X186207143Y-147864286D01*
X186492857Y-147792857D01*
X186635715Y-147721429D01*
X186707143Y-147650000D01*
X186778572Y-147507143D01*
X186778572Y-147364286D01*
X186707143Y-147221429D01*
X186635715Y-147150000D01*
X186492857Y-147078571D01*
X186135715Y-147078571D01*
X185921429Y-147150000D01*
X185421429Y-147578571D02*
X185135715Y-148578571D01*
X184850001Y-147864286D01*
X184564286Y-148578571D01*
X184278572Y-147578571D01*
X183707143Y-148578571D02*
X183707143Y-147578571D01*
X183707143Y-147078571D02*
X183778572Y-147150000D01*
X183707143Y-147221429D01*
X183635715Y-147150000D01*
X183707143Y-147078571D01*
X183707143Y-147221429D01*
X183207143Y-147578571D02*
X182635714Y-147578571D01*
X182992857Y-147078571D02*
X182992857Y-148364286D01*
X182921429Y-148507143D01*
X182778571Y-148578571D01*
X182635714Y-148578571D01*
X181492857Y-148507143D02*
X181635714Y-148578571D01*
X181921428Y-148578571D01*
X182064286Y-148507143D01*
X182135714Y-148435714D01*
X182207143Y-148292857D01*
X182207143Y-147864286D01*
X182135714Y-147721429D01*
X182064286Y-147650000D01*
X181921428Y-147578571D01*
X181635714Y-147578571D01*
X181492857Y-147650000D01*
X180850000Y-148578571D02*
X180850000Y-147078571D01*
X180207143Y-148578571D02*
X180207143Y-147792857D01*
X180278572Y-147650000D01*
X180421429Y-147578571D01*
X180635714Y-147578571D01*
X180778572Y-147650000D01*
X180850000Y-147721429D01*
X178064286Y-147078571D02*
X177921429Y-147078571D01*
X177778572Y-147150000D01*
X177707143Y-147221429D01*
X177635714Y-147364286D01*
X177564286Y-147650000D01*
X177564286Y-148007143D01*
X177635714Y-148292857D01*
X177707143Y-148435714D01*
X177778572Y-148507143D01*
X177921429Y-148578571D01*
X178064286Y-148578571D01*
X178207143Y-148507143D01*
X178278572Y-148435714D01*
X178350000Y-148292857D01*
X178421429Y-148007143D01*
X178421429Y-147650000D01*
X178350000Y-147364286D01*
X178278572Y-147221429D01*
X178207143Y-147150000D01*
X178064286Y-147078571D01*
X175778572Y-148007143D02*
X174635715Y-148007143D01*
X172778572Y-148578571D02*
X172778572Y-147078571D01*
X172207144Y-147078571D01*
X172064286Y-147150000D01*
X171992858Y-147221429D01*
X171921429Y-147364286D01*
X171921429Y-147578571D01*
X171992858Y-147721429D01*
X172064286Y-147792857D01*
X172207144Y-147864286D01*
X172778572Y-147864286D01*
X171278572Y-148578571D02*
X171278572Y-147078571D01*
X170278572Y-147078571D02*
X169992858Y-147078571D01*
X169850000Y-147150000D01*
X169707143Y-147292857D01*
X169635715Y-147578571D01*
X169635715Y-148078571D01*
X169707143Y-148364286D01*
X169850000Y-148507143D01*
X169992858Y-148578571D01*
X170278572Y-148578571D01*
X170421429Y-148507143D01*
X170564286Y-148364286D01*
X170635715Y-148078571D01*
X170635715Y-147578571D01*
X170564286Y-147292857D01*
X170421429Y-147150000D01*
X170278572Y-147078571D01*
X169064286Y-147221429D02*
X168992857Y-147150000D01*
X168850000Y-147078571D01*
X168492857Y-147078571D01*
X168350000Y-147150000D01*
X168278571Y-147221429D01*
X168207143Y-147364286D01*
X168207143Y-147507143D01*
X168278571Y-147721429D01*
X169135714Y-148578571D01*
X168207143Y-148578571D01*
X167921429Y-148721429D02*
X166778572Y-148721429D01*
X166492858Y-147221429D02*
X166421429Y-147150000D01*
X166278572Y-147078571D01*
X165921429Y-147078571D01*
X165778572Y-147150000D01*
X165707143Y-147221429D01*
X165635715Y-147364286D01*
X165635715Y-147507143D01*
X165707143Y-147721429D01*
X166564286Y-148578571D01*
X165635715Y-148578571D01*
X164707144Y-147078571D02*
X164564287Y-147078571D01*
X164421430Y-147150000D01*
X164350001Y-147221429D01*
X164278572Y-147364286D01*
X164207144Y-147650000D01*
X164207144Y-148007143D01*
X164278572Y-148292857D01*
X164350001Y-148435714D01*
X164421430Y-148507143D01*
X164564287Y-148578571D01*
X164707144Y-148578571D01*
X164850001Y-148507143D01*
X164921430Y-148435714D01*
X164992858Y-148292857D01*
X165064287Y-148007143D01*
X165064287Y-147650000D01*
X164992858Y-147364286D01*
X164921430Y-147221429D01*
X164850001Y-147150000D01*
X164707144Y-147078571D01*
X196564286Y-150550000D02*
X195850000Y-150550000D01*
X196707143Y-150978571D02*
X196207143Y-149478571D01*
X195707143Y-150978571D01*
X194564286Y-150978571D02*
X194564286Y-149478571D01*
X194564286Y-150907143D02*
X194707143Y-150978571D01*
X194992857Y-150978571D01*
X195135715Y-150907143D01*
X195207143Y-150835714D01*
X195278572Y-150692857D01*
X195278572Y-150264286D01*
X195207143Y-150121429D01*
X195135715Y-150050000D01*
X194992857Y-149978571D01*
X194707143Y-149978571D01*
X194564286Y-150050000D01*
X193207143Y-150978571D02*
X193207143Y-149478571D01*
X193207143Y-150907143D02*
X193350000Y-150978571D01*
X193635714Y-150978571D01*
X193778572Y-150907143D01*
X193850000Y-150835714D01*
X193921429Y-150692857D01*
X193921429Y-150264286D01*
X193850000Y-150121429D01*
X193778572Y-150050000D01*
X193635714Y-149978571D01*
X193350000Y-149978571D01*
X193207143Y-150050000D01*
X192492857Y-150978571D02*
X192492857Y-149978571D01*
X192492857Y-150264286D02*
X192421429Y-150121429D01*
X192350000Y-150050000D01*
X192207143Y-149978571D01*
X192064286Y-149978571D01*
X190992858Y-150907143D02*
X191135715Y-150978571D01*
X191421429Y-150978571D01*
X191564286Y-150907143D01*
X191635715Y-150764286D01*
X191635715Y-150192857D01*
X191564286Y-150050000D01*
X191421429Y-149978571D01*
X191135715Y-149978571D01*
X190992858Y-150050000D01*
X190921429Y-150192857D01*
X190921429Y-150335714D01*
X191635715Y-150478571D01*
X190350001Y-150907143D02*
X190207144Y-150978571D01*
X189921429Y-150978571D01*
X189778572Y-150907143D01*
X189707144Y-150764286D01*
X189707144Y-150692857D01*
X189778572Y-150550000D01*
X189921429Y-150478571D01*
X190135715Y-150478571D01*
X190278572Y-150407143D01*
X190350001Y-150264286D01*
X190350001Y-150192857D01*
X190278572Y-150050000D01*
X190135715Y-149978571D01*
X189921429Y-149978571D01*
X189778572Y-150050000D01*
X189135715Y-150907143D02*
X188992858Y-150978571D01*
X188707143Y-150978571D01*
X188564286Y-150907143D01*
X188492858Y-150764286D01*
X188492858Y-150692857D01*
X188564286Y-150550000D01*
X188707143Y-150478571D01*
X188921429Y-150478571D01*
X189064286Y-150407143D01*
X189135715Y-150264286D01*
X189135715Y-150192857D01*
X189064286Y-150050000D01*
X188921429Y-149978571D01*
X188707143Y-149978571D01*
X188564286Y-150050000D01*
X186778572Y-150907143D02*
X186564286Y-150978571D01*
X186207143Y-150978571D01*
X186064286Y-150907143D01*
X185992857Y-150835714D01*
X185921429Y-150692857D01*
X185921429Y-150550000D01*
X185992857Y-150407143D01*
X186064286Y-150335714D01*
X186207143Y-150264286D01*
X186492857Y-150192857D01*
X186635715Y-150121429D01*
X186707143Y-150050000D01*
X186778572Y-149907143D01*
X186778572Y-149764286D01*
X186707143Y-149621429D01*
X186635715Y-149550000D01*
X186492857Y-149478571D01*
X186135715Y-149478571D01*
X185921429Y-149550000D01*
X185421429Y-149978571D02*
X185135715Y-150978571D01*
X184850001Y-150264286D01*
X184564286Y-150978571D01*
X184278572Y-149978571D01*
X183707143Y-150978571D02*
X183707143Y-149978571D01*
X183707143Y-149478571D02*
X183778572Y-149550000D01*
X183707143Y-149621429D01*
X183635715Y-149550000D01*
X183707143Y-149478571D01*
X183707143Y-149621429D01*
X183207143Y-149978571D02*
X182635714Y-149978571D01*
X182992857Y-149478571D02*
X182992857Y-150764286D01*
X182921429Y-150907143D01*
X182778571Y-150978571D01*
X182635714Y-150978571D01*
X181492857Y-150907143D02*
X181635714Y-150978571D01*
X181921428Y-150978571D01*
X182064286Y-150907143D01*
X182135714Y-150835714D01*
X182207143Y-150692857D01*
X182207143Y-150264286D01*
X182135714Y-150121429D01*
X182064286Y-150050000D01*
X181921428Y-149978571D01*
X181635714Y-149978571D01*
X181492857Y-150050000D01*
X180850000Y-150978571D02*
X180850000Y-149478571D01*
X180207143Y-150978571D02*
X180207143Y-150192857D01*
X180278572Y-150050000D01*
X180421429Y-149978571D01*
X180635714Y-149978571D01*
X180778572Y-150050000D01*
X180850000Y-150121429D01*
X177564286Y-150978571D02*
X178421429Y-150978571D01*
X177992857Y-150978571D02*
X177992857Y-149478571D01*
X178135714Y-149692857D01*
X178278572Y-149835714D01*
X178421429Y-149907143D01*
X175778572Y-150407143D02*
X174635715Y-150407143D01*
X172778572Y-150978571D02*
X172778572Y-149478571D01*
X172207144Y-149478571D01*
X172064286Y-149550000D01*
X171992858Y-149621429D01*
X171921429Y-149764286D01*
X171921429Y-149978571D01*
X171992858Y-150121429D01*
X172064286Y-150192857D01*
X172207144Y-150264286D01*
X172778572Y-150264286D01*
X171278572Y-150978571D02*
X171278572Y-149478571D01*
X170278572Y-149478571D02*
X169992858Y-149478571D01*
X169850000Y-149550000D01*
X169707143Y-149692857D01*
X169635715Y-149978571D01*
X169635715Y-150478571D01*
X169707143Y-150764286D01*
X169850000Y-150907143D01*
X169992858Y-150978571D01*
X170278572Y-150978571D01*
X170421429Y-150907143D01*
X170564286Y-150764286D01*
X170635715Y-150478571D01*
X170635715Y-149978571D01*
X170564286Y-149692857D01*
X170421429Y-149550000D01*
X170278572Y-149478571D01*
X169064286Y-149621429D02*
X168992857Y-149550000D01*
X168850000Y-149478571D01*
X168492857Y-149478571D01*
X168350000Y-149550000D01*
X168278571Y-149621429D01*
X168207143Y-149764286D01*
X168207143Y-149907143D01*
X168278571Y-150121429D01*
X169135714Y-150978571D01*
X168207143Y-150978571D01*
X167921429Y-151121429D02*
X166778572Y-151121429D01*
X166492858Y-149621429D02*
X166421429Y-149550000D01*
X166278572Y-149478571D01*
X165921429Y-149478571D01*
X165778572Y-149550000D01*
X165707143Y-149621429D01*
X165635715Y-149764286D01*
X165635715Y-149907143D01*
X165707143Y-150121429D01*
X166564286Y-150978571D01*
X165635715Y-150978571D01*
X164207144Y-150978571D02*
X165064287Y-150978571D01*
X164635715Y-150978571D02*
X164635715Y-149478571D01*
X164778572Y-149692857D01*
X164921430Y-149835714D01*
X165064287Y-149907143D01*
X196564286Y-152950000D02*
X195850000Y-152950000D01*
X196707143Y-153378571D02*
X196207143Y-151878571D01*
X195707143Y-153378571D01*
X194564286Y-153378571D02*
X194564286Y-151878571D01*
X194564286Y-153307143D02*
X194707143Y-153378571D01*
X194992857Y-153378571D01*
X195135715Y-153307143D01*
X195207143Y-153235714D01*
X195278572Y-153092857D01*
X195278572Y-152664286D01*
X195207143Y-152521429D01*
X195135715Y-152450000D01*
X194992857Y-152378571D01*
X194707143Y-152378571D01*
X194564286Y-152450000D01*
X193207143Y-153378571D02*
X193207143Y-151878571D01*
X193207143Y-153307143D02*
X193350000Y-153378571D01*
X193635714Y-153378571D01*
X193778572Y-153307143D01*
X193850000Y-153235714D01*
X193921429Y-153092857D01*
X193921429Y-152664286D01*
X193850000Y-152521429D01*
X193778572Y-152450000D01*
X193635714Y-152378571D01*
X193350000Y-152378571D01*
X193207143Y-152450000D01*
X192492857Y-153378571D02*
X192492857Y-152378571D01*
X192492857Y-152664286D02*
X192421429Y-152521429D01*
X192350000Y-152450000D01*
X192207143Y-152378571D01*
X192064286Y-152378571D01*
X190992858Y-153307143D02*
X191135715Y-153378571D01*
X191421429Y-153378571D01*
X191564286Y-153307143D01*
X191635715Y-153164286D01*
X191635715Y-152592857D01*
X191564286Y-152450000D01*
X191421429Y-152378571D01*
X191135715Y-152378571D01*
X190992858Y-152450000D01*
X190921429Y-152592857D01*
X190921429Y-152735714D01*
X191635715Y-152878571D01*
X190350001Y-153307143D02*
X190207144Y-153378571D01*
X189921429Y-153378571D01*
X189778572Y-153307143D01*
X189707144Y-153164286D01*
X189707144Y-153092857D01*
X189778572Y-152950000D01*
X189921429Y-152878571D01*
X190135715Y-152878571D01*
X190278572Y-152807143D01*
X190350001Y-152664286D01*
X190350001Y-152592857D01*
X190278572Y-152450000D01*
X190135715Y-152378571D01*
X189921429Y-152378571D01*
X189778572Y-152450000D01*
X189135715Y-153307143D02*
X188992858Y-153378571D01*
X188707143Y-153378571D01*
X188564286Y-153307143D01*
X188492858Y-153164286D01*
X188492858Y-153092857D01*
X188564286Y-152950000D01*
X188707143Y-152878571D01*
X188921429Y-152878571D01*
X189064286Y-152807143D01*
X189135715Y-152664286D01*
X189135715Y-152592857D01*
X189064286Y-152450000D01*
X188921429Y-152378571D01*
X188707143Y-152378571D01*
X188564286Y-152450000D01*
X186778572Y-153307143D02*
X186564286Y-153378571D01*
X186207143Y-153378571D01*
X186064286Y-153307143D01*
X185992857Y-153235714D01*
X185921429Y-153092857D01*
X185921429Y-152950000D01*
X185992857Y-152807143D01*
X186064286Y-152735714D01*
X186207143Y-152664286D01*
X186492857Y-152592857D01*
X186635715Y-152521429D01*
X186707143Y-152450000D01*
X186778572Y-152307143D01*
X186778572Y-152164286D01*
X186707143Y-152021429D01*
X186635715Y-151950000D01*
X186492857Y-151878571D01*
X186135715Y-151878571D01*
X185921429Y-151950000D01*
X185421429Y-152378571D02*
X185135715Y-153378571D01*
X184850001Y-152664286D01*
X184564286Y-153378571D01*
X184278572Y-152378571D01*
X183707143Y-153378571D02*
X183707143Y-152378571D01*
X183707143Y-151878571D02*
X183778572Y-151950000D01*
X183707143Y-152021429D01*
X183635715Y-151950000D01*
X183707143Y-151878571D01*
X183707143Y-152021429D01*
X183207143Y-152378571D02*
X182635714Y-152378571D01*
X182992857Y-151878571D02*
X182992857Y-153164286D01*
X182921429Y-153307143D01*
X182778571Y-153378571D01*
X182635714Y-153378571D01*
X181492857Y-153307143D02*
X181635714Y-153378571D01*
X181921428Y-153378571D01*
X182064286Y-153307143D01*
X182135714Y-153235714D01*
X182207143Y-153092857D01*
X182207143Y-152664286D01*
X182135714Y-152521429D01*
X182064286Y-152450000D01*
X181921428Y-152378571D01*
X181635714Y-152378571D01*
X181492857Y-152450000D01*
X180850000Y-153378571D02*
X180850000Y-151878571D01*
X180207143Y-153378571D02*
X180207143Y-152592857D01*
X180278572Y-152450000D01*
X180421429Y-152378571D01*
X180635714Y-152378571D01*
X180778572Y-152450000D01*
X180850000Y-152521429D01*
X178421429Y-152021429D02*
X178350000Y-151950000D01*
X178207143Y-151878571D01*
X177850000Y-151878571D01*
X177707143Y-151950000D01*
X177635714Y-152021429D01*
X177564286Y-152164286D01*
X177564286Y-152307143D01*
X177635714Y-152521429D01*
X178492857Y-153378571D01*
X177564286Y-153378571D01*
X175778572Y-152807143D02*
X174635715Y-152807143D01*
X172778572Y-153378571D02*
X172778572Y-151878571D01*
X172207144Y-151878571D01*
X172064286Y-151950000D01*
X171992858Y-152021429D01*
X171921429Y-152164286D01*
X171921429Y-152378571D01*
X171992858Y-152521429D01*
X172064286Y-152592857D01*
X172207144Y-152664286D01*
X172778572Y-152664286D01*
X171278572Y-153378571D02*
X171278572Y-151878571D01*
X170278572Y-151878571D02*
X169992858Y-151878571D01*
X169850000Y-151950000D01*
X169707143Y-152092857D01*
X169635715Y-152378571D01*
X169635715Y-152878571D01*
X169707143Y-153164286D01*
X169850000Y-153307143D01*
X169992858Y-153378571D01*
X170278572Y-153378571D01*
X170421429Y-153307143D01*
X170564286Y-153164286D01*
X170635715Y-152878571D01*
X170635715Y-152378571D01*
X170564286Y-152092857D01*
X170421429Y-151950000D01*
X170278572Y-151878571D01*
X169064286Y-152021429D02*
X168992857Y-151950000D01*
X168850000Y-151878571D01*
X168492857Y-151878571D01*
X168350000Y-151950000D01*
X168278571Y-152021429D01*
X168207143Y-152164286D01*
X168207143Y-152307143D01*
X168278571Y-152521429D01*
X169135714Y-153378571D01*
X168207143Y-153378571D01*
X167921429Y-153521429D02*
X166778572Y-153521429D01*
X166492858Y-152021429D02*
X166421429Y-151950000D01*
X166278572Y-151878571D01*
X165921429Y-151878571D01*
X165778572Y-151950000D01*
X165707143Y-152021429D01*
X165635715Y-152164286D01*
X165635715Y-152307143D01*
X165707143Y-152521429D01*
X166564286Y-153378571D01*
X165635715Y-153378571D01*
X165064287Y-152021429D02*
X164992858Y-151950000D01*
X164850001Y-151878571D01*
X164492858Y-151878571D01*
X164350001Y-151950000D01*
X164278572Y-152021429D01*
X164207144Y-152164286D01*
X164207144Y-152307143D01*
X164278572Y-152521429D01*
X165135715Y-153378571D01*
X164207144Y-153378571D01*
X196564286Y-155350000D02*
X195850000Y-155350000D01*
X196707143Y-155778571D02*
X196207143Y-154278571D01*
X195707143Y-155778571D01*
X194564286Y-155778571D02*
X194564286Y-154278571D01*
X194564286Y-155707143D02*
X194707143Y-155778571D01*
X194992857Y-155778571D01*
X195135715Y-155707143D01*
X195207143Y-155635714D01*
X195278572Y-155492857D01*
X195278572Y-155064286D01*
X195207143Y-154921429D01*
X195135715Y-154850000D01*
X194992857Y-154778571D01*
X194707143Y-154778571D01*
X194564286Y-154850000D01*
X193207143Y-155778571D02*
X193207143Y-154278571D01*
X193207143Y-155707143D02*
X193350000Y-155778571D01*
X193635714Y-155778571D01*
X193778572Y-155707143D01*
X193850000Y-155635714D01*
X193921429Y-155492857D01*
X193921429Y-155064286D01*
X193850000Y-154921429D01*
X193778572Y-154850000D01*
X193635714Y-154778571D01*
X193350000Y-154778571D01*
X193207143Y-154850000D01*
X192492857Y-155778571D02*
X192492857Y-154778571D01*
X192492857Y-155064286D02*
X192421429Y-154921429D01*
X192350000Y-154850000D01*
X192207143Y-154778571D01*
X192064286Y-154778571D01*
X190992858Y-155707143D02*
X191135715Y-155778571D01*
X191421429Y-155778571D01*
X191564286Y-155707143D01*
X191635715Y-155564286D01*
X191635715Y-154992857D01*
X191564286Y-154850000D01*
X191421429Y-154778571D01*
X191135715Y-154778571D01*
X190992858Y-154850000D01*
X190921429Y-154992857D01*
X190921429Y-155135714D01*
X191635715Y-155278571D01*
X190350001Y-155707143D02*
X190207144Y-155778571D01*
X189921429Y-155778571D01*
X189778572Y-155707143D01*
X189707144Y-155564286D01*
X189707144Y-155492857D01*
X189778572Y-155350000D01*
X189921429Y-155278571D01*
X190135715Y-155278571D01*
X190278572Y-155207143D01*
X190350001Y-155064286D01*
X190350001Y-154992857D01*
X190278572Y-154850000D01*
X190135715Y-154778571D01*
X189921429Y-154778571D01*
X189778572Y-154850000D01*
X189135715Y-155707143D02*
X188992858Y-155778571D01*
X188707143Y-155778571D01*
X188564286Y-155707143D01*
X188492858Y-155564286D01*
X188492858Y-155492857D01*
X188564286Y-155350000D01*
X188707143Y-155278571D01*
X188921429Y-155278571D01*
X189064286Y-155207143D01*
X189135715Y-155064286D01*
X189135715Y-154992857D01*
X189064286Y-154850000D01*
X188921429Y-154778571D01*
X188707143Y-154778571D01*
X188564286Y-154850000D01*
X186778572Y-155707143D02*
X186564286Y-155778571D01*
X186207143Y-155778571D01*
X186064286Y-155707143D01*
X185992857Y-155635714D01*
X185921429Y-155492857D01*
X185921429Y-155350000D01*
X185992857Y-155207143D01*
X186064286Y-155135714D01*
X186207143Y-155064286D01*
X186492857Y-154992857D01*
X186635715Y-154921429D01*
X186707143Y-154850000D01*
X186778572Y-154707143D01*
X186778572Y-154564286D01*
X186707143Y-154421429D01*
X186635715Y-154350000D01*
X186492857Y-154278571D01*
X186135715Y-154278571D01*
X185921429Y-154350000D01*
X185421429Y-154778571D02*
X185135715Y-155778571D01*
X184850001Y-155064286D01*
X184564286Y-155778571D01*
X184278572Y-154778571D01*
X183707143Y-155778571D02*
X183707143Y-154778571D01*
X183707143Y-154278571D02*
X183778572Y-154350000D01*
X183707143Y-154421429D01*
X183635715Y-154350000D01*
X183707143Y-154278571D01*
X183707143Y-154421429D01*
X183207143Y-154778571D02*
X182635714Y-154778571D01*
X182992857Y-154278571D02*
X182992857Y-155564286D01*
X182921429Y-155707143D01*
X182778571Y-155778571D01*
X182635714Y-155778571D01*
X181492857Y-155707143D02*
X181635714Y-155778571D01*
X181921428Y-155778571D01*
X182064286Y-155707143D01*
X182135714Y-155635714D01*
X182207143Y-155492857D01*
X182207143Y-155064286D01*
X182135714Y-154921429D01*
X182064286Y-154850000D01*
X181921428Y-154778571D01*
X181635714Y-154778571D01*
X181492857Y-154850000D01*
X180850000Y-155778571D02*
X180850000Y-154278571D01*
X180207143Y-155778571D02*
X180207143Y-154992857D01*
X180278572Y-154850000D01*
X180421429Y-154778571D01*
X180635714Y-154778571D01*
X180778572Y-154850000D01*
X180850000Y-154921429D01*
X178492857Y-154278571D02*
X177564286Y-154278571D01*
X178064286Y-154850000D01*
X177850000Y-154850000D01*
X177707143Y-154921429D01*
X177635714Y-154992857D01*
X177564286Y-155135714D01*
X177564286Y-155492857D01*
X177635714Y-155635714D01*
X177707143Y-155707143D01*
X177850000Y-155778571D01*
X178278572Y-155778571D01*
X178421429Y-155707143D01*
X178492857Y-155635714D01*
X175778572Y-155207143D02*
X174635715Y-155207143D01*
X172778572Y-155778571D02*
X172778572Y-154278571D01*
X172207144Y-154278571D01*
X172064286Y-154350000D01*
X171992858Y-154421429D01*
X171921429Y-154564286D01*
X171921429Y-154778571D01*
X171992858Y-154921429D01*
X172064286Y-154992857D01*
X172207144Y-155064286D01*
X172778572Y-155064286D01*
X171278572Y-155778571D02*
X171278572Y-154278571D01*
X170278572Y-154278571D02*
X169992858Y-154278571D01*
X169850000Y-154350000D01*
X169707143Y-154492857D01*
X169635715Y-154778571D01*
X169635715Y-155278571D01*
X169707143Y-155564286D01*
X169850000Y-155707143D01*
X169992858Y-155778571D01*
X170278572Y-155778571D01*
X170421429Y-155707143D01*
X170564286Y-155564286D01*
X170635715Y-155278571D01*
X170635715Y-154778571D01*
X170564286Y-154492857D01*
X170421429Y-154350000D01*
X170278572Y-154278571D01*
X169064286Y-154421429D02*
X168992857Y-154350000D01*
X168850000Y-154278571D01*
X168492857Y-154278571D01*
X168350000Y-154350000D01*
X168278571Y-154421429D01*
X168207143Y-154564286D01*
X168207143Y-154707143D01*
X168278571Y-154921429D01*
X169135714Y-155778571D01*
X168207143Y-155778571D01*
X167921429Y-155921429D02*
X166778572Y-155921429D01*
X166492858Y-154421429D02*
X166421429Y-154350000D01*
X166278572Y-154278571D01*
X165921429Y-154278571D01*
X165778572Y-154350000D01*
X165707143Y-154421429D01*
X165635715Y-154564286D01*
X165635715Y-154707143D01*
X165707143Y-154921429D01*
X166564286Y-155778571D01*
X165635715Y-155778571D01*
X165135715Y-154278571D02*
X164207144Y-154278571D01*
X164707144Y-154850000D01*
X164492858Y-154850000D01*
X164350001Y-154921429D01*
X164278572Y-154992857D01*
X164207144Y-155135714D01*
X164207144Y-155492857D01*
X164278572Y-155635714D01*
X164350001Y-155707143D01*
X164492858Y-155778571D01*
X164921430Y-155778571D01*
X165064287Y-155707143D01*
X165135715Y-155635714D01*
X195778571Y-160578571D02*
X196492857Y-160578571D01*
X196492857Y-159078571D01*
X195278571Y-159792857D02*
X194778571Y-159792857D01*
X194564285Y-160578571D02*
X195278571Y-160578571D01*
X195278571Y-159078571D01*
X194564285Y-159078571D01*
X193921428Y-160578571D02*
X193921428Y-159078571D01*
X193564285Y-159078571D01*
X193350000Y-159150000D01*
X193207142Y-159292857D01*
X193135714Y-159435714D01*
X193064285Y-159721429D01*
X193064285Y-159935714D01*
X193135714Y-160221429D01*
X193207142Y-160364286D01*
X193350000Y-160507143D01*
X193564285Y-160578571D01*
X193921428Y-160578571D01*
X191278571Y-160007143D02*
X190135714Y-160007143D01*
X188278571Y-160578571D02*
X188278571Y-159078571D01*
X187707143Y-159078571D01*
X187564285Y-159150000D01*
X187492857Y-159221429D01*
X187421428Y-159364286D01*
X187421428Y-159578571D01*
X187492857Y-159721429D01*
X187564285Y-159792857D01*
X187707143Y-159864286D01*
X188278571Y-159864286D01*
X186778571Y-160578571D02*
X186778571Y-159078571D01*
X185778571Y-159078571D02*
X185492857Y-159078571D01*
X185349999Y-159150000D01*
X185207142Y-159292857D01*
X185135714Y-159578571D01*
X185135714Y-160078571D01*
X185207142Y-160364286D01*
X185349999Y-160507143D01*
X185492857Y-160578571D01*
X185778571Y-160578571D01*
X185921428Y-160507143D01*
X186064285Y-160364286D01*
X186135714Y-160078571D01*
X186135714Y-159578571D01*
X186064285Y-159292857D01*
X185921428Y-159150000D01*
X185778571Y-159078571D01*
X184564285Y-159221429D02*
X184492856Y-159150000D01*
X184349999Y-159078571D01*
X183992856Y-159078571D01*
X183849999Y-159150000D01*
X183778570Y-159221429D01*
X183707142Y-159364286D01*
X183707142Y-159507143D01*
X183778570Y-159721429D01*
X184635713Y-160578571D01*
X183707142Y-160578571D01*
X183421428Y-160721429D02*
X182278571Y-160721429D01*
X181135714Y-160578571D02*
X181992857Y-160578571D01*
X181564285Y-160578571D02*
X181564285Y-159078571D01*
X181707142Y-159292857D01*
X181850000Y-159435714D01*
X181992857Y-159507143D01*
X180564286Y-159221429D02*
X180492857Y-159150000D01*
X180350000Y-159078571D01*
X179992857Y-159078571D01*
X179850000Y-159150000D01*
X179778571Y-159221429D01*
X179707143Y-159364286D01*
X179707143Y-159507143D01*
X179778571Y-159721429D01*
X180635714Y-160578571D01*
X179707143Y-160578571D01*
M02*
